<svg width="190" height="54" viewBox="0 0 190 54" fill="none" xmlns="http://www.w3.org/2000/svg">
<g filter="url(#filter0_d_9_94)">
<path d="M5 23C5 10.8497 14.8497 1 27 1H163C175.15 1 185 10.8497 185 23C185 35.1503 175.15 45 163 45H27C14.8497 45 5 35.1503 5 23Z" fill="url(#paint0_linear_9_94)" shape-rendering="crispEdges"/>
<path d="M40.056 29.112C39.2347 29.112 38.4987 28.9787 37.848 28.712C37.1973 28.4453 36.6747 28.0507 36.28 27.528C35.896 27.0053 35.6933 26.376 35.672 25.64H38.584C38.6267 26.056 38.7707 26.376 39.016 26.6C39.2613 26.8133 39.5813 26.92 39.976 26.92C40.3813 26.92 40.7013 26.8293 40.936 26.648C41.1707 26.456 41.288 26.1947 41.288 25.864C41.288 25.5867 41.192 25.3573 41 25.176C40.8187 24.9947 40.5893 24.8453 40.312 24.728C40.0453 24.6107 39.6613 24.4773 39.16 24.328C38.4347 24.104 37.8427 23.88 37.384 23.656C36.9253 23.432 36.5307 23.1013 36.2 22.664C35.8693 22.2267 35.704 21.656 35.704 20.952C35.704 19.9067 36.0827 19.0907 36.84 18.504C37.5973 17.9067 38.584 17.608 39.8 17.608C41.0373 17.608 42.0347 17.9067 42.792 18.504C43.5493 19.0907 43.9547 19.912 44.008 20.968H41.048C41.0267 20.6053 40.8933 20.3227 40.648 20.12C40.4027 19.9067 40.088 19.8 39.704 19.8C39.3733 19.8 39.1067 19.8907 38.904 20.072C38.7013 20.2427 38.6 20.4933 38.6 20.824C38.6 21.1867 38.7707 21.4693 39.112 21.672C39.4533 21.8747 39.9867 22.0933 40.712 22.328C41.4373 22.5733 42.024 22.808 42.472 23.032C42.9307 23.256 43.3253 23.5813 43.656 24.008C43.9867 24.4347 44.152 24.984 44.152 25.656C44.152 26.296 43.9867 26.8773 43.656 27.4C43.336 27.9227 42.8667 28.3387 42.248 28.648C41.6293 28.9573 40.8987 29.112 40.056 29.112ZM47.2118 19.144C46.7318 19.144 46.3371 19.0053 46.0278 18.728C45.7291 18.44 45.5798 18.088 45.5798 17.672C45.5798 17.2453 45.7291 16.8933 46.0278 16.616C46.3371 16.328 46.7318 16.184 47.2118 16.184C47.6811 16.184 48.0651 16.328 48.3638 16.616C48.6731 16.8933 48.8278 17.2453 48.8278 17.672C48.8278 18.088 48.6731 18.44 48.3638 18.728C48.0651 19.0053 47.6811 19.144 47.2118 19.144ZM48.5718 20.072V29H45.8358V20.072H48.5718ZM53.9465 19.944C54.5758 19.944 55.1252 20.072 55.5945 20.328C56.0745 20.584 56.4425 20.92 56.6985 21.336V20.072H59.4345V28.984C59.4345 29.8053 59.2692 30.5467 58.9385 31.208C58.6185 31.88 58.1225 32.4133 57.4505 32.808C56.7892 33.2027 55.9625 33.4 54.9705 33.4C53.6478 33.4 52.5758 33.0853 51.7545 32.456C50.9332 31.8373 50.4638 30.9947 50.3465 29.928H53.0505C53.1358 30.2693 53.3385 30.536 53.6585 30.728C53.9785 30.9307 54.3732 31.032 54.8425 31.032C55.4078 31.032 55.8558 30.8667 56.1865 30.536C56.5278 30.216 56.6985 29.6987 56.6985 28.984V27.72C56.4318 28.136 56.0638 28.4773 55.5945 28.744C55.1252 29 54.5758 29.128 53.9465 29.128C53.2105 29.128 52.5438 28.9413 51.9465 28.568C51.3492 28.184 50.8745 27.6453 50.5225 26.952C50.1812 26.248 50.0105 25.4373 50.0105 24.52C50.0105 23.6027 50.1812 22.7973 50.5225 22.104C50.8745 21.4107 51.3492 20.8773 51.9465 20.504C52.5438 20.1307 53.2105 19.944 53.9465 19.944ZM56.6985 24.536C56.6985 23.8533 56.5065 23.3147 56.1225 22.92C55.7492 22.5253 55.2905 22.328 54.7465 22.328C54.2025 22.328 53.7385 22.5253 53.3545 22.92C52.9812 23.304 52.7945 23.8373 52.7945 24.52C52.7945 25.2027 52.9812 25.7467 53.3545 26.152C53.7385 26.5467 54.2025 26.744 54.7465 26.744C55.2905 26.744 55.7492 26.5467 56.1225 26.152C56.5065 25.7573 56.6985 25.2187 56.6985 24.536ZM66.8539 19.976C67.8992 19.976 68.7312 20.3173 69.3499 21C69.9792 21.672 70.2939 22.6 70.2939 23.784V29H67.5739V24.152C67.5739 23.5547 67.4192 23.0907 67.1099 22.76C66.8005 22.4293 66.3845 22.264 65.8619 22.264C65.3392 22.264 64.9232 22.4293 64.6139 22.76C64.3045 23.0907 64.1499 23.5547 64.1499 24.152V29H61.4139V20.072H64.1499V21.256C64.4272 20.8613 64.8005 20.552 65.2699 20.328C65.7392 20.0933 66.2672 19.976 66.8539 19.976ZM84.4018 20.072V29H81.6658V27.784C81.3884 28.1787 81.0098 28.4987 80.5298 28.744C80.0604 28.9787 79.5378 29.096 78.9618 29.096C78.2791 29.096 77.6764 28.9467 77.1538 28.648C76.6311 28.3387 76.2258 27.896 75.9378 27.32C75.6498 26.744 75.5058 26.0667 75.5058 25.288V20.072H78.2258V24.92C78.2258 25.5173 78.3804 25.9813 78.6898 26.312C78.9991 26.6427 79.4151 26.808 79.9378 26.808C80.4711 26.808 80.8924 26.6427 81.2018 26.312C81.5111 25.9813 81.6658 25.5173 81.6658 24.92V20.072H84.4018ZM89.103 21.336C89.3697 20.92 89.7377 20.584 90.207 20.328C90.6763 20.072 91.2257 19.944 91.855 19.944C92.591 19.944 93.2577 20.1307 93.855 20.504C94.4523 20.8773 94.9217 21.4107 95.263 22.104C95.615 22.7973 95.791 23.6027 95.791 24.52C95.791 25.4373 95.615 26.248 95.263 26.952C94.9217 27.6453 94.4523 28.184 93.855 28.568C93.2577 28.9413 92.591 29.128 91.855 29.128C91.2363 29.128 90.687 29 90.207 28.744C89.7377 28.488 89.3697 28.1573 89.103 27.752V33.256H86.367V20.072H89.103V21.336ZM93.007 24.52C93.007 23.8373 92.815 23.304 92.431 22.92C92.0577 22.5253 91.5937 22.328 91.039 22.328C90.495 22.328 90.031 22.5253 89.647 22.92C89.2737 23.3147 89.087 23.8533 89.087 24.536C89.087 25.2187 89.2737 25.7573 89.647 26.152C90.031 26.5467 90.495 26.744 91.039 26.744C91.583 26.744 92.047 26.5467 92.431 26.152C92.815 25.7467 93.007 25.2027 93.007 24.52ZM105.593 26.68V29H104.201C103.209 29 102.436 28.76 101.881 28.28C101.326 27.7893 101.049 26.9947 101.049 25.896V22.344H99.961V20.072H101.049V17.896H103.785V20.072H105.577V22.344H103.785V25.928C103.785 26.1947 103.849 26.3867 103.977 26.504C104.105 26.6213 104.318 26.68 104.617 26.68H105.593ZM111.181 29.128C110.306 29.128 109.517 28.9413 108.813 28.568C108.12 28.1947 107.57 27.6613 107.165 26.968C106.77 26.2747 106.573 25.464 106.573 24.536C106.573 23.6187 106.776 22.8133 107.181 22.12C107.586 21.416 108.141 20.8773 108.845 20.504C109.549 20.1307 110.338 19.944 111.213 19.944C112.088 19.944 112.877 20.1307 113.581 20.504C114.285 20.8773 114.84 21.416 115.245 22.12C115.65 22.8133 115.853 23.6187 115.853 24.536C115.853 25.4533 115.645 26.264 115.229 26.968C114.824 27.6613 114.264 28.1947 113.549 28.568C112.845 28.9413 112.056 29.128 111.181 29.128ZM111.181 26.76C111.704 26.76 112.146 26.568 112.509 26.184C112.882 25.8 113.069 25.2507 113.069 24.536C113.069 23.8213 112.888 23.272 112.525 22.888C112.173 22.504 111.736 22.312 111.213 22.312C110.68 22.312 110.237 22.504 109.885 22.888C109.533 23.2613 109.357 23.8107 109.357 24.536C109.357 25.2507 109.528 25.8 109.869 26.184C110.221 26.568 110.658 26.76 111.181 26.76ZM116.761 24.52C116.761 23.6027 116.931 22.7973 117.273 22.104C117.625 21.4107 118.099 20.8773 118.697 20.504C119.294 20.1307 119.961 19.944 120.697 19.944C121.283 19.944 121.817 20.0667 122.297 20.312C122.787 20.5573 123.171 20.888 123.449 21.304V17.16H126.185V29H123.449V27.72C123.193 28.1467 122.825 28.488 122.345 28.744C121.875 29 121.326 29.128 120.697 29.128C119.961 29.128 119.294 28.9413 118.697 28.568C118.099 28.184 117.625 27.6453 117.273 26.952C116.931 26.248 116.761 25.4373 116.761 24.52ZM123.449 24.536C123.449 23.8533 123.257 23.3147 122.873 22.92C122.499 22.5253 122.041 22.328 121.497 22.328C120.953 22.328 120.489 22.5253 120.105 22.92C119.731 23.304 119.545 23.8373 119.545 24.52C119.545 25.2027 119.731 25.7467 120.105 26.152C120.489 26.5467 120.953 26.744 121.497 26.744C122.041 26.744 122.499 26.5467 122.873 26.152C123.257 25.7573 123.449 25.2187 123.449 24.536ZM127.62 24.52C127.62 23.6027 127.791 22.7973 128.132 22.104C128.484 21.4107 128.959 20.8773 129.556 20.504C130.153 20.1307 130.82 19.944 131.556 19.944C132.185 19.944 132.735 20.072 133.204 20.328C133.684 20.584 134.052 20.92 134.308 21.336V20.072H137.044V29H134.308V27.736C134.041 28.152 133.668 28.488 133.188 28.744C132.719 29 132.169 29.128 131.54 29.128C130.815 29.128 130.153 28.9413 129.556 28.568C128.959 28.184 128.484 27.6453 128.132 26.952C127.791 26.248 127.62 25.4373 127.62 24.52ZM134.308 24.536C134.308 23.8533 134.116 23.3147 133.732 22.92C133.359 22.5253 132.9 22.328 132.356 22.328C131.812 22.328 131.348 22.5253 130.964 22.92C130.591 23.304 130.404 23.8373 130.404 24.52C130.404 25.2027 130.591 25.7467 130.964 26.152C131.348 26.5467 131.812 26.744 132.356 26.744C132.9 26.744 133.359 26.5467 133.732 26.152C134.116 25.7573 134.308 25.2187 134.308 24.536ZM148.143 20.072L142.543 33.24H139.599L141.647 28.696L138.015 20.072H141.071L143.135 25.656L145.183 20.072H148.143ZM152.733 17.368L152.413 25.032H150.093L149.773 17.368H152.733ZM151.293 29.128C150.813 29.128 150.418 28.9893 150.109 28.712C149.81 28.424 149.661 28.072 149.661 27.656C149.661 27.2293 149.81 26.872 150.109 26.584C150.418 26.296 150.813 26.152 151.293 26.152C151.762 26.152 152.146 26.296 152.445 26.584C152.754 26.872 152.909 27.2293 152.909 27.656C152.909 28.072 152.754 28.424 152.445 28.712C152.146 28.9893 151.762 29.128 151.293 29.128Z" fill="white"/>
<path d="M27 2H163V0H27V2ZM163 44H27V46H163V44ZM27 44C15.402 44 6 34.598 6 23H4C4 35.7025 14.2975 46 27 46V44ZM184 23C184 34.598 174.598 44 163 44V46C175.703 46 186 35.7025 186 23H184ZM163 2C174.598 2 184 11.402 184 23H186C186 10.2975 175.703 0 163 0V2ZM27 0C14.2975 0 4 10.2975 4 23H6C6 11.402 15.402 2 27 2V0Z" fill="url(#paint1_linear_9_94)"/>
</g>
<defs>
<filter id="filter0_d_9_94" x="0" y="0" width="190" height="54" filterUnits="userSpaceOnUse" color-interpolation-filters="sRGB">
<feFlood flood-opacity="0" result="BackgroundImageFix"/>
<feColorMatrix in="SourceAlpha" type="matrix" values="0 0 0 0 0 0 0 0 0 0 0 0 0 0 0 0 0 0 127 0" result="hardAlpha"/>
<feOffset dy="4"/>
<feGaussianBlur stdDeviation="2"/>
<feComposite in2="hardAlpha" operator="out"/>
<feColorMatrix type="matrix" values="0 0 0 0 0 0 0 0 0 0 0 0 0 0 0 0 0 0 0.1 0"/>
<feBlend mode="normal" in2="BackgroundImageFix" result="effect1_dropShadow_9_94"/>
<feBlend mode="normal" in="SourceGraphic" in2="effect1_dropShadow_9_94" result="shape"/>
</filter>
<linearGradient id="paint0_linear_9_94" x1="5" y1="23" x2="185" y2="23" gradientUnits="userSpaceOnUse">
<stop stop-color="#FEAA69"/>
<stop offset="1" stop-color="#7B56C9"/>
</linearGradient>
<linearGradient id="paint1_linear_9_94" x1="5" y1="23" x2="197.541" y2="23" gradientUnits="userSpaceOnUse">
<stop stop-color="#FEAA69"/>
<stop offset="1" stop-color="#7B56C9"/>
</linearGradient>
</defs>
</svg>
