<svg width="130" height="48" viewBox="0 0 130 48" fill="none" xmlns="http://www.w3.org/2000/svg">
<path d="M3.4927 11.7883C2.95245 11.7883 2.47484 11.6943 2.05986 11.5064C1.65272 11.3185 1.3317 11.0562 1.09681 10.7195C0.861922 10.3828 0.736647 10.007 0.720987 9.59204H1.59008C1.62923 9.99135 1.8054 10.3437 2.11859 10.649C2.43177 10.9466 2.88981 11.0953 3.4927 11.0953C4.04861 11.0953 4.48707 10.9544 4.80809 10.6725C5.13693 10.3828 5.30136 10.0188 5.30136 9.58029C5.30136 9.22796 5.21131 8.94609 5.03123 8.73469C4.85115 8.51546 4.628 8.35495 4.36179 8.25316C4.09558 8.14355 3.72759 8.0261 3.25781 7.90083C2.70973 7.75206 2.27518 7.60721 1.95416 7.46628C1.63315 7.32534 1.35911 7.10611 1.13205 6.80858C0.904985 6.51106 0.791455 6.10783 0.791455 5.5989C0.791455 5.17609 0.90107 4.80027 1.1203 4.47142C1.33953 4.13474 1.64881 3.87245 2.04812 3.68454C2.44743 3.49662 2.90547 3.40267 3.42223 3.40267C4.18171 3.40267 4.79243 3.59058 5.25438 3.96641C5.72416 4.3344 5.99428 4.81201 6.06475 5.39924H5.17217C5.11736 5.06256 4.93336 4.76503 4.62017 4.50665C4.30699 4.24045 3.88418 4.10734 3.35176 4.10734C2.85849 4.10734 2.44743 4.24045 2.11859 4.50665C1.78974 4.76503 1.62532 5.12129 1.62532 5.57541C1.62532 5.91991 1.71536 6.19787 1.89544 6.40927C2.07552 6.62067 2.29867 6.78118 2.56488 6.8908C2.83892 7.00041 3.20691 7.11786 3.66887 7.24313C4.20128 7.3919 4.63192 7.54066 4.96076 7.68942C5.28961 7.83036 5.56757 8.04959 5.79463 8.34712C6.02169 8.64465 6.13522 9.04396 6.13522 9.54506C6.13522 9.92872 6.03343 10.2928 5.82986 10.6373C5.62629 10.9818 5.32485 11.2598 4.92553 11.4712C4.52622 11.6826 4.04861 11.7883 3.4927 11.7883ZM8.13491 4.08385C7.97049 4.08385 7.82955 4.02513 7.71211 3.90768C7.59466 3.79024 7.53594 3.64539 7.53594 3.47314C7.53594 3.30088 7.59466 3.15995 7.71211 3.05033C7.82955 2.93289 7.97049 2.87416 8.13491 2.87416C8.29933 2.87416 8.44027 2.93289 8.55771 3.05033C8.67516 3.15995 8.73388 3.30088 8.73388 3.47314C8.73388 3.64539 8.67516 3.79024 8.55771 3.90768C8.44027 4.02513 8.29933 4.08385 8.13491 4.08385ZM8.54597 5.29354V11.7061H7.72385V5.29354H8.54597ZM13.0972 5.19958C13.7 5.19958 14.2246 5.34052 14.6709 5.62239C15.1172 5.90425 15.4382 6.26051 15.634 6.69114V5.29354H16.4561V11.8705C16.4561 12.4577 16.3269 12.9784 16.0685 13.4325C15.818 13.8866 15.4656 14.235 15.0115 14.4778C14.5574 14.7283 14.0406 14.8536 13.4612 14.8536C12.6391 14.8536 11.954 14.6578 11.4059 14.2664C10.8657 13.8749 10.529 13.3425 10.3959 12.6691H11.2063C11.3472 13.1154 11.6134 13.4716 12.0049 13.7379C12.4042 14.0041 12.8897 14.1372 13.4612 14.1372C13.8762 14.1372 14.2481 14.0471 14.577 13.867C14.9058 13.6948 15.1642 13.4364 15.3521 13.0919C15.54 12.7474 15.634 12.3403 15.634 11.8705V10.285C15.4304 10.7234 15.1055 11.0875 14.6592 11.3772C14.2207 11.6591 13.7 11.8 13.0972 11.8C12.5099 11.8 11.9814 11.663 11.5116 11.389C11.0497 11.1149 10.6856 10.7273 10.4194 10.2262C10.161 9.72514 10.0318 9.14575 10.0318 8.48805C10.0318 7.83036 10.161 7.25488 10.4194 6.76161C10.6856 6.26051 11.0497 5.87685 11.5116 5.61064C11.9814 5.3366 12.5099 5.19958 13.0972 5.19958ZM15.634 8.4998C15.634 7.98304 15.5283 7.52892 15.3169 7.13743C15.1055 6.74595 14.8158 6.4445 14.4478 6.2331C14.0876 6.0217 13.6883 5.916 13.2498 5.916C12.7957 5.916 12.3886 6.01778 12.0284 6.22136C11.6682 6.42493 11.3825 6.72246 11.1711 7.11394C10.9675 7.4976 10.8657 7.95563 10.8657 8.48805C10.8657 9.01264 10.9675 9.47459 11.1711 9.87391C11.3825 10.2654 11.6682 10.5668 12.0284 10.7782C12.3886 10.9818 12.7957 11.0836 13.2498 11.0836C13.6883 11.0836 14.0876 10.9779 14.4478 10.7665C14.8158 10.5551 15.1055 10.2536 15.3169 9.86216C15.5283 9.47068 15.634 9.01656 15.634 8.4998ZM21.3395 5.17609C22.1068 5.17609 22.7332 5.4149 23.2187 5.89251C23.7041 6.36229 23.9468 7.04739 23.9468 7.9478V11.7061H23.1364V8.04176C23.1364 7.34492 22.9603 6.8125 22.6079 6.4445C22.2634 6.07651 21.7897 5.89251 21.1868 5.89251C20.5683 5.89251 20.075 6.08825 19.707 6.47974C19.339 6.87122 19.155 7.4467 19.155 8.20618V11.7061H18.3329V5.29354H19.155V6.38578C19.3586 5.9943 19.6522 5.69677 20.0359 5.4932C20.4195 5.28179 20.8541 5.17609 21.3395 5.17609ZM34.543 5.29354V11.7061H33.7209V10.5786C33.533 10.9779 33.2433 11.2833 32.8518 11.4947C32.4603 11.7061 32.0219 11.8118 31.5364 11.8118C30.7691 11.8118 30.1428 11.5769 29.6573 11.1071C29.1719 10.6295 28.9292 9.94046 28.9292 9.04005V5.29354H29.7395V8.94609C29.7395 9.64293 29.9118 10.1754 30.2563 10.5433C30.6086 10.9113 31.0862 11.0953 31.6891 11.0953C32.3077 11.0953 32.8009 10.8996 33.1689 10.5081C33.5369 10.1166 33.7209 9.54115 33.7209 8.78167V5.29354H34.543ZM37.2303 6.70288C37.4339 6.27225 37.7549 5.916 38.1934 5.63413C38.6397 5.34443 39.1682 5.19958 39.7789 5.19958C40.3583 5.19958 40.879 5.3366 41.3409 5.61064C41.8107 5.87685 42.1748 6.26051 42.4332 6.76161C42.6994 7.25488 42.8325 7.83036 42.8325 8.48805C42.8325 9.14575 42.6994 9.72514 42.4332 10.2262C42.1748 10.7273 41.8107 11.1149 41.3409 11.389C40.879 11.663 40.3583 11.8 39.7789 11.8C39.176 11.8 38.6514 11.6591 38.2051 11.3772C37.7588 11.0875 37.4339 10.7273 37.2303 10.2967V14.7361H36.42V5.29354H37.2303V6.70288ZM41.9986 8.48805C41.9986 7.95563 41.8929 7.4976 41.6815 7.11394C41.4779 6.72246 41.1961 6.42493 40.8359 6.22136C40.4757 6.01778 40.0686 5.916 39.6145 5.916C39.176 5.916 38.7728 6.0217 38.4048 6.2331C38.0446 6.4445 37.7588 6.74595 37.5474 7.13743C37.336 7.52892 37.2303 7.98304 37.2303 8.4998C37.2303 9.01656 37.336 9.47068 37.5474 9.86216C37.7588 10.2536 38.0446 10.5551 38.4048 10.7665C38.7728 10.9779 39.176 11.0836 39.6145 11.0836C40.0686 11.0836 40.4757 10.9818 40.8359 10.7782C41.1961 10.5668 41.4779 10.2654 41.6815 9.87391C41.8929 9.47459 41.9986 9.01264 41.9986 8.48805ZM47.9978 0.666192L44.7563 13.6556H43.9459L47.1639 0.666192H47.9978ZM52.3764 8.4998C52.3764 7.83427 52.5095 7.25488 52.7757 6.76161C53.0419 6.26051 53.4099 5.87685 53.8797 5.61064C54.3495 5.3366 54.8858 5.19958 55.4887 5.19958C56.2795 5.19958 56.9294 5.39532 57.4383 5.78681C57.955 6.17829 58.2878 6.71071 58.4366 7.38407H57.5557C57.4461 6.92211 57.2073 6.56195 56.8393 6.30357C56.4791 6.03736 56.0289 5.90425 55.4887 5.90425C55.0581 5.90425 54.6705 6.00213 54.326 6.19787C53.9815 6.39361 53.7074 6.68722 53.5039 7.07871C53.3081 7.46236 53.2102 7.93606 53.2102 8.4998C53.2102 9.06353 53.3081 9.54115 53.5039 9.93263C53.7074 10.3241 53.9815 10.6177 54.326 10.8135C54.6705 11.0092 55.0581 11.1071 55.4887 11.1071C56.0289 11.1071 56.4791 10.9779 56.8393 10.7195C57.2073 10.4533 57.4461 10.0853 57.5557 9.61553H58.4366C58.2878 10.2732 57.955 10.8017 57.4383 11.201C56.9215 11.6004 56.2717 11.8 55.4887 11.8C54.8858 11.8 54.3495 11.6669 53.8797 11.4007C53.4099 11.1267 53.0419 10.743 52.7757 10.2497C52.5095 9.74863 52.3764 9.16532 52.3764 8.4998ZM60.777 6.43276C60.9571 6.03344 61.2312 5.72417 61.5991 5.50494C61.975 5.28571 62.433 5.17609 62.9733 5.17609V6.03344H62.7501C62.1551 6.03344 61.6774 6.19395 61.3173 6.51497C60.9571 6.83599 60.777 7.37232 60.777 8.12397V11.7061H59.9549V5.29354H60.777V6.43276ZM70.0118 8.17095C70.0118 8.45282 70.004 8.66813 69.9883 8.8169H64.6681C64.6915 9.30234 64.809 9.71731 65.0204 10.0618C65.2318 10.4063 65.5097 10.6686 65.8542 10.8487C66.1988 11.021 66.5746 11.1071 66.9817 11.1071C67.5141 11.1071 67.9604 10.9779 68.3206 10.7195C68.6886 10.4611 68.9313 10.1127 69.0488 9.67425H69.9179C69.7613 10.3006 69.4246 10.8135 68.9078 11.2128C68.3989 11.6043 67.7569 11.8 66.9817 11.8C66.3788 11.8 65.8386 11.6669 65.361 11.4007C64.8834 11.1267 64.5075 10.743 64.2335 10.2497C63.9673 9.74863 63.8342 9.16532 63.8342 8.4998C63.8342 7.83427 63.9673 7.25096 64.2335 6.74986C64.4997 6.24876 64.8716 5.86511 65.3492 5.5989C65.8268 5.33269 66.371 5.19958 66.9817 5.19958C67.5924 5.19958 68.1249 5.33269 68.579 5.5989C69.0409 5.86511 69.3933 6.22527 69.636 6.67939C69.8865 7.12569 70.0118 7.62287 70.0118 8.17095ZM69.178 8.14746C69.1858 7.66985 69.0879 7.26271 68.8843 6.92603C68.6886 6.58935 68.4185 6.33489 68.074 6.16263C67.7295 5.99038 67.3536 5.90425 66.9465 5.90425C66.3358 5.90425 65.8151 6.1 65.3845 6.49148C64.9538 6.88297 64.715 7.43496 64.6681 8.14746H69.178ZM71.1401 8.48805C71.1401 7.83036 71.2693 7.25488 71.5277 6.76161C71.7939 6.26051 72.158 5.87685 72.6199 5.61064C73.0897 5.3366 73.6182 5.19958 74.2054 5.19958C74.8162 5.19958 75.3407 5.34052 75.7792 5.62239C76.2255 5.90425 76.5465 6.26442 76.7423 6.70288V5.29354H77.5644V11.7061H76.7423V10.285C76.5387 10.7234 76.2138 11.0875 75.7675 11.3772C75.329 11.6591 74.8044 11.8 74.1937 11.8C73.6143 11.8 73.0897 11.663 72.6199 11.389C72.158 11.1149 71.7939 10.7273 71.5277 10.2262C71.2693 9.72514 71.1401 9.14575 71.1401 8.48805ZM76.7423 8.4998C76.7423 7.98304 76.6366 7.52892 76.4252 7.13743C76.2138 6.74595 75.9241 6.4445 75.5561 6.2331C75.1959 6.0217 74.7966 5.916 74.3581 5.916C73.904 5.916 73.4969 6.01778 73.1367 6.22136C72.7765 6.42493 72.4907 6.72246 72.2793 7.11394C72.0758 7.4976 71.974 7.95563 71.974 8.48805C71.974 9.01264 72.0758 9.47459 72.2793 9.87391C72.4907 10.2654 72.7765 10.5668 73.1367 10.7782C73.4969 10.9818 73.904 11.0836 74.3581 11.0836C74.7966 11.0836 75.1959 10.9779 75.5561 10.7665C75.9241 10.5551 76.2138 10.2536 76.4252 9.86216C76.6366 9.47068 76.7423 9.01656 76.7423 8.4998ZM80.51 5.98647V9.96786C80.51 10.3593 80.5843 10.6295 80.7331 10.7782C80.8819 10.927 81.1442 11.0014 81.52 11.0014H82.2716V11.7061H81.3908C80.8114 11.7061 80.3808 11.5729 80.0989 11.3067C79.817 11.0327 79.6761 10.5864 79.6761 9.96786V5.98647H78.7835V5.29354H79.6761V3.68454H80.51V5.29354H82.2716V5.98647H80.51ZM89.4293 8.17095C89.4293 8.45282 89.4215 8.66813 89.4058 8.8169H84.0855C84.109 9.30234 84.2265 9.71731 84.4379 10.0618C84.6493 10.4063 84.9272 10.6686 85.2717 10.8487C85.6162 11.021 85.9921 11.1071 86.3992 11.1071C86.9316 11.1071 87.3779 10.9779 87.7381 10.7195C88.1061 10.4611 88.3488 10.1127 88.4662 9.67425H89.3353C89.1787 10.3006 88.8421 10.8135 88.3253 11.2128C87.8164 11.6043 87.1743 11.8 86.3992 11.8C85.7963 11.8 85.2561 11.6669 84.7785 11.4007C84.3008 11.1267 83.925 10.743 83.651 10.2497C83.3848 9.74863 83.2517 9.16532 83.2517 8.4998C83.2517 7.83427 83.3848 7.25096 83.651 6.74986C83.9172 6.24876 84.2891 5.86511 84.7667 5.5989C85.2443 5.33269 85.7885 5.19958 86.3992 5.19958C87.0099 5.19958 87.5423 5.33269 87.9965 5.5989C88.4584 5.86511 88.8107 6.22527 89.0535 6.67939C89.304 7.12569 89.4293 7.62287 89.4293 8.17095ZM88.5954 8.14746C88.6033 7.66985 88.5054 7.26271 88.3018 6.92603C88.1061 6.58935 87.8359 6.33489 87.4914 6.16263C87.1469 5.99038 86.7711 5.90425 86.364 5.90425C85.7533 5.90425 85.2326 6.1 84.8019 6.49148C84.3713 6.88297 84.1325 7.43496 84.0855 8.14746H88.5954ZM93.7805 8.48805C93.7805 7.83036 93.9096 7.25488 94.168 6.76161C94.4342 6.26051 94.7983 5.87685 95.2603 5.61064C95.7301 5.3366 96.2586 5.19958 96.8458 5.19958C97.4565 5.19958 97.9811 5.34052 98.4195 5.62239C98.8658 5.90425 99.1869 6.26442 99.3826 6.70288V5.29354H100.205V11.7061H99.3826V10.285C99.179 10.7234 98.8541 11.0875 98.4078 11.3772C97.9693 11.6591 97.4448 11.8 96.834 11.8C96.2546 11.8 95.7301 11.663 95.2603 11.389C94.7983 11.1149 94.4342 10.7273 94.168 10.2262C93.9096 9.72514 93.7805 9.14575 93.7805 8.48805ZM99.3826 8.4998C99.3826 7.98304 99.2769 7.52892 99.0655 7.13743C98.8541 6.74595 98.5644 6.4445 98.1964 6.2331C97.8362 6.0217 97.4369 5.916 96.9985 5.916C96.5443 5.916 96.1372 6.01778 95.777 6.22136C95.4169 6.42493 95.1311 6.72246 94.9197 7.11394C94.7161 7.4976 94.6143 7.95563 94.6143 8.48805C94.6143 9.01264 94.7161 9.47459 94.9197 9.87391C95.1311 10.2654 95.4169 10.5668 95.777 10.7782C96.1372 10.9818 96.5443 11.0836 96.9985 11.0836C97.4369 11.0836 97.8362 10.9779 98.1964 10.7665C98.5644 10.5551 98.8541 10.2536 99.0655 9.86216C99.2769 9.47068 99.3826 9.01656 99.3826 8.4998ZM105.088 5.17609C105.855 5.17609 106.482 5.4149 106.967 5.89251C107.453 6.36229 107.695 7.04739 107.695 7.9478V11.7061H106.885V8.04176C106.885 7.34492 106.709 6.8125 106.357 6.4445C106.012 6.07651 105.538 5.89251 104.935 5.89251C104.317 5.89251 103.824 6.08825 103.456 6.47974C103.088 6.87122 102.904 7.4467 102.904 8.20618V11.7061H102.082V5.29354H102.904V6.38578C103.107 5.9943 103.401 5.69677 103.785 5.4932C104.168 5.28179 104.603 5.17609 105.088 5.17609ZM0.627031 26.4881C0.627031 25.8304 0.756221 25.2549 1.0146 24.7616C1.28081 24.2605 1.64489 23.8769 2.10684 23.6106C2.57662 23.3366 3.10513 23.1996 3.69235 23.1996C4.30307 23.1996 4.82766 23.3405 5.26612 23.6224C5.71241 23.9043 6.03343 24.2644 6.22917 24.7029V23.2935H7.05129V29.7061H6.22917V28.285C6.0256 28.7234 5.70067 29.0875 5.25438 29.3772C4.81592 29.6591 4.29133 29.8 3.68061 29.8C3.10121 29.8 2.57662 29.663 2.10684 29.389C1.64489 29.1149 1.28081 28.7273 1.0146 28.2262C0.756221 27.7251 0.627031 27.1457 0.627031 26.4881ZM6.22917 26.4998C6.22917 25.983 6.12347 25.5289 5.91207 25.1374C5.70067 24.7459 5.41097 24.4445 5.04298 24.2331C4.68281 24.0217 4.2835 23.916 3.84503 23.916C3.39091 23.916 2.98377 24.0178 2.6236 24.2214C2.26344 24.4249 1.97765 24.7225 1.76625 25.1139C1.56268 25.4976 1.46089 25.9556 1.46089 26.4881C1.46089 27.0126 1.56268 27.4746 1.76625 27.8739C1.97765 28.2654 2.26344 28.5668 2.6236 28.7782C2.98377 28.9818 3.39091 29.0836 3.84503 29.0836C4.2835 29.0836 4.68281 28.9779 5.04298 28.7665C5.41097 28.5551 5.70067 28.2536 5.91207 27.8622C6.12347 27.4707 6.22917 27.0166 6.22917 26.4998ZM8.5523 26.4998C8.5523 25.8343 8.6854 25.2549 8.95161 24.7616C9.21782 24.2605 9.58582 23.8769 10.0556 23.6106C10.5254 23.3366 11.0617 23.1996 11.6646 23.1996C12.4554 23.1996 13.1053 23.3953 13.6142 23.7868C14.131 24.1783 14.4637 24.7107 14.6125 25.3841H13.7316C13.622 24.9221 13.3832 24.5619 13.0152 24.3036C12.6551 24.0374 12.2048 23.9043 11.6646 23.9043C11.234 23.9043 10.8464 24.0021 10.5019 24.1979C10.1574 24.3936 9.88335 24.6872 9.67977 25.0787C9.48403 25.4624 9.38616 25.9361 9.38616 26.4998C9.38616 27.0635 9.48403 27.5411 9.67977 27.9326C9.88335 28.3241 10.1574 28.6177 10.5019 28.8135C10.8464 29.0092 11.234 29.1071 11.6646 29.1071C12.2048 29.1071 12.6551 28.9779 13.0152 28.7195C13.3832 28.4533 13.622 28.0853 13.7316 27.6155H14.6125C14.4637 28.2732 14.131 28.8017 13.6142 29.201C13.0974 29.6004 12.4476 29.8 11.6646 29.8C11.0617 29.8 10.5254 29.6669 10.0556 29.4007C9.58582 29.1267 9.21782 28.743 8.95161 28.2497C8.6854 27.7486 8.5523 27.1653 8.5523 26.4998ZM15.755 26.4998C15.755 25.8343 15.8881 25.2549 16.1543 24.7616C16.4205 24.2605 16.7885 23.8769 17.2583 23.6106C17.7281 23.3366 18.2644 23.1996 18.8673 23.1996C19.6581 23.1996 20.308 23.3953 20.8169 23.7868C21.3337 24.1783 21.6664 24.7107 21.8152 25.3841H20.9343C20.8247 24.9221 20.5859 24.5619 20.2179 24.3036C19.8578 24.0374 19.4076 23.9043 18.8673 23.9043C18.4367 23.9043 18.0491 24.0021 17.7046 24.1979C17.3601 24.3936 17.086 24.6872 16.8825 25.0787C16.6867 25.4624 16.5889 25.9361 16.5889 26.4998C16.5889 27.0635 16.6867 27.5411 16.8825 27.9326C17.086 28.3241 17.3601 28.6177 17.7046 28.8135C18.0491 29.0092 18.4367 29.1071 18.8673 29.1071C19.4076 29.1071 19.8578 28.9779 20.2179 28.7195C20.5859 28.4533 20.8247 28.0853 20.9343 27.6155H21.8152C21.6664 28.2732 21.3337 28.8017 20.8169 29.201C20.3001 29.6004 19.6503 29.8 18.8673 29.8C18.2644 29.8 17.7281 29.6669 17.2583 29.4007C16.7885 29.1267 16.4205 28.743 16.1543 28.2497C15.8881 27.7486 15.755 27.1653 15.755 26.4998ZM26.1405 29.8C25.5376 29.8 24.9934 29.6669 24.508 29.4007C24.0304 29.1267 23.6506 28.743 23.3688 28.2497C23.0947 27.7486 22.9577 27.1653 22.9577 26.4998C22.9577 25.8343 23.0986 25.2549 23.3805 24.7616C23.6624 24.2605 24.046 23.8769 24.5315 23.6106C25.0169 23.3366 25.5611 23.1996 26.164 23.1996C26.7668 23.1996 27.311 23.3366 27.7965 23.6106C28.2897 23.8769 28.6734 24.2605 28.9474 24.7616C29.2293 25.2549 29.3702 25.8343 29.3702 26.4998C29.3702 27.1575 29.2293 27.7369 28.9474 28.238C28.6655 28.7391 28.278 29.1267 27.7847 29.4007C27.2914 29.6669 26.7434 29.8 26.1405 29.8ZM26.1405 29.0836C26.5633 29.0836 26.9548 28.9896 27.3149 28.8017C27.6751 28.606 27.9648 28.3163 28.184 27.9326C28.4111 27.5411 28.5246 27.0635 28.5246 26.4998C28.5246 25.9361 28.415 25.4624 28.1958 25.0787C27.9765 24.6872 27.6868 24.3975 27.3267 24.2096C26.9665 24.0139 26.575 23.916 26.1522 23.916C25.7294 23.916 25.3379 24.0139 24.9778 24.2096C24.6176 24.3975 24.3279 24.6872 24.1087 25.0787C23.8973 25.4624 23.7916 25.9361 23.7916 26.4998C23.7916 27.0635 23.8973 27.5411 24.1087 27.9326C24.3279 28.3163 24.6137 28.606 24.966 28.8017C25.3262 28.9896 25.7177 29.0836 26.1405 29.0836ZM36.424 23.2935V29.7061H35.6019V28.5786C35.414 28.9779 35.1243 29.2833 34.7328 29.4947C34.3413 29.7061 33.9028 29.8118 33.4174 29.8118C32.6501 29.8118 32.0237 29.5769 31.5383 29.1071C31.0528 28.6295 30.8101 27.9405 30.8101 27.04V23.2935H31.6205V26.9461C31.6205 27.6429 31.7927 28.1754 32.1373 28.5433C32.4896 28.9113 32.9672 29.0953 33.5701 29.0953C34.1886 29.0953 34.6819 28.8996 35.0499 28.5081C35.4179 28.1166 35.6019 27.5411 35.6019 26.7817V23.2935H36.424ZM41.3075 23.1761C42.0748 23.1761 42.7012 23.4149 43.1867 23.8925C43.6721 24.3623 43.9148 25.0474 43.9148 25.9478V29.7061H43.1044V26.0418C43.1044 25.3449 42.9283 24.8125 42.5759 24.4445C42.2314 24.0765 41.7577 23.8925 41.1549 23.8925C40.5363 23.8925 40.043 24.0883 39.675 24.4797C39.307 24.8712 39.123 25.4467 39.123 26.2062V29.7061H38.3009V23.2935H39.123V24.3858C39.3266 23.9943 39.6202 23.6968 40.0039 23.4932C40.3875 23.2818 40.8221 23.1761 41.3075 23.1761ZM46.8018 23.9865V27.9679C46.8018 28.3593 46.8762 28.6295 47.0249 28.7782C47.1737 28.927 47.436 29.0014 47.8118 29.0014H48.5634V29.7061H47.6826C47.1032 29.7061 46.6726 29.5729 46.3907 29.3067C46.1088 29.0327 45.9679 28.5864 45.9679 27.9679V23.9865H45.0753V23.2935H45.9679V21.6845H46.8018V23.2935H48.5634V23.9865H46.8018ZM61.5982 23.2935L59.5899 29.7061H58.7678L56.9944 24.3271L55.2209 29.7061H54.3871L52.3788 23.2935H53.2126L54.8099 28.8722L56.6068 23.2935H57.4289L59.2023 28.8839L60.7879 23.2935H61.5982ZM63.1301 22.0839C62.9656 22.0839 62.8247 22.0251 62.7073 21.9077C62.5898 21.7902 62.5311 21.6454 62.5311 21.4731C62.5311 21.3009 62.5898 21.1599 62.7073 21.0503C62.8247 20.9329 62.9656 20.8742 63.1301 20.8742C63.2945 20.8742 63.4354 20.9329 63.5529 21.0503C63.6703 21.1599 63.729 21.3009 63.729 21.4731C63.729 21.6454 63.6703 21.7902 63.5529 21.9077C63.4354 22.0251 63.2945 22.0839 63.1301 22.0839ZM63.5411 23.2935V29.7061H62.719V23.2935H63.5411ZM66.4716 23.9865V27.9679C66.4716 28.3593 66.546 28.6295 66.6947 28.7782C66.8435 28.927 67.1058 29.0014 67.4816 29.0014H68.2333V29.7061H67.3524C66.773 29.7061 66.3424 29.5729 66.0605 29.3067C65.7786 29.0327 65.6377 28.5864 65.6377 27.9679V23.9865H64.7451V23.2935H65.6377V21.6845H66.4716V23.2935H68.2333V23.9865H66.4716ZM72.6427 23.1761C73.1281 23.1761 73.5627 23.2779 73.9463 23.4815C74.3378 23.685 74.6432 23.9982 74.8624 24.421C75.0895 24.836 75.203 25.3449 75.203 25.9478V29.7061H74.3926V26.0418C74.3926 25.3449 74.2165 24.8125 73.8641 24.4445C73.5196 24.0765 73.0459 23.8925 72.443 23.8925C71.8245 23.8925 71.3312 24.0883 70.9632 24.4797C70.5952 24.8712 70.4112 25.4467 70.4112 26.2062V29.7061H69.5891V21.0151H70.4112V24.3858C70.6148 24.0021 70.9123 23.7046 71.3038 23.4932C71.7031 23.2818 72.1494 23.1761 72.6427 23.1761ZM85.7992 23.2935V29.7061H84.9771V28.5786C84.7892 28.9779 84.4995 29.2833 84.108 29.4947C83.7165 29.7061 83.2781 29.8118 82.7926 29.8118C82.0253 29.8118 81.3989 29.5769 80.9135 29.1071C80.4281 28.6295 80.1853 27.9405 80.1853 27.04V23.2935H80.9957V26.9461C80.9957 27.6429 81.168 28.1754 81.5125 28.5433C81.8648 28.9113 82.3424 29.0953 82.9453 29.0953C83.5638 29.0953 84.0571 28.8996 84.4251 28.5081C84.7931 28.1166 84.9771 27.5411 84.9771 26.7817V23.2935H85.7992ZM89.8841 29.8C89.1481 29.8 88.5452 29.6317 88.0755 29.295C87.6135 28.9505 87.3551 28.4846 87.3003 27.8974H88.1459C88.1851 28.2576 88.3534 28.5512 88.6509 28.7782C88.9563 28.9975 89.3634 29.1071 89.8724 29.1071C90.3187 29.1071 90.6671 29.0014 90.9176 28.79C91.176 28.5786 91.3052 28.3163 91.3052 28.0031C91.3052 27.7839 91.2347 27.6038 91.0938 27.4628C90.9529 27.3219 90.7728 27.2123 90.5536 27.134C90.3422 27.0479 90.0525 26.9578 89.6845 26.8639C89.2068 26.7386 88.8193 26.6133 88.5217 26.4881C88.2242 26.3628 87.9698 26.1788 87.7584 25.9361C87.5548 25.6855 87.453 25.3527 87.453 24.9378C87.453 24.6246 87.547 24.3349 87.7349 24.0687C87.9228 23.8025 88.189 23.5911 88.5335 23.4345C88.878 23.2779 89.2695 23.1996 89.7079 23.1996C90.397 23.1996 90.9529 23.3758 91.3757 23.7281C91.7985 24.0726 92.0255 24.5502 92.0569 25.1609H91.2347C91.2112 24.7851 91.0625 24.4837 90.7884 24.2566C90.5222 24.0217 90.1542 23.9043 89.6845 23.9043C89.2695 23.9043 88.9328 24.0021 88.6744 24.1979C88.416 24.3936 88.2869 24.6363 88.2869 24.926C88.2869 25.1766 88.3612 25.3841 88.51 25.5485C88.6666 25.7051 88.8584 25.8304 89.0855 25.9243C89.3125 26.0104 89.6179 26.1083 90.0016 26.2179C90.4635 26.3432 90.8315 26.4646 91.1055 26.582C91.3796 26.6995 91.6145 26.8717 91.8102 27.0988C92.006 27.3258 92.1077 27.6273 92.1156 28.0031C92.1156 28.3476 92.0216 28.6569 91.8337 28.9309C91.6458 29.1971 91.3835 29.4085 91.0468 29.5651C90.7101 29.7217 90.3226 29.8 89.8841 29.8ZM97.9547 23.9865V27.9679C97.9547 28.3593 98.0291 28.6295 98.1779 28.7782C98.3266 28.927 98.5889 29.0014 98.9648 29.0014H99.7164V29.7061H98.8356C98.2562 29.7061 97.8255 29.5729 97.5437 29.3067C97.2618 29.0327 97.1209 28.5864 97.1209 27.9679V23.9865H96.2283V23.2935H97.1209V21.6845H97.9547V23.2935H99.7164V23.9865H97.9547ZM103.879 29.8C103.276 29.8 102.732 29.6669 102.247 29.4007C101.769 29.1267 101.389 28.743 101.107 28.2497C100.833 27.7486 100.696 27.1653 100.696 26.4998C100.696 25.8343 100.837 25.2549 101.119 24.7616C101.401 24.2605 101.785 23.8769 102.27 23.6106C102.756 23.3366 103.3 23.1996 103.903 23.1996C104.506 23.1996 105.05 23.3366 105.535 23.6106C106.028 23.8769 106.412 24.2605 106.686 24.7616C106.968 25.2549 107.109 25.8343 107.109 26.4998C107.109 27.1575 106.968 27.7369 106.686 28.238C106.404 28.7391 106.017 29.1267 105.523 29.4007C105.03 29.6669 104.482 29.8 103.879 29.8ZM103.879 29.0836C104.302 29.0836 104.693 28.9896 105.054 28.8017C105.414 28.606 105.704 28.3163 105.923 27.9326C106.15 27.5411 106.263 27.0635 106.263 26.4998C106.263 25.9361 106.154 25.4624 105.934 25.0787C105.715 24.6872 105.426 24.3975 105.065 24.2096C104.705 24.0139 104.314 23.916 103.891 23.916C103.468 23.916 103.077 24.0139 102.716 24.2096C102.356 24.3975 102.067 24.6872 101.847 25.0787C101.636 25.4624 101.53 25.9361 101.53 26.4998C101.53 27.0635 101.636 27.5411 101.847 27.9326C102.067 28.3163 102.352 28.606 102.705 28.8017C103.065 28.9896 103.456 29.0836 103.879 29.0836ZM114.52 23.1996C115.123 23.1996 115.647 23.3405 116.094 23.6224C116.54 23.9043 116.861 24.2605 117.057 24.6911V23.2935H117.879V29.8705C117.879 30.4577 117.75 30.9784 117.491 31.4325C117.241 31.8866 116.888 32.235 116.434 32.4778C115.98 32.7283 115.463 32.8536 114.884 32.8536C114.062 32.8536 113.377 32.6578 112.829 32.2664C112.288 31.8749 111.952 31.3425 111.819 30.6691H112.629C112.77 31.1154 113.036 31.4716 113.428 31.7379C113.827 32.0041 114.312 32.1372 114.884 32.1372C115.299 32.1372 115.671 32.0471 116 31.867C116.329 31.6948 116.587 31.4364 116.775 31.0919C116.963 30.7474 117.057 30.3403 117.057 29.8705V28.285C116.853 28.7234 116.528 29.0875 116.082 29.3772C115.643 29.6591 115.123 29.8 114.52 29.8C113.933 29.8 113.404 29.663 112.934 29.389C112.472 29.1149 112.108 28.7273 111.842 28.2262C111.584 27.7251 111.455 27.1457 111.455 26.4881C111.455 25.8304 111.584 25.2549 111.842 24.7616C112.108 24.2605 112.472 23.8769 112.934 23.6106C113.404 23.3366 113.933 23.1996 114.52 23.1996ZM117.057 26.4998C117.057 25.983 116.951 25.5289 116.74 25.1374C116.528 24.7459 116.239 24.4445 115.871 24.2331C115.51 24.0217 115.111 23.916 114.673 23.916C114.218 23.916 113.811 24.0178 113.451 24.2214C113.091 24.4249 112.805 24.7225 112.594 25.1139C112.39 25.4976 112.288 25.9556 112.288 26.4881C112.288 27.0126 112.39 27.4746 112.594 27.8739C112.805 28.2654 113.091 28.5668 113.451 28.7782C113.811 28.9818 114.218 29.0836 114.673 29.0836C115.111 29.0836 115.51 28.9779 115.871 28.7665C116.239 28.5551 116.528 28.2536 116.74 27.8622C116.951 27.4707 117.057 27.0166 117.057 26.4998ZM125.557 26.1709C125.557 26.4528 125.55 26.6681 125.534 26.8169H120.214C120.237 27.3023 120.355 27.7173 120.566 28.0618C120.777 28.4063 121.055 28.6686 121.4 28.8487C121.744 29.021 122.12 29.1071 122.527 29.1071C123.06 29.1071 123.506 28.9779 123.866 28.7195C124.234 28.4611 124.477 28.1127 124.594 27.6743H125.464C125.307 28.3006 124.97 28.8135 124.454 29.2128C123.945 29.6043 123.303 29.8 122.527 29.8C121.925 29.8 121.384 29.6669 120.907 29.4007C120.429 29.1267 120.053 28.743 119.779 28.2497C119.513 27.7486 119.38 27.1653 119.38 26.4998C119.38 25.8343 119.513 25.251 119.779 24.7499C120.045 24.2488 120.417 23.8651 120.895 23.5989C121.373 23.3327 121.917 23.1996 122.527 23.1996C123.138 23.1996 123.671 23.3327 124.125 23.5989C124.587 23.8651 124.939 24.2253 125.182 24.6794C125.432 25.1257 125.557 25.6229 125.557 26.1709ZM124.724 26.1475C124.731 25.6698 124.634 25.2627 124.43 24.926C124.234 24.5894 123.964 24.3349 123.62 24.1626C123.275 23.9904 122.899 23.9043 122.492 23.9043C121.881 23.9043 121.361 24.1 120.93 24.4915C120.5 24.883 120.261 25.435 120.214 26.1475H124.724ZM128.13 23.9865V27.9679C128.13 28.3593 128.205 28.6295 128.354 28.7782C128.502 28.927 128.765 29.0014 129.14 29.0014H129.892V29.7061H129.011C128.432 29.7061 128.001 29.5729 127.719 29.3067C127.437 29.0327 127.297 28.5864 127.297 27.9679V23.9865H126.404V23.2935H127.297V21.6845H128.13V23.2935H129.892V23.9865H128.13ZM3.21083 47.8C2.47484 47.8 1.87195 47.6317 1.40217 47.295C0.940219 46.9505 0.681839 46.4846 0.627031 45.8974H1.47264C1.51179 46.2576 1.68012 46.5512 1.97765 46.7782C2.28301 46.9975 2.69015 47.1071 3.19908 47.1071C3.64538 47.1071 3.9938 47.0014 4.24435 46.79C4.50273 46.5786 4.63192 46.3163 4.63192 46.0031C4.63192 45.7839 4.56145 45.6038 4.42052 45.4628C4.27958 45.3219 4.0995 45.2123 3.88027 45.134C3.66887 45.0479 3.37917 44.9578 3.01117 44.8639C2.53356 44.7386 2.14599 44.6133 1.84846 44.4881C1.55093 44.3628 1.29647 44.1788 1.08507 43.9361C0.881496 43.6855 0.77971 43.3527 0.77971 42.9378C0.77971 42.6246 0.873666 42.3349 1.06158 42.0687C1.24949 41.8025 1.5157 41.5911 1.86021 41.4345C2.20471 41.2779 2.5962 41.1996 3.03466 41.1996C3.72367 41.1996 4.27958 41.3758 4.70238 41.7281C5.12519 42.0726 5.35225 42.5502 5.38357 43.1609H4.56145C4.53796 42.7851 4.3892 42.4837 4.11516 42.2566C3.84895 42.0217 3.48095 41.9043 3.01117 41.9043C2.5962 41.9043 2.25952 42.0021 2.00114 42.1979C1.74276 42.3936 1.61357 42.6363 1.61357 42.926C1.61357 43.1766 1.68795 43.3841 1.83672 43.5485C1.99331 43.7051 2.18514 43.8304 2.4122 43.9243C2.63926 44.0104 2.94462 44.1083 3.32827 44.2179C3.79023 44.3432 4.15822 44.4646 4.43226 44.582C4.7063 44.6995 4.94119 44.8717 5.13693 45.0988C5.33267 45.3258 5.43446 45.6273 5.44229 46.0031C5.44229 46.3476 5.34833 46.6569 5.16042 46.9309C4.97251 47.1971 4.71021 47.4085 4.37354 47.5651C4.03686 47.7217 3.64929 47.8 3.21083 47.8ZM8.05857 41.9865V45.9679C8.05857 46.3593 8.13295 46.6295 8.28172 46.7782C8.43048 46.927 8.69277 47.0014 9.0686 47.0014H9.82025V47.7061H8.93941C8.36001 47.7061 7.92938 47.5729 7.64751 47.3067C7.36564 47.0327 7.22471 46.5864 7.22471 45.9679V41.9865H6.33212V41.2935H7.22471V39.6845H8.05857V41.2935H9.82025V41.9865H8.05857ZM10.8003 44.4881C10.8003 43.8304 10.9295 43.2549 11.1878 42.7616C11.4541 42.2605 11.8181 41.8769 12.2801 41.6106C12.7499 41.3366 13.2784 41.1996 13.8656 41.1996C14.4763 41.1996 15.0009 41.3405 15.4394 41.6224C15.8857 41.9043 16.2067 42.2644 16.4024 42.7029V41.2935H17.2245V47.7061H16.4024V46.285C16.1988 46.7234 15.8739 47.0875 15.4276 47.3772C14.9892 47.6591 14.4646 47.8 13.8539 47.8C13.2745 47.8 12.7499 47.663 12.2801 47.389C11.8181 47.1149 11.4541 46.7273 11.1878 46.2262C10.9295 45.7251 10.8003 45.1457 10.8003 44.4881ZM16.4024 44.4998C16.4024 43.983 16.2967 43.5289 16.0853 43.1374C15.8739 42.7459 15.5842 42.4445 15.2162 42.2331C14.8561 42.0217 14.4567 41.916 14.0183 41.916C13.5642 41.916 13.157 42.0178 12.7968 42.2214C12.4367 42.4249 12.1509 42.7225 11.9395 43.1139C11.7359 43.4976 11.6341 43.9556 11.6341 44.4881C11.6341 45.0126 11.7359 45.4746 11.9395 45.8739C12.1509 46.2654 12.4367 46.5668 12.7968 46.7782C13.157 46.9818 13.5642 47.0836 14.0183 47.0836C14.4567 47.0836 14.8561 46.9779 15.2162 46.7665C15.5842 46.5551 15.8739 46.2536 16.0853 45.8622C16.2967 45.4707 16.4024 45.0166 16.4024 44.4998ZM20.1701 41.9865V45.9679C20.1701 46.3593 20.2445 46.6295 20.3933 46.7782C20.542 46.927 20.8043 47.0014 21.1801 47.0014H21.9318V47.7061H21.051C20.4716 47.7061 20.0409 47.5729 19.7591 47.3067C19.4772 47.0327 19.3363 46.5864 19.3363 45.9679V41.9865H18.4437V41.2935H19.3363V39.6845H20.1701V41.2935H21.9318V41.9865H20.1701ZM24.1098 42.4328C24.2899 42.0334 24.5639 41.7242 24.9319 41.5049C25.3077 41.2857 25.7657 41.1761 26.306 41.1761V42.0334H26.0828C25.4878 42.0334 25.0102 42.194 24.65 42.515C24.2899 42.836 24.1098 43.3723 24.1098 44.124V47.7061H23.2877V41.2935H24.1098V42.4328ZM28.6115 41.9865V45.9679C28.6115 46.3593 28.6859 46.6295 28.8346 46.7782C28.9834 46.927 29.2457 47.0014 29.6215 47.0014H30.3732V47.7061H29.4923C28.9129 47.7061 28.4823 47.5729 28.2004 47.3067C27.9186 47.0327 27.7776 46.5864 27.7776 45.9679V41.9865H26.8851V41.2935H27.7776V39.6845H28.6115V41.2935H30.3732V41.9865H28.6115ZM37.5308 44.1709C37.5308 44.4528 37.523 44.6681 37.5073 44.8169H32.1871C32.2106 45.3023 32.328 45.7173 32.5394 46.0618C32.7508 46.4063 33.0288 46.6686 33.3733 46.8487C33.7178 47.021 34.0936 47.1071 34.5007 47.1071C35.0332 47.1071 35.4795 46.9779 35.8396 46.7195C36.2076 46.4611 36.4503 46.1127 36.5678 45.6743H37.4369C37.2803 46.3006 36.9436 46.8135 36.4268 47.2128C35.9179 47.6043 35.2759 47.8 34.5007 47.8C33.8979 47.8 33.3576 47.6669 32.88 47.4007C32.4024 47.1267 32.0266 46.743 31.7525 46.2497C31.4863 45.7486 31.3532 45.1653 31.3532 44.4998C31.3532 43.8343 31.4863 43.251 31.7525 42.7499C32.0187 42.2488 32.3906 41.8651 32.8683 41.5989C33.3459 41.3327 33.89 41.1996 34.5007 41.1996C35.1115 41.1996 35.6439 41.3327 36.098 41.5989C36.56 41.8651 36.9123 42.2253 37.155 42.6794C37.4056 43.1257 37.5308 43.6229 37.5308 44.1709ZM36.697 44.1475C36.7048 43.6698 36.6069 43.2627 36.4034 42.926C36.2076 42.5894 35.9375 42.3349 35.593 42.1626C35.2485 41.9904 34.8727 41.9043 34.4655 41.9043C33.8548 41.9043 33.3341 42.1 32.9035 42.4915C32.4729 42.883 32.2341 43.435 32.1871 44.1475H36.697ZM38.6591 44.4881C38.6591 43.8304 38.7922 43.2549 39.0584 42.7616C39.3247 42.2605 39.6887 41.8769 40.1507 41.6106C40.6205 41.3366 41.149 41.1996 41.7362 41.1996C42.2999 41.1996 42.8089 41.3366 43.263 41.6106C43.7171 41.8847 44.0499 42.2409 44.2613 42.6794V39.0151H45.0834V47.7061H44.2613V46.2732C44.0655 46.7195 43.7445 47.0875 43.2982 47.3772C42.8519 47.6591 42.3273 47.8 41.7245 47.8C41.1372 47.8 40.6087 47.663 40.1389 47.389C39.677 47.1149 39.3129 46.7273 39.0467 46.2262C38.7883 45.7251 38.6591 45.1457 38.6591 44.4881ZM44.2613 44.4998C44.2613 43.983 44.1556 43.5289 43.9442 43.1374C43.7328 42.7459 43.4431 42.4445 43.0751 42.2331C42.7149 42.0217 42.3156 41.916 41.8771 41.916C41.423 41.916 41.0159 42.0178 40.6557 42.2214C40.2955 42.4249 40.0098 42.7225 39.7984 43.1139C39.5948 43.4976 39.493 43.9556 39.493 44.4881C39.493 45.0126 39.5948 45.4746 39.7984 45.8739C40.0098 46.2654 40.2955 46.5668 40.6557 46.7782C41.0159 46.9818 41.423 47.0836 41.8771 47.0836C42.3156 47.0836 42.7149 46.9779 43.0751 46.7665C43.4431 46.5551 43.7328 46.2536 43.9442 45.8622C44.1556 45.4707 44.2613 45.0166 44.2613 44.4998ZM47.1012 47.7648C46.9289 47.7648 46.7841 47.7061 46.6666 47.5886C46.557 47.4712 46.5022 47.3263 46.5022 47.1541C46.5022 46.9818 46.557 46.8409 46.6666 46.7313C46.7841 46.6138 46.9289 46.5551 47.1012 46.5551C47.2656 46.5551 47.4026 46.6138 47.5122 46.7313C47.6297 46.8409 47.6884 46.9818 47.6884 47.1541C47.6884 47.3263 47.6297 47.4712 47.5122 47.5886C47.4026 47.7061 47.2656 47.7648 47.1012 47.7648Z" fill="white" fill-opacity="0.7"/>
</svg>
