<svg width="91" height="21" viewBox="0 0 91 21" fill="none" xmlns="http://www.w3.org/2000/svg">
<path d="M5.26 1.04C6.72667 1.04 8.01333 1.32667 9.12 1.9C10.24 2.47333 11.1 3.29333 11.7 4.36C12.3133 5.41333 12.62 6.64 12.62 8.04C12.62 9.44 12.3133 10.6667 11.7 11.72C11.1 12.76 10.24 13.5667 9.12 14.14C8.01333 14.7133 6.72667 15 5.26 15H0.38V1.04H5.26ZM5.16 12.62C6.62667 12.62 7.76 12.22 8.56 11.42C9.36 10.62 9.76 9.49333 9.76 8.04C9.76 6.58667 9.36 5.45333 8.56 4.64C7.76 3.81333 6.62667 3.4 5.16 3.4H3.18V12.62H5.16ZM25.1759 3.92V15H22.3559V13.6C21.9959 14.08 21.5226 14.46 20.9359 14.74C20.3626 15.0067 19.7359 15.14 19.0559 15.14C18.1893 15.14 17.4226 14.96 16.7559 14.6C16.0893 14.2267 15.5626 13.6867 15.1759 12.98C14.8026 12.26 14.6159 11.4067 14.6159 10.42V3.92H17.4159V10.02C17.4159 10.9 17.6359 11.58 18.0759 12.06C18.5159 12.5267 19.1159 12.76 19.8759 12.76C20.6493 12.76 21.2559 12.5267 21.6959 12.06C22.1359 11.58 22.3559 10.9 22.3559 10.02V3.92H25.1759ZM34.0786 3.76C35.3986 3.76 36.4653 4.18 37.2786 5.02C38.0919 5.84667 38.4986 7.00667 38.4986 8.5V15H35.6986V8.88C35.6986 8 35.4786 7.32667 35.0386 6.86C34.5986 6.38 33.9986 6.14 33.2386 6.14C32.4653 6.14 31.8519 6.38 31.3986 6.86C30.9586 7.32667 30.7386 8 30.7386 8.88V15H27.9386V3.92H30.7386V5.3C31.1119 4.82 31.5853 4.44667 32.1586 4.18C32.7453 3.9 33.3853 3.76 34.0786 3.76ZM45.5013 3.74C46.3279 3.74 47.0546 3.90667 47.6813 4.24C48.3079 4.56 48.8013 4.98 49.1613 5.5V3.92H51.9813V15.08C51.9813 16.1067 51.7746 17.02 51.3613 17.82C50.9479 18.6333 50.3279 19.2733 49.5013 19.74C48.6746 20.22 47.6746 20.46 46.5013 20.46C44.9279 20.46 43.6346 20.0933 42.6213 19.36C41.6213 18.6267 41.0546 17.6267 40.9213 16.36H43.7013C43.8479 16.8667 44.1613 17.2667 44.6413 17.56C45.1346 17.8667 45.7279 18.02 46.4213 18.02C47.2346 18.02 47.8946 17.7733 48.4013 17.28C48.9079 16.8 49.1613 16.0667 49.1613 15.08V13.36C48.8013 13.88 48.3013 14.3133 47.6613 14.66C47.0346 15.0067 46.3146 15.18 45.5013 15.18C44.5679 15.18 43.7146 14.94 42.9413 14.46C42.1679 13.98 41.5546 13.3067 41.1012 12.44C40.6612 11.56 40.4412 10.5533 40.4412 9.42C40.4412 8.3 40.6612 7.30667 41.1012 6.44C41.5546 5.57333 42.1613 4.90667 42.9213 4.44C43.6946 3.97333 44.5546 3.74 45.5013 3.74ZM49.1613 9.46C49.1613 8.78 49.0279 8.2 48.7613 7.72C48.4946 7.22667 48.1346 6.85333 47.6813 6.6C47.2279 6.33333 46.7413 6.2 46.2213 6.2C45.7013 6.2 45.2213 6.32667 44.7812 6.58C44.3413 6.83333 43.9813 7.20667 43.7013 7.7C43.4346 8.18 43.3013 8.75333 43.3013 9.42C43.3013 10.0867 43.4346 10.6733 43.7013 11.18C43.9813 11.6733 44.3413 12.0533 44.7812 12.32C45.2346 12.5867 45.7146 12.72 46.2213 12.72C46.7413 12.72 47.2279 12.5933 47.6813 12.34C48.1346 12.0733 48.4946 11.7 48.7613 11.22C49.0279 10.7267 49.1613 10.14 49.1613 9.46ZM59.5359 15.14C58.5626 15.14 57.6826 14.9733 56.8959 14.64C56.1226 14.3067 55.5093 13.8267 55.0559 13.2C54.6026 12.5733 54.3693 11.8333 54.3559 10.98H57.3559C57.3959 11.5533 57.5959 12.0067 57.9559 12.34C58.3293 12.6733 58.8359 12.84 59.4759 12.84C60.1293 12.84 60.6426 12.6867 61.0159 12.38C61.3893 12.06 61.5759 11.6467 61.5759 11.14C61.5759 10.7267 61.4493 10.3867 61.1959 10.12C60.9426 9.85333 60.6226 9.64667 60.2359 9.5C59.8626 9.34 59.3426 9.16667 58.6759 8.98C57.7693 8.71333 57.0293 8.45333 56.4559 8.2C55.8959 7.93333 55.4093 7.54 54.9959 7.02C54.5959 6.48667 54.3959 5.78 54.3959 4.9C54.3959 4.07333 54.6026 3.35333 55.0159 2.74C55.4293 2.12667 56.0093 1.66 56.7559 1.34C57.5026 1.00667 58.3559 0.84 59.3159 0.84C60.7559 0.84 61.9226 1.19333 62.8159 1.9C63.7226 2.59333 64.2226 3.56667 64.3159 4.82H61.2359C61.2093 4.34 61.0026 3.94667 60.6159 3.64C60.2426 3.32 59.7426 3.16 59.1159 3.16C58.5693 3.16 58.1293 3.3 57.7959 3.58C57.4759 3.86 57.3159 4.26667 57.3159 4.8C57.3159 5.17333 57.4359 5.48667 57.6759 5.74C57.9293 5.98 58.2359 6.18 58.5959 6.34C58.9693 6.48667 59.4893 6.66 60.1559 6.86C61.0626 7.12667 61.8026 7.39333 62.3759 7.66C62.9493 7.92667 63.4426 8.32667 63.8559 8.86C64.2693 9.39333 64.4759 10.0933 64.4759 10.96C64.4759 11.7067 64.2826 12.4 63.8959 13.04C63.5093 13.68 62.9426 14.1933 62.1959 14.58C61.4493 14.9533 60.5626 15.14 59.5359 15.14ZM77.2034 9.22C77.2034 9.62 77.1768 9.98 77.1234 10.3H69.0234C69.0901 11.1 69.3701 11.7267 69.8634 12.18C70.3568 12.6333 70.9634 12.86 71.6834 12.86C72.7234 12.86 73.4634 12.4133 73.9034 11.52H76.9234C76.6034 12.5867 75.9901 13.4667 75.0834 14.16C74.1768 14.84 73.0634 15.18 71.7434 15.18C70.6768 15.18 69.7168 14.9467 68.8634 14.48C68.0234 14 67.3634 13.3267 66.8834 12.46C66.4168 11.5933 66.1834 10.5933 66.1834 9.46C66.1834 8.31333 66.4168 7.30667 66.8834 6.44C67.3501 5.57333 68.0034 4.90667 68.8434 4.44C69.6834 3.97333 70.6501 3.74 71.7434 3.74C72.7968 3.74 73.7368 3.96667 74.5634 4.42C75.4034 4.87333 76.0501 5.52 76.5034 6.36C76.9701 7.18667 77.2034 8.14 77.2034 9.22ZM74.3034 8.42C74.2901 7.7 74.0301 7.12667 73.5234 6.7C73.0168 6.26 72.3968 6.04 71.6634 6.04C70.9701 6.04 70.3834 6.25333 69.9034 6.68C69.4368 7.09333 69.1501 7.67333 69.0434 8.42H74.3034ZM78.5272 9.42C78.5272 8.3 78.7472 7.30667 79.1872 6.44C79.6405 5.57333 80.2472 4.90667 81.0072 4.44C81.7805 3.97333 82.6405 3.74 83.5872 3.74C84.4139 3.74 85.1339 3.90667 85.7472 4.24C86.3739 4.57333 86.8739 4.99333 87.2472 5.5V3.92H90.0672V15H87.2472V13.38C86.8872 13.9 86.3872 14.3333 85.7472 14.68C85.1205 15.0133 84.3939 15.18 83.5672 15.18C82.6339 15.18 81.7805 14.94 81.0072 14.46C80.2472 13.98 79.6405 13.3067 79.1872 12.44C78.7472 11.56 78.5272 10.5533 78.5272 9.42ZM87.2472 9.46C87.2472 8.78 87.1139 8.2 86.8472 7.72C86.5805 7.22667 86.2205 6.85333 85.7672 6.6C85.3139 6.33333 84.8272 6.2 84.3072 6.2C83.7872 6.2 83.3072 6.32667 82.8672 6.58C82.4272 6.83333 82.0672 7.20667 81.7872 7.7C81.5205 8.18 81.3872 8.75333 81.3872 9.42C81.3872 10.0867 81.5205 10.6733 81.7872 11.18C82.0672 11.6733 82.4272 12.0533 82.8672 12.32C83.3205 12.5867 83.8005 12.72 84.3072 12.72C84.8272 12.72 85.3139 12.5933 85.7672 12.34C86.2205 12.0733 86.5805 11.7 86.8472 11.22C87.1139 10.7267 87.2472 10.14 87.2472 9.46Z" fill="url(#paint0_linear_9_74)"/>
<defs>
<linearGradient id="paint0_linear_9_74" x1="20.9932" y1="-17.9375" x2="82.8136" y2="55.2039" gradientUnits="userSpaceOnUse">
<stop stop-color="#FEAA69"/>
<stop offset="1" stop-color="#7B56C9"/>
</linearGradient>
</defs>
</svg>
