<svg width="102" height="51" viewBox="0 0 102 51" fill="none" xmlns="http://www.w3.org/2000/svg">
<path d="M2.03373 8.77902H5.09044V9.70605H0.893725V0.974385H2.03373V8.77902ZM5.87517 6.24846C5.87517 5.54692 6.01715 4.93308 6.3011 4.40692C6.58506 3.87241 6.97341 3.45901 7.46616 3.1667C7.96726 2.87439 8.52265 2.72824 9.13232 2.72824C9.73364 2.72824 10.2556 2.85769 10.6983 3.11659C11.1409 3.37549 11.4708 3.70121 11.6879 4.09373V2.84098H12.8405V9.70605H11.6879V8.42825C11.4624 8.82913 11.1242 9.1632 10.6732 9.43045C10.2306 9.68935 9.71276 9.8188 9.11979 9.8188C8.51012 9.8188 7.95891 9.66847 7.46616 9.36781C6.97341 9.06715 6.58506 8.64539 6.3011 8.10253C6.01715 7.55968 5.87517 6.94165 5.87517 6.24846ZM11.6879 6.26099C11.6879 5.74319 11.5835 5.2922 11.3747 4.90802C11.166 4.52384 10.882 4.23154 10.5229 4.0311C10.1721 3.8223 9.78375 3.71791 9.35781 3.71791C8.93188 3.71791 8.54353 3.81813 8.19276 4.01857C7.84199 4.21901 7.56221 4.51132 7.35341 4.89549C7.14462 5.27967 7.04023 5.73066 7.04023 6.24846C7.04023 6.77462 7.14462 7.23396 7.35341 7.62649C7.56221 8.01067 7.84199 8.30715 8.19276 8.51594C8.54353 8.71638 8.93188 8.8166 9.35781 8.8166C9.78375 8.8166 10.1721 8.71638 10.5229 8.51594C10.882 8.30715 11.166 8.01067 11.3747 7.62649C11.5835 7.23396 11.6879 6.77879 11.6879 6.26099ZM20.8553 2.84098V9.70605H19.7153V8.69133C19.4982 9.0421 19.1933 9.3177 18.8008 9.51814C18.4166 9.71023 17.9907 9.80627 17.523 9.80627C16.9885 9.80627 16.5083 9.6977 16.0823 9.48056C15.6564 9.25506 15.3182 8.921 15.0676 8.47836C14.8254 8.03572 14.7043 7.49704 14.7043 6.86231V2.84098H15.8318V6.71198C15.8318 7.38847 16.003 7.91045 16.3454 8.27792C16.6878 8.63704 17.1555 8.8166 17.7485 8.8166C18.3582 8.8166 18.8384 8.62869 19.1892 8.25286C19.5399 7.87704 19.7153 7.33 19.7153 6.61176V2.84098H20.8553ZM26.125 2.71571C26.9602 2.71571 27.6366 2.97043 28.1545 3.47989C28.6723 3.98099 28.9312 4.70758 28.9312 5.65967V9.70605H27.8037V5.82253C27.8037 5.13769 27.6325 4.61571 27.2901 4.25659C26.9476 3.88912 26.4799 3.70538 25.887 3.70538C25.2857 3.70538 24.8054 3.89329 24.4463 4.26912C24.0955 4.64494 23.9202 5.19198 23.9202 5.91022V9.70605H22.7802V2.84098H23.9202V3.81813C24.1457 3.46736 24.4505 3.19593 24.8347 3.00384C25.2272 2.81175 25.6573 2.71571 26.125 2.71571ZM30.3674 6.26099C30.3674 5.5511 30.5094 4.93308 30.7933 4.40692C31.0773 3.87241 31.4698 3.45901 31.9709 3.1667C32.4804 2.87439 33.0608 2.72824 33.7123 2.72824C34.5558 2.72824 35.249 2.93285 35.7918 3.34208C36.343 3.75132 36.7063 4.31923 36.8817 5.04582H35.654C35.5371 4.62824 35.3074 4.29835 34.965 4.05615C34.6309 3.81395 34.2134 3.69285 33.7123 3.69285C33.0608 3.69285 32.5347 3.91835 32.1338 4.36934C31.7329 4.81198 31.5325 5.44253 31.5325 6.26099C31.5325 7.08781 31.7329 7.72671 32.1338 8.1777C32.5347 8.62869 33.0608 8.85418 33.7123 8.85418C34.2134 8.85418 34.6309 8.73726 34.965 8.50341C35.2991 8.26957 35.5287 7.9355 35.654 7.50121H36.8817C36.698 8.20275 36.3305 8.76649 35.7793 9.19243C35.2281 9.61001 34.5391 9.8188 33.7123 9.8188C33.0608 9.8188 32.4804 9.67265 31.9709 9.38034C31.4698 9.08803 31.0773 8.67462 30.7933 8.14012C30.5094 7.60561 30.3674 6.97923 30.3674 6.26099ZM41.8103 2.71571C42.3281 2.71571 42.7958 2.82846 43.2134 3.05395C43.631 3.27109 43.9567 3.60099 44.1905 4.04362C44.4327 4.48626 44.5538 5.02494 44.5538 5.65967V9.70605H43.4264V5.82253C43.4264 5.13769 43.2551 4.61571 42.9127 4.25659C42.5703 3.88912 42.1026 3.70538 41.5096 3.70538C40.9083 3.70538 40.4281 3.89329 40.069 4.26912C39.7182 4.64494 39.5428 5.19198 39.5428 5.91022V9.70605H38.4028V0.435703H39.5428V3.81813C39.7683 3.46736 40.0773 3.19593 40.4699 3.00384C40.8707 2.81175 41.3176 2.71571 41.8103 2.71571ZM55.6689 2.84098L51.5348 12.9382H50.3572L51.7102 9.63089L48.9416 2.84098H50.2069L52.3616 8.40319L54.4913 2.84098H55.6689ZM59.8089 9.8188C59.1658 9.8188 58.5812 9.67265 58.0551 9.38034C57.5372 9.08803 57.128 8.67462 56.8274 8.14012C56.535 7.59726 56.3889 6.97088 56.3889 6.26099C56.3889 5.55945 56.5392 4.94143 56.8399 4.40692C57.1489 3.86406 57.5665 3.45065 58.0926 3.1667C58.6188 2.87439 59.2076 2.72824 59.859 2.72824C60.5104 2.72824 61.0992 2.87439 61.6254 3.1667C62.1515 3.45065 62.565 3.85989 62.8656 4.39439C63.1746 4.9289 63.3291 5.5511 63.3291 6.26099C63.3291 6.97088 63.1704 7.59726 62.8531 8.14012C62.5441 8.67462 62.1223 9.08803 61.5878 9.38034C61.0533 9.67265 60.4603 9.8188 59.8089 9.8188ZM59.8089 8.8166C60.2181 8.8166 60.6023 8.72056 60.9614 8.52847C61.3206 8.33638 61.6087 8.04825 61.8258 7.66407C62.0513 7.2799 62.1641 6.8122 62.1641 6.26099C62.1641 5.70978 62.0555 5.24209 61.8384 4.85791C61.6212 4.47373 61.3373 4.18978 60.9865 4.00604C60.6357 3.81395 60.2557 3.71791 59.8465 3.71791C59.4289 3.71791 59.0447 3.81395 58.694 4.00604C58.3515 4.18978 58.0759 4.47373 57.8671 4.85791C57.6583 5.24209 57.554 5.70978 57.554 6.26099C57.554 6.82055 57.6542 7.29242 57.8546 7.6766C58.0634 8.06078 58.339 8.34891 58.6814 8.541C59.0238 8.72473 59.3997 8.8166 59.8089 8.8166ZM70.9164 2.84098V9.70605H69.7764V8.69133C69.5592 9.0421 69.2544 9.3177 68.8619 9.51814C68.4777 9.71023 68.0518 9.80627 67.5841 9.80627C67.0496 9.80627 66.5694 9.6977 66.1434 9.48056C65.7175 9.25506 65.3792 8.921 65.1287 8.47836C64.8865 8.03572 64.7654 7.49704 64.7654 6.86231V2.84098H65.8929V6.71198C65.8929 7.38847 66.0641 7.91045 66.4065 8.27792C66.7489 8.63704 67.2166 8.8166 67.8096 8.8166C68.4192 8.8166 68.8995 8.62869 69.2502 8.25286C69.601 7.87704 69.7764 7.33 69.7764 6.61176V2.84098H70.9164ZM73.9812 3.95593C74.1817 3.5634 74.4656 3.25857 74.8331 3.04142C75.2089 2.82428 75.6641 2.71571 76.1986 2.71571V3.89329H75.8979C74.6201 3.89329 73.9812 4.58648 73.9812 5.97286V9.70605H72.8412V2.84098H73.9812V3.95593ZM87.7195 9.70605H86.5795L81.9944 2.75329V9.70605H80.8544V0.961858H81.9944L86.5795 7.90209V0.961858H87.7195V9.70605ZM94.5987 0.974385V1.90142H90.8028V4.84538H93.8846V5.77242H90.8028V9.70605H89.6628V0.974385H94.5987ZM101.35 0.974385V1.90142H98.9696V9.70605H97.8296V1.90142H95.4368V0.974385H101.35ZM2.03373 23.1063C2.25922 22.7137 2.59329 22.388 3.03593 22.1291C3.48692 21.8619 4.0089 21.7282 4.60187 21.7282C5.21154 21.7282 5.76275 21.8744 6.2555 22.1667C6.7566 22.459 7.14912 22.8724 7.43308 23.4069C7.71704 23.9331 7.85902 24.5469 7.85902 25.2485C7.85902 25.9417 7.71704 26.5597 7.43308 27.1025C7.14912 27.6454 6.7566 28.0672 6.2555 28.3678C5.76275 28.6685 5.21154 28.8188 4.60187 28.8188C4.01725 28.8188 3.49945 28.6894 3.04846 28.4304C2.60582 28.1632 2.26757 27.8333 2.03373 27.4408V31.9632H0.893725V21.841H2.03373V23.1063ZM6.69396 25.2485C6.69396 24.7307 6.58956 24.2797 6.38077 23.8955C6.17198 23.5113 5.88802 23.219 5.5289 23.0186C5.17813 22.8181 4.78978 22.7179 4.36384 22.7179C3.94626 22.7179 3.55791 22.8223 3.19879 23.0311C2.84802 23.2315 2.56406 23.528 2.34692 23.9205C2.13812 24.3047 2.03373 24.7515 2.03373 25.261C2.03373 25.7788 2.13812 26.234 2.34692 26.6265C2.56406 27.0107 2.84802 27.3072 3.19879 27.5159C3.55791 27.7164 3.94626 27.8166 4.36384 27.8166C4.78978 27.8166 5.17813 27.7164 5.5289 27.5159C5.88802 27.3072 6.17198 27.0107 6.38077 26.6265C6.58956 26.234 6.69396 25.7746 6.69396 25.2485ZM10.4996 22.9559C10.7 22.5634 10.984 22.2586 11.3514 22.0414C11.7273 21.8243 12.1824 21.7157 12.7169 21.7157V22.8933H12.4163C11.1385 22.8933 10.4996 23.5865 10.4996 24.9729V28.7061H9.35958V21.841H10.4996V22.9559ZM17.027 28.8188C16.3839 28.8188 15.7993 28.6726 15.2731 28.3803C14.7553 28.088 14.3461 27.6746 14.0454 27.1401C13.7531 26.5973 13.607 25.9709 13.607 25.261C13.607 24.5595 13.7573 23.9414 14.058 23.4069C14.367 22.8641 14.7846 22.4507 15.3107 22.1667C15.8369 21.8744 16.4257 21.7282 17.0771 21.7282C17.7285 21.7282 18.3173 21.8744 18.8435 22.1667C19.3696 22.4507 19.783 22.8599 20.0837 23.3944C20.3927 23.9289 20.5472 24.5511 20.5472 25.261C20.5472 25.9709 20.3885 26.5973 20.0712 27.1401C19.7622 27.6746 19.3404 28.088 18.8059 28.3803C18.2714 28.6726 17.6784 28.8188 17.027 28.8188ZM17.027 27.8166C17.4362 27.8166 17.8204 27.7206 18.1795 27.5285C18.5386 27.3364 18.8268 27.0482 19.0439 26.6641C19.2694 26.2799 19.3822 25.8122 19.3822 25.261C19.3822 24.7098 19.2736 24.2421 19.0565 23.8579C18.8393 23.4737 18.5554 23.1898 18.2046 23.006C17.8538 22.814 17.4738 22.7179 17.0646 22.7179C16.647 22.7179 16.2628 22.814 15.912 23.006C15.5696 23.1898 15.294 23.4737 15.0852 23.8579C14.8764 24.2421 14.772 24.7098 14.772 25.261C14.772 25.8206 14.8723 26.2924 15.0727 26.6766C15.2815 27.0608 15.5571 27.3489 15.8995 27.541C16.2419 27.7247 16.6178 27.8166 17.027 27.8166ZM22.66 20.726C22.4428 20.726 22.2591 20.6509 22.1088 20.5005C21.9668 20.3502 21.8958 20.1665 21.8958 19.9493C21.8958 19.7322 21.9668 19.5485 22.1088 19.3981C22.2591 19.2478 22.4428 19.1726 22.66 19.1726C22.8771 19.1726 23.0567 19.2478 23.1986 19.3981C23.349 19.5485 23.4241 19.7322 23.4241 19.9493C23.4241 20.1665 23.349 20.3502 23.1986 20.5005C23.0567 20.6509 22.8771 20.726 22.66 20.726ZM23.2237 30.1968C23.2237 30.8065 23.0692 31.2533 22.7602 31.5373C22.4512 31.8212 22.0002 31.9632 21.4072 31.9632H20.7433V30.9986H21.2193C21.5367 30.9986 21.758 30.936 21.8833 30.8107C22.0169 30.6854 22.0837 30.4724 22.0837 30.1718V21.841H23.2237V30.1968ZM31.4173 25.0104C31.4173 25.2276 31.4048 25.4573 31.3797 25.6995H25.8926C25.9344 26.3759 26.1641 26.9063 26.5817 27.2904C27.0076 27.6663 27.5212 27.8542 28.1225 27.8542C28.6153 27.8542 29.0245 27.7414 29.3502 27.5159C29.6843 27.2821 29.9182 26.9731 30.0518 26.5889H31.2795C31.0957 27.2487 30.7283 27.7874 30.1771 28.205C29.6258 28.6142 28.941 28.8188 28.1225 28.8188C27.4711 28.8188 26.8865 28.6726 26.3687 28.3803C25.8592 28.088 25.4584 27.6746 25.1661 27.1401C24.8737 26.5973 24.7276 25.9709 24.7276 25.261C24.7276 24.5511 24.8696 23.9289 25.1535 23.3944C25.4375 22.8599 25.8342 22.4507 26.3436 22.1667C26.8614 21.8744 27.4544 21.7282 28.1225 21.7282C28.774 21.7282 29.3502 21.8702 29.8513 22.1542C30.3524 22.4381 30.7366 22.8307 31.0039 23.3318C31.2795 23.8245 31.4173 24.3841 31.4173 25.0104ZM30.2397 24.7724C30.2397 24.3381 30.1436 23.9665 29.9516 23.6575C29.7595 23.3401 29.4964 23.1021 29.1623 22.9434C28.8366 22.7764 28.4733 22.6929 28.0724 22.6929C27.4962 22.6929 27.0034 22.8766 26.5942 23.2441C26.1933 23.6115 25.9636 24.121 25.9052 24.7724H30.2397ZM32.4961 25.261C32.4961 24.5511 32.6381 23.9331 32.922 23.4069C33.206 22.8724 33.5985 22.459 34.0996 22.1667C34.6091 21.8744 35.1895 21.7282 35.841 21.7282C36.6845 21.7282 37.3777 21.9329 37.9205 22.3421C38.4717 22.7513 38.835 23.3192 39.0104 24.0458H37.7827C37.6658 23.6282 37.4361 23.2983 37.0937 23.0562C36.7596 22.814 36.3421 22.6929 35.841 22.6929C35.1895 22.6929 34.6634 22.9183 34.2625 23.3693C33.8616 23.812 33.6612 24.4425 33.6612 25.261C33.6612 26.0878 33.8616 26.7267 34.2625 27.1777C34.6634 27.6287 35.1895 27.8542 35.841 27.8542C36.3421 27.8542 36.7596 27.7373 37.0937 27.5034C37.4278 27.2696 37.6574 26.9355 37.7827 26.5012H39.0104C38.8267 27.2028 38.4592 27.7665 37.908 28.1924C37.3568 28.61 36.6678 28.8188 35.841 28.8188C35.1895 28.8188 34.6091 28.6726 34.0996 28.3803C33.5985 28.088 33.206 27.6746 32.922 27.1401C32.6381 26.6056 32.4961 25.9792 32.4961 25.261ZM41.9221 22.7805V26.8269C41.9221 27.161 41.9931 27.399 42.135 27.541C42.277 27.6746 42.5234 27.7414 42.8742 27.7414H43.7135V28.7061H42.6863C42.0515 28.7061 41.5755 28.5599 41.2581 28.2676C40.9408 27.9753 40.7821 27.4951 40.7821 26.8269V22.7805H39.8926V21.841H40.7821V20.1122H41.9221V21.841H43.7135V22.7805H41.9221ZM47.5251 28.8188C46.9989 28.8188 46.5271 28.7311 46.1095 28.5557C45.6919 28.372 45.362 28.1214 45.1198 27.8041C44.8776 27.4784 44.744 27.1067 44.7189 26.6891H45.8965C45.9299 27.0315 46.0886 27.3113 46.3726 27.5285C46.6649 27.7456 47.0449 27.8542 47.5126 27.8542C47.9469 27.8542 48.2893 27.7581 48.5398 27.5661C48.7904 27.374 48.9157 27.1318 48.9157 26.8395C48.9157 26.5388 48.782 26.3175 48.5148 26.1755C48.2475 26.0252 47.8341 25.879 47.2745 25.737C46.7651 25.6034 46.3475 25.4698 46.0218 25.3362C45.7044 25.1942 45.4288 24.9896 45.195 24.7223C44.9695 24.4467 44.8567 24.0876 44.8567 23.6449C44.8567 23.2942 44.9611 22.9726 45.1699 22.6803C45.3787 22.388 45.6752 22.1583 46.0594 21.9913C46.4436 21.8159 46.882 21.7282 47.3748 21.7282C48.1348 21.7282 48.7486 21.9203 49.2163 22.3045C49.684 22.6887 49.9346 23.2148 49.968 23.883H48.828C48.8029 23.5238 48.6568 23.2357 48.3895 23.0186C48.1306 22.8014 47.7798 22.6929 47.3372 22.6929C46.928 22.6929 46.6022 22.7805 46.36 22.9559C46.1178 23.1313 45.9967 23.361 45.9967 23.6449C45.9967 23.8704 46.0677 24.0584 46.2097 24.2087C46.36 24.3507 46.5438 24.4676 46.7609 24.5595C46.9864 24.643 47.2954 24.739 47.688 24.8476C48.1807 24.9812 48.5816 25.1148 48.8906 25.2485C49.1996 25.3737 49.4627 25.5658 49.6798 25.8247C49.9053 26.0836 50.0222 26.4219 50.0306 26.8395C50.0306 27.2153 49.9262 27.5535 49.7174 27.8542C49.5086 28.1548 49.2121 28.3929 48.828 28.5683C48.4521 28.7353 48.0178 28.8188 47.5251 28.8188ZM57.9738 28.8188C57.3307 28.8188 56.7461 28.6726 56.22 28.3803C55.7022 28.088 55.2929 27.6746 54.9923 27.1401C54.7 26.5973 54.5538 25.9709 54.5538 25.261C54.5538 24.5595 54.7041 23.9414 55.0048 23.4069C55.3138 22.8641 55.7314 22.4507 56.2576 22.1667C56.7837 21.8744 57.3725 21.7282 58.0239 21.7282C58.6754 21.7282 59.2642 21.8744 59.7903 22.1667C60.3165 22.4507 60.7299 22.8599 61.0305 23.3944C61.3395 23.9289 61.494 24.5511 61.494 25.261C61.494 25.9709 61.3354 26.5973 61.018 27.1401C60.709 27.6746 60.2872 28.088 59.7527 28.3803C59.2182 28.6726 58.6253 28.8188 57.9738 28.8188ZM57.9738 27.8166C58.3831 27.8166 58.7672 27.7206 59.1264 27.5285C59.4855 27.3364 59.7736 27.0482 59.9907 26.6641C60.2162 26.2799 60.329 25.8122 60.329 25.261C60.329 24.7098 60.2204 24.2421 60.0033 23.8579C59.7861 23.4737 59.5022 23.1898 59.1514 23.006C58.8006 22.814 58.4206 22.7179 58.0114 22.7179C57.5938 22.7179 57.2096 22.814 56.8589 23.006C56.5165 23.1898 56.2408 23.4737 56.0321 23.8579C55.8233 24.2421 55.7189 24.7098 55.7189 25.261C55.7189 25.8206 55.8191 26.2924 56.0195 26.6766C56.2283 27.0608 56.5039 27.3489 56.8463 27.541C57.1888 27.7247 57.5646 27.8166 57.9738 27.8166ZM66.3378 21.7157C67.173 21.7157 67.8494 21.9704 68.3672 22.4799C68.885 22.981 69.1439 23.7076 69.1439 24.6597V28.7061H68.0165V24.8225C68.0165 24.1377 67.8453 23.6157 67.5028 23.2566C67.1604 22.8891 66.6927 22.7054 66.0998 22.7054C65.4984 22.7054 65.0182 22.8933 64.6591 23.2691C64.3083 23.6449 64.1329 24.192 64.1329 24.9102V28.7061H62.9929V21.841H64.1329V22.8181C64.3584 22.4674 64.6633 22.1959 65.0475 22.0038C65.44 21.8118 65.8701 21.7157 66.3378 21.7157ZM77.3401 28.8188C76.697 28.8188 76.1124 28.6726 75.5862 28.3803C75.0684 28.088 74.6592 27.6746 74.3585 27.1401C74.0662 26.5973 73.9201 25.9709 73.9201 25.261C73.9201 24.5595 74.0704 23.9414 74.3711 23.4069C74.6801 22.8641 75.0976 22.4507 75.6238 22.1667C76.15 21.8744 76.7387 21.7282 77.3902 21.7282C78.0416 21.7282 78.6304 21.8744 79.1566 22.1667C79.6827 22.4507 80.0961 22.8599 80.3968 23.3944C80.7058 23.9289 80.8603 24.5511 80.8603 25.261C80.8603 25.9709 80.7016 26.5973 80.3843 27.1401C80.0752 27.6746 79.6535 28.088 79.119 28.3803C78.5845 28.6726 77.9915 28.8188 77.3401 28.8188ZM77.3401 27.8166C77.7493 27.8166 78.1335 27.7206 78.4926 27.5285C78.8517 27.3364 79.1399 27.0482 79.357 26.6641C79.5825 26.2799 79.6952 25.8122 79.6952 25.261C79.6952 24.7098 79.5867 24.2421 79.3695 23.8579C79.1524 23.4737 78.8684 23.1898 78.5177 23.006C78.1669 22.814 77.7869 22.7179 77.3777 22.7179C76.9601 22.7179 76.5759 22.814 76.2251 23.006C75.8827 23.1898 75.6071 23.4737 75.3983 23.8579C75.1895 24.2421 75.0851 24.7098 75.0851 25.261C75.0851 25.8206 75.1853 26.2924 75.3858 26.6766C75.5946 27.0608 75.8702 27.3489 76.2126 27.541C76.555 27.7247 76.9308 27.8166 77.3401 27.8166ZM88.4476 21.841V28.7061H87.3076V27.6913C87.0904 28.0421 86.7856 28.3177 86.393 28.5181C86.0089 28.7102 85.5829 28.8063 85.1152 28.8063C84.5807 28.8063 84.1005 28.6977 83.6746 28.4806C83.2486 28.2551 82.9104 27.921 82.6598 27.4784C82.4176 27.0357 82.2965 26.497 82.2965 25.8623V21.841H83.424V25.712C83.424 26.3885 83.5952 26.9104 83.9377 27.2779C84.2801 27.637 84.7478 27.8166 85.3407 27.8166C85.9504 27.8166 86.4306 27.6287 86.7814 27.2529C87.1322 26.877 87.3076 26.33 87.3076 25.6118V21.841H88.4476ZM91.5124 22.9559C91.7128 22.5634 91.9968 22.2586 92.3643 22.0414C92.7401 21.8243 93.1952 21.7157 93.7298 21.7157V22.8933H93.4291C92.1513 22.8933 91.5124 23.5865 91.5124 24.9729V28.7061H90.3724V21.841H91.5124V22.9559ZM2.03373 42.1063C2.25922 41.7137 2.59329 41.388 3.03593 41.1291C3.48692 40.8619 4.0089 40.7282 4.60187 40.7282C5.21154 40.7282 5.76275 40.8744 6.2555 41.1667C6.7566 41.459 7.14912 41.8724 7.43308 42.4069C7.71704 42.9331 7.85902 43.5469 7.85902 44.2485C7.85902 44.9417 7.71704 45.5597 7.43308 46.1025C7.14912 46.6454 6.7566 47.0672 6.2555 47.3678C5.76275 47.6685 5.21154 47.8188 4.60187 47.8188C4.01725 47.8188 3.49945 47.6894 3.04846 47.4304C2.60582 47.1632 2.26757 46.8333 2.03373 46.4408V50.9632H0.893725V40.841H2.03373V42.1063ZM6.69396 44.2485C6.69396 43.7307 6.58956 43.2797 6.38077 42.8955C6.17198 42.5113 5.88802 42.219 5.5289 42.0186C5.17813 41.8181 4.78978 41.7179 4.36384 41.7179C3.94626 41.7179 3.55791 41.8223 3.19879 42.0311C2.84802 42.2315 2.56406 42.528 2.34692 42.9205C2.13812 43.3047 2.03373 43.7515 2.03373 44.261C2.03373 44.7788 2.13812 45.234 2.34692 45.6265C2.56406 46.0107 2.84802 46.3072 3.19879 46.5159C3.55791 46.7164 3.94626 46.8166 4.36384 46.8166C4.78978 46.8166 5.17813 46.7164 5.5289 46.5159C5.88802 46.3072 6.17198 46.0107 6.38077 45.6265C6.58956 45.234 6.69396 44.7746 6.69396 44.2485ZM10.4996 38.4357V47.7061H9.35958V38.4357H10.4996ZM12.0166 44.2485C12.0166 43.5469 12.1586 42.9331 12.4425 42.4069C12.7265 41.8724 13.1148 41.459 13.6076 41.1667C14.1087 40.8744 14.6641 40.7282 15.2737 40.7282C15.8751 40.7282 16.397 40.8577 16.8397 41.1166C17.2823 41.3755 17.6122 41.7012 17.8293 42.0937V40.841H18.9819V47.7061H17.8293V46.4282C17.6038 46.8291 17.2656 47.1632 16.8146 47.4304C16.372 47.6894 15.8542 47.8188 15.2612 47.8188C14.6515 47.8188 14.1003 47.6685 13.6076 47.3678C13.1148 47.0672 12.7265 46.6454 12.4425 46.1025C12.1586 45.5597 12.0166 44.9417 12.0166 44.2485ZM17.8293 44.261C17.8293 43.7432 17.7249 43.2922 17.5162 42.908C17.3074 42.5238 17.0234 42.2315 16.6643 42.0311C16.3135 41.8223 15.9252 41.7179 15.4992 41.7179C15.0733 41.7179 14.6849 41.8181 14.3342 42.0186C13.9834 42.219 13.7036 42.5113 13.4948 42.8955C13.286 43.2797 13.1816 43.7307 13.1816 44.2485C13.1816 44.7746 13.286 45.234 13.4948 45.6265C13.7036 46.0107 13.9834 46.3072 14.3342 46.5159C14.6849 46.7164 15.0733 46.8166 15.4992 46.8166C15.9252 46.8166 16.3135 46.7164 16.6643 46.5159C17.0234 46.3072 17.3074 46.0107 17.5162 45.6265C17.7249 45.234 17.8293 44.7788 17.8293 44.261ZM22.2989 41.7805V45.8269C22.2989 46.161 22.3699 46.399 22.5119 46.541C22.6539 46.6746 22.9002 46.7414 23.251 46.7414H24.0904V47.7061H23.0631C22.4284 47.7061 21.9523 47.5599 21.635 47.2676C21.3176 46.9753 21.1589 46.4951 21.1589 45.8269V41.7805H20.2695V40.841H21.1589V39.1122H22.2989V40.841H24.0904V41.7805H22.2989ZM28.2652 41.7805H26.8246V47.7061H25.6846V41.7805H24.7951V40.841H25.6846V40.3524C25.6846 39.5841 25.8808 39.0245 26.2734 38.6737C26.6742 38.3146 27.3132 38.135 28.1901 38.135V39.0871C27.689 39.0871 27.334 39.1874 27.1252 39.3878C26.9248 39.5799 26.8246 39.9014 26.8246 40.3524V40.841H28.2652V41.7805ZM32.5885 47.8188C31.9454 47.8188 31.3608 47.6726 30.8347 47.3803C30.3168 47.088 29.9076 46.6746 29.607 46.1401C29.3146 45.5973 29.1685 44.9709 29.1685 44.261C29.1685 43.5595 29.3188 42.9414 29.6195 42.4069C29.9285 41.8641 30.3461 41.4507 30.8722 41.1667C31.3984 40.8744 31.9872 40.7282 32.6386 40.7282C33.29 40.7282 33.8788 40.8744 34.405 41.1667C34.9311 41.4507 35.3446 41.8599 35.6452 42.3944C35.9542 42.9289 36.1087 43.5511 36.1087 44.261C36.1087 44.9709 35.95 45.5973 35.6327 46.1401C35.3237 46.6746 34.9019 47.088 34.3674 47.3803C33.8329 47.6726 33.2399 47.8188 32.5885 47.8188ZM32.5885 46.8166C32.9977 46.8166 33.3819 46.7206 33.741 46.5285C34.1002 46.3364 34.3883 46.0482 34.6054 45.6641C34.8309 45.2799 34.9437 44.8122 34.9437 44.261C34.9437 43.7098 34.8351 43.2421 34.618 42.8579C34.4008 42.4737 34.1169 42.1898 33.7661 42.006C33.4153 41.814 33.0353 41.7179 32.6261 41.7179C32.2085 41.7179 31.8243 41.814 31.4736 42.006C31.1311 42.1898 30.8555 42.4737 30.6467 42.8579C30.4379 43.2421 30.3336 43.7098 30.3336 44.261C30.3336 44.8206 30.4338 45.2924 30.6342 45.6766C30.843 46.0608 31.1186 46.3489 31.461 46.541C31.8034 46.7247 32.1793 46.8166 32.5885 46.8166ZM38.7476 41.9559C38.9481 41.5634 39.232 41.2586 39.5995 41.0414C39.9753 40.8243 40.4305 40.7157 40.965 40.7157V41.8933H40.6643C39.3865 41.8933 38.7476 42.5865 38.7476 43.9729V47.7061H37.6076V40.841H38.7476V41.9559ZM50.5366 40.7157C51.0711 40.7157 51.5471 40.8285 51.9647 41.054C52.3823 41.2711 52.7122 41.601 52.9544 42.0436C53.1966 42.4863 53.3177 43.0249 53.3177 43.6597V47.7061H52.1902V43.8225C52.1902 43.1377 52.019 42.6157 51.6766 42.2566C51.3425 41.8891 50.8874 41.7054 50.3111 41.7054C49.7181 41.7054 49.2463 41.8975 48.8955 42.2816C48.5447 42.6575 48.3693 43.2045 48.3693 43.9227V47.7061H47.2419V43.8225C47.2419 43.1377 47.0707 42.6157 46.7282 42.2566C46.3942 41.8891 45.939 41.7054 45.3627 41.7054C44.7698 41.7054 44.2979 41.8975 43.9471 42.2816C43.5964 42.6575 43.421 43.2045 43.421 43.9227V47.7061H42.281V40.841H43.421V41.8307C43.6465 41.4715 43.9471 41.1959 44.323 41.0038C44.7071 40.8118 45.1289 40.7157 45.5882 40.7157C46.1645 40.7157 46.6739 40.8452 47.1166 41.1041C47.5592 41.363 47.8891 41.743 48.1063 42.2441C48.2983 41.7597 48.6157 41.3838 49.0583 41.1166C49.501 40.8493 49.9937 40.7157 50.5366 40.7157ZM55.551 47.7812C55.3339 47.7812 55.1501 47.7061 54.9998 47.5557C54.8495 47.4054 54.7743 47.2217 54.7743 47.0045C54.7743 46.7874 54.8495 46.6036 54.9998 46.4533C55.1501 46.303 55.3339 46.2278 55.551 46.2278C55.7598 46.2278 55.9352 46.303 56.0772 46.4533C56.2275 46.6036 56.3027 46.7874 56.3027 47.0045C56.3027 47.2217 56.2275 47.4054 56.0772 47.5557C55.9352 47.7061 55.7598 47.7812 55.551 47.7812Z" fill="white" fill-opacity="0.7"/>
</svg>
