<svg width="137" height="14" viewBox="0 0 137 14" fill="none" xmlns="http://www.w3.org/2000/svg">
<path d="M2.54736 8.6092H5.42868V9.99976H0.793505V1.25556H2.54736V8.6092ZM6.09244 6.50458C6.09244 5.80304 6.23025 5.18084 6.50585 4.63798C6.78981 4.09513 7.16981 3.67754 7.64585 3.38523C8.13025 3.09293 8.66893 2.94677 9.2619 2.94677C9.7797 2.94677 10.2307 3.05117 10.6149 3.25996C11.0074 3.46875 11.3206 3.73183 11.5544 4.04919V3.05952H13.3208V9.99976H11.5544V8.98503C11.3289 9.31074 11.0158 9.58217 10.6149 9.79932C10.2223 10.0081 9.76718 10.1125 9.24937 10.1125C8.66476 10.1125 8.13025 9.96217 7.64585 9.66151C7.16981 9.36085 6.78981 8.93909 6.50585 8.39624C6.23025 7.84503 6.09244 7.21447 6.09244 6.50458ZM11.5544 6.52964C11.5544 6.1037 11.4709 5.7404 11.3039 5.43974C11.1369 5.13073 10.9114 4.89689 10.6274 4.7382C10.3434 4.57117 10.0386 4.48765 9.71289 4.48765C9.38718 4.48765 9.08652 4.567 8.81091 4.72568C8.53531 4.88436 8.30981 5.11821 8.13443 5.42722C7.96739 5.72788 7.88388 6.087 7.88388 6.50458C7.88388 6.92217 7.96739 7.28964 8.13443 7.607C8.30981 7.91601 8.53531 8.15404 8.81091 8.32107C9.09487 8.4881 9.39553 8.57162 9.71289 8.57162C10.0386 8.57162 10.3434 8.49228 10.6274 8.3336C10.9114 8.16656 11.1369 7.93272 11.3039 7.63206C11.4709 7.32305 11.5544 6.95557 11.5544 6.52964ZM21.5856 3.05952V9.99976H19.8193V9.12283C19.5938 9.42349 19.2973 9.66151 18.9298 9.8369C18.5707 10.0039 18.1782 10.0874 17.7522 10.0874C17.2094 10.0874 16.7291 9.9747 16.3116 9.74921C15.894 9.51536 15.5641 9.17712 15.3219 8.73448C15.088 8.28349 14.9711 7.74898 14.9711 7.13096V3.05952H16.725V6.88041C16.725 7.43162 16.8628 7.85755 17.1384 8.15821C17.414 8.45052 17.7898 8.59668 18.2658 8.59668C18.7502 8.59668 19.1302 8.45052 19.4059 8.15821C19.6815 7.85755 19.8193 7.43162 19.8193 6.88041V3.05952H21.5856ZM27.162 2.9593C27.9889 2.9593 28.657 3.22238 29.1664 3.74853C29.6759 4.26634 29.9306 4.99293 29.9306 5.92832V9.99976H28.1768V6.16634C28.1768 5.61513 28.039 5.19337 27.7634 4.90106C27.4878 4.6004 27.1119 4.45007 26.6359 4.45007C26.1515 4.45007 25.7673 4.6004 25.4834 4.90106C25.2077 5.19337 25.0699 5.61513 25.0699 6.16634V9.99976H23.3161V3.05952H25.0699V3.92392C25.3038 3.62326 25.6003 3.38941 25.9594 3.22238C26.3269 3.04699 26.7278 2.9593 27.162 2.9593ZM31.1474 6.52964C31.1474 5.81139 31.2936 5.18502 31.5859 4.65051C31.8782 4.10765 32.2833 3.69007 32.8011 3.39776C33.3189 3.0971 33.9118 2.94677 34.58 2.94677C35.4402 2.94677 36.1501 3.16392 36.7097 3.5982C37.2776 4.02414 37.6576 4.62546 37.8497 5.40216H35.958C35.8578 5.1015 35.6866 4.86766 35.4444 4.70062C35.2105 4.52524 34.9182 4.43754 34.5675 4.43754C34.0664 4.43754 33.6697 4.62128 33.3773 4.98875C33.085 5.34788 32.9389 5.8615 32.9389 6.52964C32.9389 7.18942 33.085 7.70305 33.3773 8.07052C33.6697 8.42964 34.0664 8.6092 34.5675 8.6092C35.2773 8.6092 35.7409 8.29184 35.958 7.65711H37.8497C37.6576 8.40876 37.2776 9.00591 36.7097 9.44855C36.1417 9.89118 35.4319 10.1125 34.58 10.1125C33.9118 10.1125 33.3189 9.96635 32.8011 9.67404C32.2833 9.37338 31.8782 8.9558 31.5859 8.42129C31.2936 7.87843 31.1474 7.24788 31.1474 6.52964ZM43.0431 2.9593C43.5692 2.9593 44.0369 3.07622 44.4462 3.31007C44.8554 3.53556 45.1728 3.87381 45.3983 4.3248C45.6321 4.76744 45.749 5.30194 45.749 5.92832V9.99976H43.9952V6.16634C43.9952 5.61513 43.8574 5.19337 43.5818 4.90106C43.3062 4.6004 42.9303 4.45007 42.4543 4.45007C41.9699 4.45007 41.5857 4.6004 41.3018 4.90106C41.0262 5.19337 40.8884 5.61513 40.8884 6.16634V9.99976H39.1345V0.729404H40.8884V3.92392C41.1139 3.62326 41.4145 3.38941 41.7903 3.22238C42.1662 3.04699 42.5838 2.9593 43.0431 2.9593ZM57.0415 3.05952L52.7446 13.282H50.878L52.3813 9.82437L49.6002 3.05952H51.567L53.3584 7.90766L55.1749 3.05952H57.0415ZM61.0687 10.1125C60.4006 10.1125 59.7992 9.96635 59.2647 9.67404C58.7302 9.37338 58.3085 8.95162 57.9995 8.40876C57.6988 7.8659 57.5485 7.23953 57.5485 6.52964C57.5485 5.81975 57.703 5.19337 58.012 4.65051C58.3294 4.10765 58.7595 3.69007 59.3023 3.39776C59.8452 3.0971 60.4507 2.94677 61.1188 2.94677C61.7869 2.94677 62.3924 3.0971 62.9353 3.39776C63.4782 3.69007 63.9041 4.10765 64.2131 4.65051C64.5305 5.19337 64.6892 5.81975 64.6892 6.52964C64.6892 7.23953 64.5263 7.8659 64.2006 8.40876C63.8832 8.95162 63.4489 9.37338 62.8977 9.67404C62.3549 9.96635 61.7452 10.1125 61.0687 10.1125ZM61.0687 8.58415C61.3861 8.58415 61.6826 8.50898 61.9582 8.35865C62.2421 8.19997 62.4676 7.96612 62.6346 7.65711C62.8017 7.3481 62.8852 6.97228 62.8852 6.52964C62.8852 5.86986 62.7098 5.36458 62.359 5.01381C62.0166 4.65469 61.5949 4.47513 61.0938 4.47513C60.5927 4.47513 60.1709 4.65469 59.8285 5.01381C59.4944 5.36458 59.3274 5.86986 59.3274 6.52964C59.3274 7.18942 59.4902 7.69887 59.816 8.05799C60.15 8.40876 60.5676 8.58415 61.0687 8.58415ZM72.5275 3.05952V9.99976H70.7612V9.12283C70.5357 9.42349 70.2392 9.66151 69.8717 9.8369C69.5126 10.0039 69.1201 10.0874 68.6941 10.0874C68.1513 10.0874 67.6711 9.9747 67.2535 9.74921C66.8359 9.51536 66.506 9.17712 66.2638 8.73448C66.03 8.28349 65.913 7.74898 65.913 7.13096V3.05952H67.6669V6.88041C67.6669 7.43162 67.8047 7.85755 68.0803 8.15821C68.3559 8.45052 68.7317 8.59668 69.2078 8.59668C69.6922 8.59668 70.0722 8.45052 70.3478 8.15821C70.6234 7.85755 70.7612 7.43162 70.7612 6.88041V3.05952H72.5275ZM76.0119 4.13688C76.2374 3.76941 76.5297 3.48128 76.8888 3.27249C77.2563 3.0637 77.6738 2.9593 78.1415 2.9593V4.80084H77.678C77.1268 4.80084 76.7092 4.93029 76.4253 5.1892C76.1497 5.4481 76.0119 5.89909 76.0119 6.54217V9.99976H74.258V3.05952H76.0119V4.13688ZM84.0618 4.06172C84.2873 3.74436 84.5963 3.48128 84.9888 3.27249C85.3897 3.05534 85.8448 2.94677 86.3543 2.94677C86.9473 2.94677 87.4818 3.09293 87.9578 3.38523C88.4422 3.67754 88.8222 4.09513 89.0978 4.63798C89.3818 5.17249 89.5238 5.79469 89.5238 6.50458C89.5238 7.21447 89.3818 7.84503 89.0978 8.39624C88.8222 8.93909 88.4422 9.36085 87.9578 9.66151C87.4818 9.96217 86.9473 10.1125 86.3543 10.1125C85.8448 10.1125 85.3939 10.0081 85.0013 9.79932C84.6171 9.59052 84.304 9.32745 84.0618 9.01008V13.307H82.3079V3.05952H84.0618V4.06172ZM87.7323 6.50458C87.7323 6.087 87.6446 5.72788 87.4692 5.42722C87.3022 5.11821 87.0767 4.88436 86.7928 4.72568C86.5172 4.567 86.2165 4.48765 85.8908 4.48765C85.5734 4.48765 85.2728 4.57117 84.9888 4.7382C84.7132 4.89689 84.4877 5.13073 84.3123 5.43974C84.1453 5.74876 84.0618 6.11205 84.0618 6.52964C84.0618 6.94722 84.1453 7.31052 84.3123 7.61953C84.4877 7.92854 84.7132 8.16656 84.9888 8.3336C85.2728 8.49228 85.5734 8.57162 85.8908 8.57162C86.2165 8.57162 86.5172 8.4881 86.7928 8.32107C87.0767 8.15404 87.3022 7.91601 87.4692 7.607C87.6446 7.29799 87.7323 6.93052 87.7323 6.50458ZM92.5521 4.13688C92.7776 3.76941 93.0699 3.48128 93.429 3.27249C93.7965 3.0637 94.2141 2.9593 94.6818 2.9593V4.80084H94.2182C93.667 4.80084 93.2494 4.93029 92.9655 5.1892C92.6899 5.4481 92.5521 5.89909 92.5521 6.54217V9.99976H90.7982V3.05952H92.5521V4.13688ZM98.9448 10.1125C98.2767 10.1125 97.6754 9.96635 97.1409 9.67404C96.6064 9.37338 96.1846 8.95162 95.8756 8.40876C95.5749 7.8659 95.4246 7.23953 95.4246 6.52964C95.4246 5.81975 95.5791 5.19337 95.8881 4.65051C96.2055 4.10765 96.6356 3.69007 97.1784 3.39776C97.7213 3.0971 98.3268 2.94677 98.9949 2.94677C99.6631 2.94677 100.269 3.0971 100.811 3.39776C101.354 3.69007 101.78 4.10765 102.089 4.65051C102.407 5.19337 102.565 5.81975 102.565 6.52964C102.565 7.23953 102.402 7.8659 102.077 8.40876C101.759 8.95162 101.325 9.37338 100.774 9.67404C100.231 9.96635 99.6213 10.1125 98.9448 10.1125ZM98.9448 8.58415C99.2622 8.58415 99.5587 8.50898 99.8343 8.35865C100.118 8.19997 100.344 7.96612 100.511 7.65711C100.678 7.3481 100.761 6.97228 100.761 6.52964C100.761 5.86986 100.586 5.36458 100.235 5.01381C99.8927 4.65469 99.471 4.47513 98.9699 4.47513C98.4688 4.47513 98.047 4.65469 97.7046 5.01381C97.3705 5.36458 97.2035 5.86986 97.2035 6.52964C97.2035 7.18942 97.3664 7.69887 97.6921 8.05799C98.0261 8.40876 98.4437 8.58415 98.9448 8.58415ZM104.741 2.2327C104.424 2.2327 104.161 2.13666 103.952 1.94457C103.752 1.74413 103.651 1.49776 103.651 1.20545C103.651 0.913141 103.752 0.670942 103.952 0.478854C104.161 0.278414 104.424 0.178194 104.741 0.178194C105.05 0.178194 105.305 0.278414 105.505 0.478854C105.706 0.670942 105.806 0.913141 105.806 1.20545C105.806 1.49776 105.706 1.74413 105.505 1.94457C105.305 2.13666 105.05 2.2327 104.741 2.2327ZM105.606 11.1398C105.606 11.9081 105.414 12.4593 105.029 12.7934C104.654 13.1358 104.111 13.307 103.401 13.307H102.624V11.8162H103.125C103.392 11.8162 103.58 11.762 103.689 11.6534C103.798 11.5532 103.852 11.3861 103.852 11.1523V3.05952H105.606V11.1398ZM113.79 6.37931C113.79 6.62986 113.773 6.85535 113.74 7.05579H108.666C108.708 7.55689 108.884 7.94942 109.193 8.23338C109.502 8.51733 109.882 8.65931 110.333 8.65931C110.984 8.65931 111.447 8.37953 111.723 7.81997H113.615C113.414 8.4881 113.03 9.03931 112.462 9.4736C111.894 9.89954 111.197 10.1125 110.37 10.1125C109.702 10.1125 109.101 9.96635 108.566 9.67404C108.04 9.37338 107.627 8.95162 107.326 8.40876C107.034 7.8659 106.887 7.23953 106.887 6.52964C106.887 5.81139 107.034 5.18084 107.326 4.63798C107.618 4.09513 108.027 3.67754 108.554 3.38523C109.08 3.09293 109.685 2.94677 110.37 2.94677C111.03 2.94677 111.619 3.08875 112.136 3.37271C112.663 3.65666 113.068 4.06172 113.352 4.58787C113.644 5.10568 113.79 5.70282 113.79 6.37931ZM111.974 5.87821C111.965 5.42722 111.802 5.0681 111.485 4.80084C111.168 4.52524 110.779 4.38743 110.32 4.38743C109.886 4.38743 109.518 4.52106 109.218 4.78831C108.925 5.04722 108.746 5.41051 108.679 5.87821H111.974ZM114.619 6.52964C114.619 5.81139 114.765 5.18502 115.058 4.65051C115.35 4.10765 115.755 3.69007 116.273 3.39776C116.791 3.0971 117.384 2.94677 118.052 2.94677C118.912 2.94677 119.622 3.16392 120.181 3.5982C120.749 4.02414 121.129 4.62546 121.321 5.40216H119.43C119.33 5.1015 119.158 4.86766 118.916 4.70062C118.682 4.52524 118.39 4.43754 118.039 4.43754C117.538 4.43754 117.141 4.62128 116.849 4.98875C116.557 5.34788 116.411 5.8615 116.411 6.52964C116.411 7.18942 116.557 7.70305 116.849 8.07052C117.141 8.42964 117.538 8.6092 118.039 8.6092C118.749 8.6092 119.213 8.29184 119.43 7.65711H121.321C121.129 8.40876 120.749 9.00591 120.181 9.44855C119.614 9.89118 118.904 10.1125 118.052 10.1125C117.384 10.1125 116.791 9.96635 116.273 9.67404C115.755 9.37338 115.35 8.9558 115.058 8.42129C114.765 7.87843 114.619 7.24788 114.619 6.52964ZM124.648 4.50018V7.85755C124.648 8.0914 124.703 8.26261 124.811 8.37118C124.928 8.4714 125.12 8.52151 125.387 8.52151H126.202V9.99976H125.099C123.621 9.99976 122.882 9.28151 122.882 7.84503V4.50018H122.055V3.05952H122.882V1.34325H124.648V3.05952H126.202V4.50018H124.648ZM130.119 10.1125C129.551 10.1125 129.042 10.0123 128.591 9.81184C128.14 9.60305 127.781 9.32327 127.513 8.9725C127.254 8.62173 127.112 8.23338 127.087 7.80744H128.854C128.887 8.0747 129.017 8.29602 129.242 8.4714C129.476 8.64679 129.764 8.73448 130.106 8.73448C130.441 8.73448 130.699 8.66766 130.883 8.53404C131.075 8.40041 131.171 8.2292 131.171 8.02041C131.171 7.79492 131.054 7.62788 130.821 7.51931C130.595 7.40239 130.232 7.27711 129.731 7.14349C129.213 7.01821 128.787 6.88876 128.453 6.75513C128.127 6.62151 127.843 6.41689 127.601 6.14128C127.367 5.86568 127.25 5.49403 127.25 5.02634C127.25 4.64216 127.359 4.29139 127.576 3.97403C127.801 3.65666 128.119 3.40611 128.528 3.22238C128.946 3.03864 129.434 2.94677 129.994 2.94677C130.821 2.94677 131.48 3.15556 131.973 3.57315C132.466 3.98238 132.737 4.53776 132.787 5.2393H131.109C131.084 4.9637 130.967 4.74656 130.758 4.58787C130.557 4.42084 130.286 4.33732 129.944 4.33732C129.626 4.33732 129.38 4.39579 129.205 4.51271C129.037 4.62963 128.954 4.79249 128.954 5.00128C128.954 5.23513 129.071 5.41469 129.305 5.53997C129.539 5.65689 129.902 5.77799 130.395 5.90326C130.896 6.02854 131.309 6.15799 131.635 6.29162C131.961 6.42524 132.24 6.63403 132.474 6.91799C132.716 7.1936 132.842 7.56107 132.85 8.02041C132.85 8.42129 132.737 8.78041 132.512 9.09778C132.295 9.41514 131.977 9.66569 131.56 9.84943C131.15 10.0248 130.67 10.1125 130.119 10.1125ZM136.557 1.10523L136.357 7.15601H134.878L134.666 1.10523H136.557ZM135.655 10.0874C135.338 10.0874 135.075 9.9914 134.866 9.79932C134.666 9.59888 134.565 9.3525 134.565 9.06019C134.565 8.76788 134.666 8.52569 134.866 8.3336C135.075 8.13316 135.338 8.03294 135.655 8.03294C135.964 8.03294 136.219 8.13316 136.419 8.3336C136.62 8.52569 136.72 8.76788 136.72 9.06019C136.72 9.3525 136.62 9.59888 136.419 9.79932C136.219 9.9914 135.964 10.0874 135.655 10.0874Z" fill="white" fill-opacity="0.8"/>
</svg>
