<svg width="109" height="32" viewBox="0 0 109 32" fill="none" xmlns="http://www.w3.org/2000/svg">
<path d="M9.81394 1.03702V9.70605H8.67394V3.24186L5.79261 9.70605H4.99085L2.097 3.22934V9.70605H0.956996V1.03702H2.18469L5.39173 8.20275L8.59877 1.03702H9.81394ZM11.3214 6.24846C11.3214 5.54692 11.4633 4.93308 11.7473 4.40692C12.0312 3.87241 12.4196 3.45901 12.9123 3.1667C13.4134 2.87439 13.9688 2.72824 14.5785 2.72824C15.1798 2.72824 15.7018 2.85769 16.1444 3.11659C16.5871 3.37549 16.917 3.70121 17.1341 4.09373V2.84098H18.2866V9.70605H17.1341V8.42825C16.9086 8.82913 16.5704 9.1632 16.1194 9.43045C15.6767 9.68935 15.1589 9.8188 14.566 9.8188C13.9563 9.8188 13.4051 9.66847 12.9123 9.36781C12.4196 9.06715 12.0312 8.64539 11.7473 8.10253C11.4633 7.55968 11.3214 6.94165 11.3214 6.24846ZM17.1341 6.26099C17.1341 5.74319 17.0297 5.2922 16.8209 4.90802C16.6121 4.52384 16.3282 4.23154 15.9691 4.0311C15.6183 3.8223 15.2299 3.71791 14.804 3.71791C14.3781 3.71791 13.9897 3.81813 13.6389 4.01857C13.2882 4.21901 13.0084 4.51132 12.7996 4.89549C12.5908 5.27967 12.4864 5.73066 12.4864 6.24846C12.4864 6.77462 12.5908 7.23396 12.7996 7.62649C13.0084 8.01067 13.2882 8.30715 13.6389 8.51594C13.9897 8.71638 14.3781 8.8166 14.804 8.8166C15.2299 8.8166 15.6183 8.71638 15.9691 8.51594C16.3282 8.30715 16.6121 8.01067 16.8209 7.62649C17.0297 7.23396 17.1341 6.77879 17.1341 6.26099ZM24.0466 9.70605L21.3531 6.6744V9.70605H20.2131V0.435703H21.3531V5.88517L23.9964 2.84098H25.5874L22.3553 6.26099L25.6 9.70605H24.0466ZM32.9241 6.01044C32.9241 6.22758 32.9116 6.45726 32.8866 6.69945H27.3995C27.4413 7.37594 27.6709 7.90627 28.0885 8.29045C28.5145 8.66627 29.0281 8.85418 29.6294 8.85418C30.1222 8.85418 30.5314 8.74144 30.8571 8.51594C31.1912 8.2821 31.425 7.97308 31.5586 7.58891H32.7863C32.6026 8.24869 32.2351 8.78737 31.6839 9.20495C31.1327 9.61419 30.4479 9.8188 29.6294 9.8188C28.978 9.8188 28.3934 9.67265 27.8756 9.38034C27.3661 9.08803 26.9652 8.67462 26.6729 8.14012C26.3806 7.59726 26.2345 6.97088 26.2345 6.26099C26.2345 5.5511 26.3764 4.9289 26.6604 4.39439C26.9444 3.85989 27.3411 3.45065 27.8505 3.1667C28.3683 2.87439 28.9613 2.72824 29.6294 2.72824C30.2808 2.72824 30.8571 2.87021 31.3582 3.15417C31.8593 3.43813 32.2435 3.83066 32.5107 4.33176C32.7863 4.8245 32.9241 5.38407 32.9241 6.01044ZM31.7466 5.77242C31.7466 5.33813 31.6505 4.96648 31.4584 4.65747C31.2663 4.34011 31.0033 4.10209 30.6692 3.9434C30.3435 3.77637 29.9802 3.69285 29.5793 3.69285C29.003 3.69285 28.5103 3.87659 28.1011 4.24406C27.7002 4.61154 27.4705 5.12099 27.412 5.77242H31.7466ZM40.1991 9.8188C39.6729 9.8188 39.2011 9.73111 38.7835 9.55572C38.3659 9.37199 38.036 9.12144 37.7938 8.80407C37.5516 8.47836 37.418 8.10671 37.3929 7.68913H38.5705C38.6039 8.03155 38.7626 8.31133 39.0466 8.52847C39.3389 8.74561 39.7189 8.85418 40.1866 8.85418C40.6209 8.85418 40.9633 8.75814 41.2138 8.56605C41.4644 8.37396 41.5897 8.13177 41.5897 7.83946C41.5897 7.5388 41.456 7.31748 41.1888 7.1755C40.9215 7.02517 40.5081 6.87901 39.9486 6.73704C39.4391 6.60341 39.0215 6.46978 38.6958 6.33616C38.3784 6.19418 38.1028 5.98956 37.869 5.72231C37.6435 5.4467 37.5307 5.08758 37.5307 4.64494C37.5307 4.29417 37.6351 3.97263 37.8439 3.68033C38.0527 3.38802 38.3492 3.15835 38.7334 2.99131C39.1176 2.81593 39.556 2.72824 40.0488 2.72824C40.8088 2.72824 41.4226 2.92032 41.8903 3.3045C42.358 3.68868 42.6086 4.21483 42.642 4.88297H41.502C41.4769 4.52384 41.3308 4.23571 41.0635 4.01857C40.8046 3.80143 40.4538 3.69285 40.0112 3.69285C39.602 3.69285 39.2762 3.78055 39.034 3.95593C38.7918 4.13132 38.6707 4.36099 38.6707 4.64494C38.6707 4.87044 38.7417 5.05835 38.8837 5.20868C39.034 5.35066 39.2178 5.46758 39.4349 5.55945C39.6604 5.64297 39.9694 5.73901 40.362 5.84758C40.8547 5.98121 41.2556 6.11484 41.5646 6.24846C41.8736 6.37374 42.1367 6.56583 42.3538 6.82473C42.5793 7.08363 42.6963 7.42187 42.7046 7.83946C42.7046 8.21528 42.6002 8.55352 42.3914 8.85418C42.1826 9.15484 41.8861 9.39287 41.502 9.56825C41.1261 9.73529 40.6919 9.8188 40.1991 9.8188ZM43.888 6.24846C43.888 5.54692 44.0299 4.93308 44.3139 4.40692C44.5979 3.87241 44.9862 3.45901 45.479 3.1667C45.9801 2.87439 46.5354 2.72824 47.1451 2.72824C47.7464 2.72824 48.2684 2.85769 48.7111 3.11659C49.1537 3.37549 49.4836 3.70121 49.7007 4.09373V2.84098H50.8533V9.70605H49.7007V8.42825C49.4752 8.82913 49.137 9.1632 48.686 9.43045C48.2434 9.68935 47.7256 9.8188 47.1326 9.8188C46.5229 9.8188 45.9717 9.66847 45.479 9.36781C44.9862 9.06715 44.5979 8.64539 44.3139 8.10253C44.0299 7.55968 43.888 6.94165 43.888 6.24846ZM49.7007 6.26099C49.7007 5.74319 49.5963 5.2922 49.3875 4.90802C49.1787 4.52384 48.8948 4.23154 48.5357 4.0311C48.1849 3.8223 47.7965 3.71791 47.3706 3.71791C46.9447 3.71791 46.5563 3.81813 46.2056 4.01857C45.8548 4.21901 45.575 4.51132 45.3662 4.89549C45.1574 5.27967 45.053 5.73066 45.053 6.24846C45.053 6.77462 45.1574 7.23396 45.3662 7.62649C45.575 8.01067 45.8548 8.30715 46.2056 8.51594C46.5563 8.71638 46.9447 8.8166 47.3706 8.8166C47.7965 8.8166 48.1849 8.71638 48.5357 8.51594C48.8948 8.30715 49.1787 8.01067 49.3875 7.62649C49.5963 7.23396 49.7007 6.77879 49.7007 6.26099ZM53.9198 0.435703V9.70605H52.7797V0.435703H53.9198ZM62.1264 6.01044C62.1264 6.22758 62.1139 6.45726 62.0889 6.69945H56.6018C56.6436 7.37594 56.8732 7.90627 57.2908 8.29045C57.7168 8.66627 58.2304 8.85418 58.8317 8.85418C59.3245 8.85418 59.7337 8.74144 60.0594 8.51594C60.3935 8.2821 60.6273 7.97308 60.7609 7.58891H61.9886C61.8049 8.24869 61.4374 8.78737 60.8862 9.20495C60.335 9.61419 59.6502 9.8188 58.8317 9.8188C58.1803 9.8188 57.5957 9.67265 57.0779 9.38034C56.5684 9.08803 56.1675 8.67462 55.8752 8.14012C55.5829 7.59726 55.4368 6.97088 55.4368 6.26099C55.4368 5.5511 55.5787 4.9289 55.8627 4.39439C56.1466 3.85989 56.5433 3.45065 57.0528 3.1667C57.5706 2.87439 58.1636 2.72824 58.8317 2.72824C59.4831 2.72824 60.0594 2.87021 60.5605 3.15417C61.0616 3.43813 61.4458 3.83066 61.713 4.33176C61.9886 4.8245 62.1264 5.38407 62.1264 6.01044ZM60.9489 5.77242C60.9489 5.33813 60.8528 4.96648 60.6607 4.65747C60.4686 4.34011 60.2056 4.10209 59.8715 3.9434C59.5458 3.77637 59.1825 3.69285 58.7816 3.69285C58.2053 3.69285 57.7126 3.87659 57.3034 4.24406C56.9025 4.61154 56.6728 5.12099 56.6143 5.77242H60.9489ZM66.0615 9.8188C65.5354 9.8188 65.0635 9.73111 64.6459 9.55572C64.2283 9.37199 63.8985 9.12144 63.6563 8.80407C63.4141 8.47836 63.2804 8.10671 63.2554 7.68913H64.433C64.4664 8.03155 64.6251 8.31133 64.909 8.52847C65.2013 8.74561 65.5813 8.85418 66.049 8.85418C66.4833 8.85418 66.8257 8.75814 67.0763 8.56605C67.3268 8.37396 67.4521 8.13177 67.4521 7.83946C67.4521 7.5388 67.3185 7.31748 67.0512 7.1755C66.784 7.02517 66.3706 6.87901 65.811 6.73704C65.3015 6.60341 64.884 6.46978 64.5582 6.33616C64.2409 6.19418 63.9653 5.98956 63.7314 5.72231C63.5059 5.4467 63.3932 5.08758 63.3932 4.64494C63.3932 4.29417 63.4976 3.97263 63.7064 3.68033C63.9152 3.38802 64.2116 3.15835 64.5958 2.99131C64.98 2.81593 65.4185 2.72824 65.9112 2.72824C66.6712 2.72824 67.2851 2.92032 67.7528 3.3045C68.2204 3.68868 68.471 4.21483 68.5044 4.88297H67.3644C67.3393 4.52384 67.1932 4.23571 66.9259 4.01857C66.667 3.80143 66.3163 3.69285 65.8736 3.69285C65.4644 3.69285 65.1387 3.78055 64.8965 3.95593C64.6543 4.13132 64.5332 4.36099 64.5332 4.64494C64.5332 4.87044 64.6042 5.05835 64.7462 5.20868C64.8965 5.35066 65.0802 5.46758 65.2974 5.55945C65.5229 5.64297 65.8319 5.73901 66.2244 5.84758C66.7171 5.98121 67.118 6.11484 67.427 6.24846C67.7361 6.37374 67.9991 6.56583 68.2163 6.82473C68.4418 7.08363 68.5587 7.42187 68.567 7.83946C68.567 8.21528 68.4626 8.55352 68.2539 8.85418C68.0451 9.15484 67.7486 9.39287 67.3644 9.56825C66.9886 9.73529 66.5543 9.8188 66.0615 9.8188ZM76.3098 3.78055H74.8692V9.70605H73.7292V3.78055H72.8397V2.84098H73.7292V2.35241C73.7292 1.58406 73.9254 1.0245 74.318 0.673726C74.7188 0.314603 75.3577 0.135042 76.2347 0.135042V1.08713C75.7336 1.08713 75.3786 1.18735 75.1698 1.38779C74.9694 1.57988 74.8692 1.90142 74.8692 2.35241V2.84098H76.3098V3.78055ZM78.2278 1.72604C78.0107 1.72604 77.8269 1.65087 77.6766 1.50054C77.5263 1.35021 77.4511 1.16647 77.4511 0.94933C77.4511 0.732187 77.5263 0.54845 77.6766 0.39812C77.8269 0.24779 78.0107 0.172625 78.2278 0.172625C78.4366 0.172625 78.612 0.24779 78.754 0.39812C78.9043 0.54845 78.9795 0.732187 78.9795 0.94933C78.9795 1.16647 78.9043 1.35021 78.754 1.50054C78.612 1.65087 78.4366 1.72604 78.2278 1.72604ZM78.779 2.84098V9.70605H77.639V2.84098H78.779ZM81.862 3.95593C82.0624 3.5634 82.3463 3.25857 82.7138 3.04142C83.0896 2.82428 83.5448 2.71571 84.0793 2.71571V3.89329H83.7787C82.5009 3.89329 81.862 4.58648 81.862 5.97286V9.70605H80.7219V2.84098H81.862V3.95593ZM87.8256 9.8188C87.2995 9.8188 86.8276 9.73111 86.41 9.55572C85.9924 9.37199 85.6626 9.12144 85.4204 8.80407C85.1782 8.47836 85.0445 8.10671 85.0195 7.68913H86.1971C86.2305 8.03155 86.3891 8.31133 86.6731 8.52847C86.9654 8.74561 87.3454 8.85418 87.8131 8.85418C88.2474 8.85418 88.5898 8.75814 88.8404 8.56605C89.0909 8.37396 89.2162 8.13177 89.2162 7.83946C89.2162 7.5388 89.0826 7.31748 88.8153 7.1755C88.5481 7.02517 88.1346 6.87901 87.5751 6.73704C87.0656 6.60341 86.648 6.46978 86.3223 6.33616C86.005 6.19418 85.7294 5.98956 85.4955 5.72231C85.27 5.4467 85.1573 5.08758 85.1573 4.64494C85.1573 4.29417 85.2617 3.97263 85.4705 3.68033C85.6793 3.38802 85.9757 3.15835 86.3599 2.99131C86.7441 2.81593 87.1826 2.72824 87.6753 2.72824C88.4353 2.72824 89.0492 2.92032 89.5168 3.3045C89.9845 3.68868 90.2351 4.21483 90.2685 4.88297H89.1285C89.1034 4.52384 88.9573 4.23571 88.69 4.01857C88.4311 3.80143 88.0804 3.69285 87.6377 3.69285C87.2285 3.69285 86.9028 3.78055 86.6606 3.95593C86.4184 4.13132 86.2973 4.36099 86.2973 4.64494C86.2973 4.87044 86.3683 5.05835 86.5102 5.20868C86.6606 5.35066 86.8443 5.46758 87.0615 5.55945C87.2869 5.64297 87.596 5.73901 87.9885 5.84758C88.4812 5.98121 88.8821 6.11484 89.1911 6.24846C89.5001 6.37374 89.7632 6.56583 89.9804 6.82473C90.2059 7.08363 90.3228 7.42187 90.3311 7.83946C90.3311 8.21528 90.2267 8.55352 90.0179 8.85418C89.8092 9.15484 89.5127 9.39287 89.1285 9.56825C88.7527 9.73529 88.3184 9.8188 87.8256 9.8188ZM93.331 3.78055V7.82693C93.331 8.161 93.402 8.39902 93.5439 8.541C93.6859 8.67462 93.9323 8.74144 94.2831 8.74144H95.1224V9.70605H94.0952C93.4604 9.70605 92.9844 9.5599 92.667 9.26759C92.3497 8.97528 92.191 8.49506 92.191 7.82693V3.78055H91.3015V2.84098H92.191V1.11219H93.331V2.84098H95.1224V3.78055H93.331ZM97.6813 8.12759L96.2782 11.4975H95.514L96.4285 8.12759H97.6813ZM2.34755 22.7805V26.8269C2.34755 27.161 2.41854 27.399 2.56052 27.541C2.70249 27.6746 2.94887 27.7414 3.29964 27.7414H4.13898V28.7061H3.11173C2.477 28.7061 2.00095 28.5599 1.68359 28.2676C1.36623 27.9753 1.20755 27.4951 1.20755 26.8269V22.7805H0.318093V21.841H1.20755V20.1122H2.34755V21.841H4.13898V22.7805H2.34755ZM8.92772 21.7157C9.44552 21.7157 9.91321 21.8285 10.3308 22.054C10.7484 22.2711 11.0741 22.601 11.3079 23.0436C11.5501 23.4863 11.6712 24.0249 11.6712 24.6597V28.7061H10.5438V24.8225C10.5438 24.1377 10.3726 23.6157 10.0301 23.2566C9.68772 22.8891 9.22003 22.7054 8.62706 22.7054C8.02574 22.7054 7.54552 22.8933 7.18639 23.2691C6.83562 23.6449 6.66024 24.192 6.66024 24.9102V28.7061H5.52024V19.4357H6.66024V22.8181C6.88573 22.4674 7.19475 22.1959 7.58727 22.0038C7.98815 21.8118 8.43497 21.7157 8.92772 21.7157ZM19.7972 25.0104C19.7972 25.2276 19.7847 25.4573 19.7596 25.6995H14.2726C14.3143 26.3759 14.544 26.9063 14.9616 27.2904C15.3875 27.6663 15.9011 27.8542 16.5025 27.8542C16.9952 27.8542 17.4044 27.7414 17.7301 27.5159C18.0642 27.2821 18.2981 26.9731 18.4317 26.5889H19.6594C19.4756 27.2487 19.1082 27.7874 18.557 28.205C18.0058 28.6142 17.3209 28.8188 16.5025 28.8188C15.851 28.8188 15.2664 28.6726 14.7486 28.3803C14.2391 28.088 13.8383 27.6746 13.546 27.1401C13.2537 26.5973 13.1075 25.9709 13.1075 25.261C13.1075 24.5511 13.2495 23.9289 13.5334 23.3944C13.8174 22.8599 14.2141 22.4507 14.7235 22.1667C15.2413 21.8744 15.8343 21.7282 16.5025 21.7282C17.1539 21.7282 17.7301 21.8702 18.2312 22.1542C18.7323 22.4381 19.1165 22.8307 19.3838 23.3318C19.6594 23.8245 19.7972 24.3841 19.7972 25.0104ZM18.6196 24.7724C18.6196 24.3381 18.5236 23.9665 18.3315 23.6575C18.1394 23.3401 17.8763 23.1021 17.5422 22.9434C17.2165 22.7764 16.8532 22.6929 16.4523 22.6929C15.8761 22.6929 15.3833 22.8766 14.9741 23.2441C14.5732 23.6115 14.3435 24.121 14.2851 24.7724H18.6196ZM24.6468 21.7157C25.482 21.7157 26.1584 21.9704 26.6763 22.4799C27.1941 22.981 27.453 23.7076 27.453 24.6597V28.7061H26.3255V24.8225C26.3255 24.1377 26.1543 23.6157 25.8119 23.2566C25.4694 22.8891 25.0017 22.7054 24.4088 22.7054C23.8075 22.7054 23.3272 22.8933 22.9681 23.2691C22.6173 23.6449 22.442 24.192 22.442 24.9102V28.7061H21.302V21.841H22.442V22.8181C22.6675 22.4674 22.9723 22.1959 23.3565 22.0038C23.749 21.8118 24.1791 21.7157 24.6468 21.7157ZM33.795 23.1063C34.0205 22.7137 34.3546 22.388 34.7972 22.1291C35.2482 21.8619 35.7702 21.7282 36.3631 21.7282C36.9728 21.7282 37.524 21.8744 38.0168 22.1667C38.5179 22.459 38.9104 22.8724 39.1944 23.4069C39.4783 23.9331 39.6203 24.5469 39.6203 25.2485C39.6203 25.9417 39.4783 26.5597 39.1944 27.1025C38.9104 27.6454 38.5179 28.0672 38.0168 28.3678C37.524 28.6685 36.9728 28.8188 36.3631 28.8188C35.7785 28.8188 35.2607 28.6894 34.8097 28.4304C34.3671 28.1632 34.0289 27.8333 33.795 27.4408V31.9632H32.655V21.841H33.795V23.1063ZM38.4552 25.2485C38.4552 24.7307 38.3508 24.2797 38.142 23.8955C37.9333 23.5113 37.6493 23.219 37.2902 23.0186C36.9394 22.8181 36.5511 22.7179 36.1251 22.7179C35.7075 22.7179 35.3192 22.8223 34.9601 23.0311C34.6093 23.2315 34.3253 23.528 34.1082 23.9205C33.8994 24.3047 33.795 24.7515 33.795 25.261C33.795 25.7788 33.8994 26.234 34.1082 26.6265C34.3253 27.0107 34.6093 27.3072 34.9601 27.5159C35.3192 27.7164 35.7075 27.8166 36.1251 27.8166C36.5511 27.8166 36.9394 27.7164 37.2902 27.5159C37.6493 27.3072 37.9333 27.0107 38.142 26.6265C38.3508 26.234 38.4552 25.7746 38.4552 25.2485ZM40.6949 25.2485C40.6949 24.5469 40.8369 23.9331 41.1209 23.4069C41.4048 22.8724 41.7932 22.459 42.2859 22.1667C42.787 21.8744 43.3424 21.7282 43.9521 21.7282C44.5534 21.7282 45.0754 21.8577 45.518 22.1166C45.9606 22.3755 46.2905 22.7012 46.5077 23.0937V21.841H47.6602V28.7061H46.5077V27.4282C46.2822 27.8291 45.9439 28.1632 45.493 28.4304C45.0503 28.6894 44.5325 28.8188 43.9395 28.8188C43.3299 28.8188 42.7787 28.6685 42.2859 28.3678C41.7932 28.0672 41.4048 27.6454 41.1209 27.1025C40.8369 26.5597 40.6949 25.9417 40.6949 25.2485ZM46.5077 25.261C46.5077 24.7432 46.4033 24.2922 46.1945 23.908C45.9857 23.5238 45.7017 23.2315 45.3426 23.0311C44.9919 22.8223 44.6035 22.7179 44.1776 22.7179C43.7516 22.7179 43.3633 22.8181 43.0125 23.0186C42.6617 23.219 42.382 23.5113 42.1732 23.8955C41.9644 24.2797 41.86 24.7307 41.86 25.2485C41.86 25.7746 41.9644 26.234 42.1732 26.6265C42.382 27.0107 42.6617 27.3072 43.0125 27.5159C43.3633 27.7164 43.7516 27.8166 44.1776 27.8166C44.6035 27.8166 44.9919 27.7164 45.3426 27.5159C45.7017 27.3072 45.9857 27.0107 46.1945 26.6265C46.4033 26.234 46.5077 25.7788 46.5077 25.261ZM55.4997 21.841L51.3656 31.9382H50.188L51.541 28.6309L48.7724 21.841H50.0377L52.1924 27.4032L54.3221 21.841H55.4997ZM66.0739 21.841V28.7061H64.9339V27.6913C64.7167 28.0421 64.4119 28.3177 64.0194 28.5181C63.6352 28.7102 63.2093 28.8063 62.7416 28.8063C62.2071 28.8063 61.7268 28.6977 61.3009 28.4806C60.875 28.2551 60.5367 27.921 60.2862 27.4784C60.044 27.0357 59.9229 26.497 59.9229 25.8623V21.841H61.0503V25.712C61.0503 26.3885 61.2216 26.9104 61.564 27.2779C61.9064 27.637 62.3741 27.8166 62.9671 27.8166C63.5767 27.8166 64.0569 27.6287 64.4077 27.2529C64.7585 26.877 64.9339 26.33 64.9339 25.6118V21.841H66.0739ZM70.429 28.8188C69.9029 28.8188 69.431 28.7311 69.0134 28.5557C68.5959 28.372 68.266 28.1214 68.0238 27.8041C67.7816 27.4784 67.6479 27.1067 67.6229 26.6891H68.8005C68.8339 27.0315 68.9926 27.3113 69.2765 27.5285C69.5688 27.7456 69.9488 27.8542 70.4165 27.8542C70.8508 27.8542 71.1932 27.7581 71.4438 27.5661C71.6943 27.374 71.8196 27.1318 71.8196 26.8395C71.8196 26.5388 71.686 26.3175 71.4187 26.1755C71.1515 26.0252 70.7381 25.879 70.1785 25.737C69.669 25.6034 69.2515 25.4698 68.9257 25.3362C68.6084 25.1942 68.3328 24.9896 68.0989 24.7223C67.8734 24.4467 67.7607 24.0876 67.7607 23.6449C67.7607 23.2942 67.8651 22.9726 68.0739 22.6803C68.2827 22.388 68.5791 22.1583 68.9633 21.9913C69.3475 21.8159 69.786 21.7282 70.2787 21.7282C71.0387 21.7282 71.6526 21.9203 72.1203 22.3045C72.5879 22.6887 72.8385 23.2148 72.8719 23.883H71.7319C71.7068 23.5238 71.5607 23.2357 71.2934 23.0186C71.0345 22.8014 70.6838 22.6929 70.2411 22.6929C69.8319 22.6929 69.5062 22.7805 69.264 22.9559C69.0218 23.1313 68.9007 23.361 68.9007 23.6449C68.9007 23.8704 68.9717 24.0584 69.1137 24.2087C69.264 24.3507 69.4477 24.4676 69.6649 24.5595C69.8904 24.643 70.1994 24.739 70.5919 24.8476C71.0846 24.9812 71.4855 25.1148 71.7945 25.2485C72.1036 25.3737 72.3666 25.5658 72.5838 25.8247C72.8093 26.0836 72.9262 26.4219 72.9345 26.8395C72.9345 27.2153 72.8301 27.5535 72.6214 27.8542C72.4126 28.1548 72.1161 28.3929 71.7319 28.5683C71.3561 28.7353 70.9218 28.8188 70.429 28.8188ZM77.4577 25.2485C77.4577 24.5469 77.5997 23.9331 77.8837 23.4069C78.1676 22.8724 78.556 22.459 79.0487 22.1667C79.5498 21.8744 80.1052 21.7282 80.7149 21.7282C81.3162 21.7282 81.8382 21.8577 82.2808 22.1166C82.7235 22.3755 83.0534 22.7012 83.2705 23.0937V21.841H84.423V28.7061H83.2705V27.4282C83.045 27.8291 82.7068 28.1632 82.2558 28.4304C81.8131 28.6894 81.2953 28.8188 80.7024 28.8188C80.0927 28.8188 79.5415 28.6685 79.0487 28.3678C78.556 28.0672 78.1676 27.6454 77.8837 27.1025C77.5997 26.5597 77.4577 25.9417 77.4577 25.2485ZM83.2705 25.261C83.2705 24.7432 83.1661 24.2922 82.9573 23.908C82.7485 23.5238 82.4646 23.2315 82.1055 23.0311C81.7547 22.8223 81.3663 22.7179 80.9404 22.7179C80.5145 22.7179 80.1261 22.8181 79.7753 23.0186C79.4246 23.219 79.1448 23.5113 78.936 23.8955C78.7272 24.2797 78.6228 24.7307 78.6228 25.2485C78.6228 25.7746 78.7272 26.234 78.936 26.6265C79.1448 27.0107 79.4246 27.3072 79.7753 27.5159C80.1261 27.7164 80.5145 27.8166 80.9404 27.8166C81.3663 27.8166 81.7547 27.7164 82.1055 27.5159C82.4646 27.3072 82.7485 27.0107 82.9573 26.6265C83.1661 26.234 83.2705 25.7788 83.2705 25.261ZM89.1432 22.7805H87.7025V28.7061H86.5625V22.7805H85.6731V21.841H86.5625V21.3524C86.5625 20.5841 86.7588 20.0245 87.1513 19.6737C87.5522 19.3146 88.1911 19.135 89.068 19.135V20.0871C88.5669 20.0871 88.212 20.1874 88.0032 20.3878C87.8027 20.5799 87.7025 20.9014 87.7025 21.3524V21.841H89.1432V22.7805ZM91.8629 22.7805V26.8269C91.8629 27.161 91.9339 27.399 92.0759 27.541C92.2179 27.6746 92.4642 27.7414 92.815 27.7414H93.6543V28.7061H92.6271C91.9924 28.7061 91.5163 28.5599 91.199 28.2676C90.8816 27.9753 90.7229 27.4951 90.7229 26.8269V22.7805H89.8335V21.841H90.7229V20.1122H91.8629V21.841H93.6543V22.7805H91.8629ZM101.299 25.0104C101.299 25.2276 101.287 25.4573 101.262 25.6995H95.7747C95.8165 26.3759 96.0462 26.9063 96.4637 27.2904C96.8897 27.6663 97.4033 27.8542 98.0046 27.8542C98.4974 27.8542 98.9066 27.7414 99.2323 27.5159C99.5664 27.2821 99.8002 26.9731 99.9339 26.5889H101.162C100.978 27.2487 100.61 27.7874 100.059 28.205C99.5079 28.6142 98.8231 28.8188 98.0046 28.8188C97.3532 28.8188 96.7686 28.6726 96.2508 28.3803C95.7413 28.088 95.3404 27.6746 95.0481 27.1401C94.7558 26.5973 94.6097 25.9709 94.6097 25.261C94.6097 24.5511 94.7516 23.9289 95.0356 23.3944C95.3196 22.8599 95.7163 22.4507 96.2257 22.1667C96.7435 21.8744 97.3365 21.7282 98.0046 21.7282C98.656 21.7282 99.2323 21.8702 99.7334 22.1542C100.235 22.4381 100.619 22.8307 100.886 23.3318C101.162 23.8245 101.299 24.3841 101.299 25.0104ZM100.122 24.7724C100.122 24.3381 100.026 23.9665 99.8336 23.6575C99.6415 23.3401 99.3785 23.1021 99.0444 22.9434C98.7187 22.7764 98.3554 22.6929 97.9545 22.6929C97.3782 22.6929 96.8855 22.8766 96.4763 23.2441C96.0754 23.6115 95.8457 24.121 95.7873 24.7724H100.122ZM103.944 22.9559C104.145 22.5634 104.429 22.2586 104.796 22.0414C105.172 21.8243 105.627 21.7157 106.161 21.7157V22.8933H105.861C104.583 22.8933 103.944 23.5865 103.944 24.9729V28.7061H102.804V21.841H103.944V22.9559ZM107.841 28.7812C107.624 28.7812 107.44 28.7061 107.29 28.5557C107.139 28.4054 107.064 28.2217 107.064 28.0045C107.064 27.7874 107.139 27.6036 107.29 27.4533C107.44 27.303 107.624 27.2278 107.841 27.2278C108.05 27.2278 108.225 27.303 108.367 27.4533C108.517 27.6036 108.592 27.7874 108.592 28.0045C108.592 28.2217 108.517 28.4054 108.367 28.5557C108.225 28.7061 108.05 28.7812 107.841 28.7812Z" fill="white" fill-opacity="0.7"/>
</svg>
