<svg width="528" height="111" viewBox="0 0 528 111" fill="none" xmlns="http://www.w3.org/2000/svg">
<path d="M30.968 38H24.248L9.032 15.008V38H2.312V4.448H9.032L24.248 27.488V4.448H30.968V38ZM49.4169 38.432C46.8569 38.432 44.5529 37.872 42.5049 36.752C40.4569 35.6 38.8409 33.984 37.6569 31.904C36.5049 29.824 35.9289 27.424 35.9289 24.704C35.9289 21.984 36.5209 19.584 37.7049 17.504C38.9209 15.424 40.5689 13.824 42.6489 12.704C44.7289 11.552 47.0489 10.976 49.6089 10.976C52.1689 10.976 54.4889 11.552 56.5689 12.704C58.6489 13.824 60.2809 15.424 61.4649 17.504C62.6809 19.584 63.2889 21.984 63.2889 24.704C63.2889 27.424 62.6649 29.824 61.4169 31.904C60.2009 33.984 58.5369 35.6 56.4249 36.752C54.3449 37.872 52.0089 38.432 49.4169 38.432ZM49.4169 32.576C50.6329 32.576 51.7689 32.288 52.8249 31.712C53.9129 31.104 54.7769 30.208 55.4169 29.024C56.0569 27.84 56.3769 26.4 56.3769 24.704C56.3769 22.176 55.7049 20.24 54.3609 18.896C53.0489 17.52 51.4329 16.832 49.5129 16.832C47.5929 16.832 45.9769 17.52 44.6649 18.896C43.3849 20.24 42.7449 22.176 42.7449 24.704C42.7449 27.232 43.3689 29.184 44.6169 30.56C45.8969 31.904 47.4969 32.576 49.4169 32.576ZM90.0718 10.976C92.0558 10.976 93.7998 11.376 95.3038 12.176C96.8078 12.944 97.9918 13.952 98.8558 15.2V11.408H105.624V38.192C105.624 40.656 105.128 42.848 104.136 44.768C103.144 46.72 101.656 48.256 99.6718 49.376C97.6878 50.528 95.2878 51.104 92.4718 51.104C88.6958 51.104 85.5918 50.224 83.1598 48.464C80.7598 46.704 79.3998 44.304 79.0798 41.264H85.7518C86.1038 42.48 86.8558 43.44 88.0078 44.144C89.1918 44.88 90.6158 45.248 92.2798 45.248C94.2318 45.248 95.8158 44.656 97.0318 43.472C98.2478 42.32 98.8558 40.56 98.8558 38.192V34.064C97.9918 35.312 96.7918 36.352 95.2558 37.184C93.7518 38.016 92.0238 38.432 90.0718 38.432C87.8318 38.432 85.7838 37.856 83.9278 36.704C82.0718 35.552 80.5998 33.936 79.5117 31.856C78.4557 29.744 77.9277 27.328 77.9277 24.608C77.9277 21.92 78.4557 19.536 79.5117 17.456C80.5998 15.376 82.0558 13.776 83.8798 12.656C85.7358 11.536 87.7998 10.976 90.0718 10.976ZM98.8558 24.704C98.8558 23.072 98.5358 21.68 97.8958 20.528C97.2558 19.344 96.3918 18.448 95.3038 17.84C94.2158 17.2 93.0478 16.88 91.7998 16.88C90.5518 16.88 89.3998 17.184 88.3438 17.792C87.2878 18.4 86.4238 19.296 85.7518 20.48C85.1118 21.632 84.7918 23.008 84.7918 24.608C84.7918 26.208 85.1118 27.616 85.7518 28.832C86.4238 30.016 87.2878 30.928 88.3438 31.568C89.4318 32.208 90.5838 32.528 91.7998 32.528C93.0478 32.528 94.2158 32.224 95.3038 31.616C96.3918 30.976 97.2558 30.08 97.8958 28.928C98.5358 27.744 98.8558 26.336 98.8558 24.704ZM110.459 24.608C110.459 21.92 110.987 19.536 112.043 17.456C113.131 15.376 114.587 13.776 116.411 12.656C118.267 11.536 120.331 10.976 122.603 10.976C124.587 10.976 126.315 11.376 127.787 12.176C129.291 12.976 130.491 13.984 131.387 15.2V11.408H138.155V38H131.387V34.112C130.523 35.36 129.323 36.4 127.787 37.232C126.283 38.032 124.539 38.432 122.555 38.432C120.315 38.432 118.267 37.856 116.411 36.704C114.587 35.552 113.131 33.936 112.043 31.856C110.987 29.744 110.459 27.328 110.459 24.608ZM131.387 24.704C131.387 23.072 131.067 21.68 130.427 20.528C129.787 19.344 128.923 18.448 127.835 17.84C126.747 17.2 125.579 16.88 124.331 16.88C123.083 16.88 121.931 17.184 120.875 17.792C119.819 18.4 118.955 19.296 118.283 20.48C117.643 21.632 117.323 23.008 117.323 24.608C117.323 26.208 117.643 27.616 118.283 28.832C118.955 30.016 119.819 30.928 120.875 31.568C121.963 32.208 123.115 32.528 124.331 32.528C125.579 32.528 126.747 32.224 127.835 31.616C128.923 30.976 129.787 30.08 130.427 28.928C131.067 27.744 131.387 26.336 131.387 24.704ZM154.894 38.432C152.718 38.432 150.766 38.048 149.038 37.28C147.31 36.48 145.934 35.408 144.91 34.064C143.918 32.72 143.374 31.232 143.278 29.6H150.046C150.174 30.624 150.67 31.472 151.534 32.144C152.43 32.816 153.534 33.152 154.846 33.152C156.126 33.152 157.118 32.896 157.822 32.384C158.558 31.872 158.926 31.216 158.926 30.416C158.926 29.552 158.478 28.912 157.582 28.496C156.718 28.048 155.326 27.568 153.406 27.056C151.422 26.576 149.79 26.08 148.51 25.568C147.262 25.056 146.174 24.272 145.246 23.216C144.35 22.16 143.902 20.736 143.902 18.944C143.902 17.472 144.318 16.128 145.15 14.912C146.014 13.696 147.23 12.736 148.798 12.032C150.398 11.328 152.27 10.976 154.414 10.976C157.582 10.976 160.11 11.776 161.998 13.376C163.886 14.944 164.926 17.072 165.118 19.76H158.686C158.59 18.704 158.142 17.872 157.342 17.264C156.574 16.624 155.534 16.304 154.222 16.304C153.006 16.304 152.062 16.528 151.39 16.976C150.75 17.424 150.43 18.048 150.43 18.848C150.43 19.744 150.878 20.432 151.774 20.912C152.67 21.36 154.062 21.824 155.95 22.304C157.87 22.784 159.454 23.28 160.702 23.792C161.95 24.304 163.022 25.104 163.918 26.192C164.846 27.248 165.326 28.656 165.358 30.416C165.358 31.952 164.926 33.328 164.062 34.544C163.23 35.76 162.014 36.72 160.414 37.424C158.846 38.096 157.006 38.432 154.894 38.432ZM194.504 16.928H189.848V38H183.032V16.928H180.008V11.408H183.032V10.064C183.032 6.8 183.96 4.4 185.816 2.864C187.672 1.328 190.472 0.607999 194.216 0.704V6.368C192.584 6.336 191.448 6.608 190.808 7.184C190.168 7.76 189.848 8.8 189.848 10.304V11.408H194.504V16.928ZM223.579 24.128C223.579 25.088 223.515 25.952 223.387 26.72H203.947C204.107 28.64 204.779 30.144 205.963 31.232C207.147 32.32 208.603 32.864 210.331 32.864C212.827 32.864 214.603 31.792 215.659 29.648H222.907C222.139 32.208 220.667 34.32 218.491 35.984C216.315 37.616 213.643 38.432 210.475 38.432C207.915 38.432 205.611 37.872 203.563 36.752C201.547 35.6 199.963 33.984 198.811 31.904C197.691 29.824 197.131 27.424 197.131 24.704C197.131 21.952 197.691 19.536 198.811 17.456C199.931 15.376 201.499 13.776 203.515 12.656C205.531 11.536 207.851 10.976 210.475 10.976C213.003 10.976 215.259 11.52 217.243 12.608C219.259 13.696 220.811 15.248 221.899 17.264C223.019 19.248 223.579 21.536 223.579 24.128ZM216.619 22.208C216.587 20.48 215.963 19.104 214.747 18.08C213.531 17.024 212.043 16.496 210.283 16.496C208.619 16.496 207.211 17.008 206.059 18.032C204.939 19.024 204.251 20.416 203.995 22.208H216.619ZM253.204 24.128C253.204 25.088 253.14 25.952 253.012 26.72H233.572C233.732 28.64 234.404 30.144 235.588 31.232C236.772 32.32 238.228 32.864 239.956 32.864C242.452 32.864 244.228 31.792 245.284 29.648H252.532C251.764 32.208 250.292 34.32 248.116 35.984C245.94 37.616 243.268 38.432 240.1 38.432C237.54 38.432 235.236 37.872 233.188 36.752C231.172 35.6 229.588 33.984 228.436 31.904C227.316 29.824 226.756 27.424 226.756 24.704C226.756 21.952 227.316 19.536 228.436 17.456C229.556 15.376 231.124 13.776 233.14 12.656C235.156 11.536 237.476 10.976 240.1 10.976C242.628 10.976 244.884 11.52 246.868 12.608C248.884 13.696 250.436 15.248 251.524 17.264C252.644 19.248 253.204 21.536 253.204 24.128ZM246.244 22.208C246.212 20.48 245.588 19.104 244.372 18.08C243.156 17.024 241.668 16.496 239.908 16.496C238.244 16.496 236.836 17.008 235.684 18.032C234.564 19.024 233.876 20.416 233.62 22.208H246.244ZM268.285 38.432C266.109 38.432 264.157 38.048 262.429 37.28C260.701 36.48 259.325 35.408 258.301 34.064C257.309 32.72 256.765 31.232 256.669 29.6H263.437C263.565 30.624 264.061 31.472 264.925 32.144C265.821 32.816 266.925 33.152 268.237 33.152C269.517 33.152 270.509 32.896 271.213 32.384C271.949 31.872 272.317 31.216 272.317 30.416C272.317 29.552 271.869 28.912 270.973 28.496C270.109 28.048 268.717 27.568 266.797 27.056C264.813 26.576 263.181 26.08 261.901 25.568C260.653 25.056 259.565 24.272 258.637 23.216C257.741 22.16 257.293 20.736 257.293 18.944C257.293 17.472 257.709 16.128 258.541 14.912C259.405 13.696 260.621 12.736 262.189 12.032C263.789 11.328 265.661 10.976 267.805 10.976C270.973 10.976 273.501 11.776 275.389 13.376C277.277 14.944 278.317 17.072 278.509 19.76H272.077C271.981 18.704 271.533 17.872 270.733 17.264C269.965 16.624 268.925 16.304 267.613 16.304C266.397 16.304 265.453 16.528 264.781 16.976C264.141 17.424 263.821 18.048 263.821 18.848C263.821 19.744 264.269 20.432 265.165 20.912C266.061 21.36 267.453 21.824 269.341 22.304C271.261 22.784 272.845 23.28 274.093 23.792C275.341 24.304 276.413 25.104 277.309 26.192C278.237 27.248 278.717 28.656 278.749 30.416C278.749 31.952 278.317 33.328 277.453 34.544C276.621 35.76 275.405 36.72 273.805 37.424C272.237 38.096 270.397 38.432 268.285 38.432ZM293.975 24.608C293.975 21.92 294.503 19.536 295.559 17.456C296.647 15.376 298.103 13.776 299.927 12.656C301.783 11.536 303.847 10.976 306.119 10.976C308.103 10.976 309.831 11.376 311.303 12.176C312.807 12.976 314.007 13.984 314.903 15.2V11.408H321.671V38H314.903V34.112C314.039 35.36 312.839 36.4 311.303 37.232C309.799 38.032 308.055 38.432 306.071 38.432C303.831 38.432 301.783 37.856 299.927 36.704C298.103 35.552 296.647 33.936 295.559 31.856C294.503 29.744 293.975 27.328 293.975 24.608ZM314.903 24.704C314.903 23.072 314.583 21.68 313.943 20.528C313.303 19.344 312.439 18.448 311.351 17.84C310.263 17.2 309.095 16.88 307.847 16.88C306.599 16.88 305.447 17.184 304.391 17.792C303.335 18.4 302.471 19.296 301.799 20.48C301.159 21.632 300.839 23.008 300.839 24.608C300.839 26.208 301.159 27.616 301.799 28.832C302.471 30.016 303.335 30.928 304.391 31.568C305.479 32.208 306.631 32.528 307.847 32.528C309.095 32.528 310.263 32.224 311.351 31.616C312.439 30.976 313.303 30.08 313.943 28.928C314.583 27.744 314.903 26.336 314.903 24.704ZM336.058 16.928V29.792C336.058 30.688 336.266 31.344 336.682 31.76C337.13 32.144 337.866 32.336 338.89 32.336H342.01V38H337.786C332.122 38 329.29 35.248 329.29 29.744V16.928H326.122V11.408H329.29V4.832H336.058V11.408H342.01V16.928H336.058ZM354.667 16.928V29.792C354.667 30.688 354.875 31.344 355.291 31.76C355.739 32.144 356.475 32.336 357.499 32.336H360.619V38H356.395C350.731 38 347.899 35.248 347.899 29.744V16.928H344.731V11.408H347.899V4.832H354.667V11.408H360.619V16.928H354.667ZM363.725 24.608C363.725 21.92 364.253 19.536 365.309 17.456C366.397 15.376 367.853 13.776 369.677 12.656C371.533 11.536 373.597 10.976 375.869 10.976C377.853 10.976 379.581 11.376 381.053 12.176C382.557 12.976 383.757 13.984 384.653 15.2V11.408H391.421V38H384.653V34.112C383.789 35.36 382.589 36.4 381.053 37.232C379.549 38.032 377.805 38.432 375.821 38.432C373.581 38.432 371.533 37.856 369.677 36.704C367.853 35.552 366.397 33.936 365.309 31.856C364.253 29.744 363.725 27.328 363.725 24.608ZM384.653 24.704C384.653 23.072 384.333 21.68 383.693 20.528C383.053 19.344 382.189 18.448 381.101 17.84C380.013 17.2 378.845 16.88 377.597 16.88C376.349 16.88 375.197 17.184 374.141 17.792C373.085 18.4 372.221 19.296 371.549 20.48C370.909 21.632 370.589 23.008 370.589 24.608C370.589 26.208 370.909 27.616 371.549 28.832C372.221 30.016 373.085 30.928 374.141 31.568C375.229 32.208 376.381 32.528 377.597 32.528C378.845 32.528 380.013 32.224 381.101 31.616C382.189 30.976 383.053 30.08 383.693 28.928C384.333 27.744 384.653 26.336 384.653 24.704ZM396.256 24.704C396.256 21.952 396.816 19.552 397.936 17.504C399.056 15.424 400.608 13.824 402.592 12.704C404.576 11.552 406.848 10.976 409.408 10.976C412.704 10.976 415.424 11.808 417.568 13.472C419.744 15.104 421.2 17.408 421.936 20.384H414.688C414.304 19.232 413.648 18.336 412.72 17.696C411.824 17.024 410.704 16.688 409.36 16.688C407.44 16.688 405.92 17.392 404.8 18.8C403.68 20.176 403.12 22.144 403.12 24.704C403.12 27.232 403.68 29.2 404.8 30.608C405.92 31.984 407.44 32.672 409.36 32.672C412.08 32.672 413.856 31.456 414.688 29.024H421.936C421.2 31.904 419.744 34.192 417.568 35.888C415.392 37.584 412.672 38.432 409.408 38.432C406.848 38.432 404.576 37.872 402.592 36.752C400.608 35.6 399.056 34 397.936 31.952C396.816 29.872 396.256 27.456 396.256 24.704ZM441.835 11.024C443.851 11.024 445.643 11.472 447.211 12.368C448.779 13.232 449.995 14.528 450.859 16.256C451.755 17.952 452.203 20 452.203 22.4V38H445.483V23.312C445.483 21.2 444.955 19.584 443.899 18.464C442.843 17.312 441.403 16.736 439.579 16.736C437.723 16.736 436.251 17.312 435.163 18.464C434.107 19.584 433.579 21.2 433.579 23.312V38H426.859V2.48H433.579V14.72C434.443 13.568 435.595 12.672 437.035 12.032C438.475 11.36 440.075 11.024 441.835 11.024ZM483.313 24.128C483.313 25.088 483.249 25.952 483.121 26.72H463.681C463.841 28.64 464.513 30.144 465.697 31.232C466.881 32.32 468.337 32.864 470.065 32.864C472.561 32.864 474.337 31.792 475.393 29.648H482.641C481.873 32.208 480.401 34.32 478.225 35.984C476.049 37.616 473.377 38.432 470.209 38.432C467.649 38.432 465.345 37.872 463.297 36.752C461.281 35.6 459.697 33.984 458.545 31.904C457.425 29.824 456.865 27.424 456.865 24.704C456.865 21.952 457.425 19.536 458.545 17.456C459.665 15.376 461.233 13.776 463.249 12.656C465.265 11.536 467.585 10.976 470.209 10.976C472.737 10.976 474.993 11.52 476.977 12.608C478.993 13.696 480.545 15.248 481.633 17.264C482.753 19.248 483.313 21.536 483.313 24.128ZM476.353 22.208C476.321 20.48 475.697 19.104 474.481 18.08C473.265 17.024 471.777 16.496 470.017 16.496C468.353 16.496 466.945 17.008 465.793 18.032C464.673 19.024 463.985 20.416 463.729 22.208H476.353ZM486.49 24.608C486.49 21.92 487.018 19.536 488.074 17.456C489.162 15.376 490.634 13.776 492.49 12.656C494.346 11.536 496.41 10.976 498.682 10.976C500.41 10.976 502.058 11.36 503.626 12.128C505.194 12.864 506.442 13.856 507.37 15.104V2.48H514.186V38H507.37V34.064C506.538 35.376 505.37 36.432 503.866 37.232C502.362 38.032 500.618 38.432 498.634 38.432C496.394 38.432 494.346 37.856 492.49 36.704C490.634 35.552 489.162 33.936 488.074 31.856C487.018 29.744 486.49 27.328 486.49 24.608ZM507.418 24.704C507.418 23.072 507.098 21.68 506.458 20.528C505.818 19.344 504.954 18.448 503.866 17.84C502.778 17.2 501.61 16.88 500.362 16.88C499.114 16.88 497.962 17.184 496.906 17.792C495.85 18.4 494.986 19.296 494.314 20.48C493.674 21.632 493.354 23.008 493.354 24.608C493.354 26.208 493.674 27.616 494.314 28.832C494.986 30.016 495.85 30.928 496.906 31.568C497.994 32.208 499.146 32.528 500.362 32.528C501.61 32.528 502.778 32.224 503.866 31.616C504.954 30.976 505.818 30.08 506.458 28.928C507.098 27.744 507.418 26.336 507.418 24.704ZM523.726 38.336C522.51 38.336 521.502 37.968 520.702 37.232C519.934 36.464 519.55 35.52 519.55 34.4C519.55 33.28 519.934 32.352 520.702 31.616C521.502 30.848 522.51 30.464 523.726 30.464C524.91 30.464 525.886 30.848 526.654 31.616C527.422 32.352 527.806 33.28 527.806 34.4C527.806 35.52 527.422 36.464 526.654 37.232C525.886 37.968 524.91 38.336 523.726 38.336Z" fill="white"/>
<path d="M21.848 76.496V100.016C21.848 103.28 20.904 105.824 19.016 107.648C17.128 109.44 14.6 110.336 11.432 110.336C8.232 110.336 5.64 109.408 3.656 107.552C1.704 105.696 0.728 103.104 0.728 99.776H7.448C7.48 101.216 7.816 102.336 8.456 103.136C9.128 103.936 10.088 104.336 11.336 104.336C12.552 104.336 13.48 103.952 14.12 103.184C14.76 102.416 15.08 101.36 15.08 100.016V76.496H21.848ZM54.791 83.408V110H48.023V106.64C47.159 107.792 46.023 108.704 44.615 109.376C43.239 110.016 41.735 110.336 40.103 110.336C38.023 110.336 36.183 109.904 34.583 109.04C32.983 108.144 31.719 106.848 30.791 105.152C29.895 103.424 29.447 101.376 29.447 99.008V83.408H36.167V98.048C36.167 100.16 36.695 101.792 37.751 102.944C38.807 104.064 40.247 104.624 42.071 104.624C43.927 104.624 45.383 104.064 46.439 102.944C47.495 101.792 48.023 100.16 48.023 98.048V83.408H54.791ZM71.5974 110.432C69.4214 110.432 67.4694 110.048 65.7414 109.28C64.0134 108.48 62.6374 107.408 61.6134 106.064C60.6214 104.72 60.0774 103.232 59.9814 101.6H66.7494C66.8774 102.624 67.3734 103.472 68.2374 104.144C69.1334 104.816 70.2374 105.152 71.5494 105.152C72.8294 105.152 73.8214 104.896 74.5254 104.384C75.2614 103.872 75.6294 103.216 75.6294 102.416C75.6294 101.552 75.1814 100.912 74.2854 100.496C73.4214 100.048 72.0294 99.568 70.1094 99.056C68.1254 98.576 66.4934 98.08 65.2134 97.568C63.9654 97.056 62.8774 96.272 61.9494 95.216C61.0534 94.16 60.6054 92.736 60.6054 90.944C60.6054 89.472 61.0214 88.128 61.8534 86.912C62.7174 85.696 63.9334 84.736 65.5014 84.032C67.1014 83.328 68.9734 82.976 71.1174 82.976C74.2854 82.976 76.8134 83.776 78.7014 85.376C80.5894 86.944 81.6294 89.072 81.8214 91.76H75.3894C75.2934 90.704 74.8454 89.872 74.0454 89.264C73.2774 88.624 72.2374 88.304 70.9254 88.304C69.7094 88.304 68.7654 88.528 68.0934 88.976C67.4534 89.424 67.1334 90.048 67.1334 90.848C67.1334 91.744 67.5814 92.432 68.4774 92.912C69.3734 93.36 70.7654 93.824 72.6534 94.304C74.5734 94.784 76.1574 95.28 77.4054 95.792C78.6534 96.304 79.7254 97.104 80.6214 98.192C81.5494 99.248 82.0294 100.656 82.0614 102.416C82.0614 103.952 81.6294 105.328 80.7654 106.544C79.9334 107.76 78.7174 108.72 77.1174 109.424C75.5494 110.096 73.7094 110.432 71.5974 110.432ZM95.4016 88.928V101.792C95.4016 102.688 95.6096 103.344 96.0256 103.76C96.4736 104.144 97.2096 104.336 98.2336 104.336H101.354V110H97.1296C91.4656 110 88.6336 107.248 88.6336 101.744V88.928H85.4656V83.408H88.6336V76.832H95.4016V83.408H101.354V88.928H95.4016ZM127.801 110.432C125.625 110.432 123.673 110.048 121.945 109.28C120.217 108.48 118.841 107.408 117.817 106.064C116.825 104.72 116.281 103.232 116.185 101.6H122.953C123.081 102.624 123.577 103.472 124.441 104.144C125.337 104.816 126.441 105.152 127.753 105.152C129.033 105.152 130.025 104.896 130.729 104.384C131.465 103.872 131.833 103.216 131.833 102.416C131.833 101.552 131.385 100.912 130.489 100.496C129.625 100.048 128.233 99.568 126.312 99.056C124.329 98.576 122.697 98.08 121.417 97.568C120.169 97.056 119.081 96.272 118.153 95.216C117.257 94.16 116.809 92.736 116.809 90.944C116.809 89.472 117.225 88.128 118.057 86.912C118.921 85.696 120.137 84.736 121.705 84.032C123.305 83.328 125.177 82.976 127.321 82.976C130.489 82.976 133.017 83.776 134.905 85.376C136.793 86.944 137.833 89.072 138.025 91.76H131.593C131.497 90.704 131.049 89.872 130.249 89.264C129.481 88.624 128.441 88.304 127.129 88.304C125.913 88.304 124.969 88.528 124.297 88.976C123.657 89.424 123.337 90.048 123.337 90.848C123.337 91.744 123.785 92.432 124.681 92.912C125.577 93.36 126.969 93.824 128.857 94.304C130.777 94.784 132.361 95.28 133.609 95.792C134.857 96.304 135.929 97.104 136.825 98.192C137.753 99.248 138.233 100.656 138.265 102.416C138.265 103.952 137.833 105.328 136.969 106.544C136.137 107.76 134.921 108.72 133.321 109.424C131.753 110.096 129.913 110.432 127.801 110.432ZM168.501 96.128C168.501 97.088 168.437 97.952 168.309 98.72H148.869C149.029 100.64 149.701 102.144 150.885 103.232C152.069 104.32 153.525 104.864 155.253 104.864C157.749 104.864 159.525 103.792 160.581 101.648H167.829C167.061 104.208 165.589 106.32 163.413 107.984C161.237 109.616 158.565 110.432 155.397 110.432C152.837 110.432 150.533 109.872 148.485 108.752C146.469 107.6 144.885 105.984 143.733 103.904C142.613 101.824 142.053 99.424 142.053 96.704C142.053 93.952 142.613 91.536 143.733 89.456C144.853 87.376 146.421 85.776 148.437 84.656C150.453 83.536 152.773 82.976 155.397 82.976C157.925 82.976 160.181 83.52 162.165 84.608C164.181 85.696 165.733 87.248 166.821 89.264C167.941 91.248 168.501 93.536 168.501 96.128ZM161.541 94.208C161.509 92.48 160.885 91.104 159.669 90.08C158.453 89.024 156.965 88.496 155.205 88.496C153.541 88.496 152.133 89.008 150.981 90.032C149.861 91.024 149.173 92.416 148.917 94.208H161.541ZM180.126 74.48V110H173.406V74.48H180.126ZM193.485 74.48V110H186.765V74.48H193.485ZM203.101 110.336C201.885 110.336 200.877 109.968 200.077 109.232C199.309 108.464 198.925 107.52 198.925 106.4C198.925 105.28 199.309 104.352 200.077 103.616C200.877 102.848 201.885 102.464 203.101 102.464C204.285 102.464 205.261 102.848 206.029 103.616C206.797 104.352 207.181 105.28 207.181 106.4C207.181 107.52 206.797 108.464 206.029 109.232C205.261 109.968 204.285 110.336 203.101 110.336Z" fill="url(#paint0_linear_9_92)"/>
<defs>
<linearGradient id="paint0_linear_9_92" x1="-1" y1="86.5" x2="204.5" y2="86.5" gradientUnits="userSpaceOnUse">
<stop stop-color="#FEAA69"/>
<stop offset="1" stop-color="#7B56C9"/>
</linearGradient>
</defs>
</svg>
