<svg width="60" height="14" viewBox="0 0 60 14" fill="none" xmlns="http://www.w3.org/2000/svg">
<path d="M7.23327 3.9615C7.23327 4.42919 7.12053 4.86766 6.89503 5.27689C6.67789 5.68612 6.33129 6.01601 5.85525 6.26656C5.38756 6.51711 4.79459 6.64239 4.07634 6.64239H2.61063V9.99976H0.856776V1.25556H4.07634C4.75283 1.25556 5.32909 1.37248 5.80514 1.60633C6.28118 1.84018 6.63613 2.16172 6.86998 2.57095C7.11218 2.98018 7.23327 3.4437 7.23327 3.9615ZM4.00118 5.22678C4.48558 5.22678 4.8447 5.11821 5.07854 4.90106C5.31239 4.67557 5.42931 4.36238 5.42931 3.9615C5.42931 3.10963 4.95327 2.68369 4.00118 2.68369H2.61063V5.22678H4.00118ZM8.0275 6.50458C8.0275 5.80304 8.1653 5.18084 8.44091 4.63798C8.72486 4.09513 9.10486 3.67754 9.58091 3.38523C10.0653 3.09293 10.604 2.94677 11.197 2.94677C11.7148 2.94677 12.1658 3.05117 12.5499 3.25996C12.9425 3.46875 13.2556 3.73183 13.4895 4.04919V3.05952H15.2559V9.99976H13.4895V8.98503C13.264 9.31074 12.9508 9.58217 12.5499 9.79932C12.1574 10.0081 11.7022 10.1125 11.1844 10.1125C10.5998 10.1125 10.0653 9.96217 9.58091 9.66151C9.10486 9.36085 8.72486 8.93909 8.44091 8.39624C8.1653 7.84503 8.0275 7.21447 8.0275 6.50458ZM13.4895 6.52964C13.4895 6.1037 13.406 5.7404 13.2389 5.43974C13.0719 5.13073 12.8464 4.89689 12.5625 4.7382C12.2785 4.57117 11.9737 4.48765 11.6479 4.48765C11.3222 4.48765 11.0216 4.567 10.746 4.72568C10.4704 4.88436 10.2449 5.11821 10.0695 5.42722C9.90245 5.72788 9.81893 6.087 9.81893 6.50458C9.81893 6.92217 9.90245 7.28964 10.0695 7.607C10.2449 7.91601 10.4704 8.15404 10.746 8.32107C11.0299 8.4881 11.3306 8.57162 11.6479 8.57162C11.9737 8.57162 12.2785 8.49228 12.5625 8.3336C12.8464 8.16656 13.0719 7.93272 13.2389 7.63206C13.406 7.32305 13.4895 6.95557 13.4895 6.52964ZM23.6084 3.05952L19.3115 13.282H17.4449L18.9482 9.82437L16.167 3.05952H18.1339L19.9253 7.90766L21.7418 3.05952H23.6084ZM29.2927 0.729404V9.99976H27.5389V0.729404H29.2927ZM30.5746 6.50458C30.5746 5.80304 30.7124 5.18084 30.988 4.63798C31.2719 4.09513 31.6519 3.67754 32.128 3.38523C32.6124 3.09293 33.151 2.94677 33.744 2.94677C34.2618 2.94677 34.7128 3.05117 35.097 3.25996C35.4895 3.46875 35.8027 3.73183 36.0365 4.04919V3.05952H37.8029V9.99976H36.0365V8.98503C35.8111 9.31074 35.4979 9.58217 35.097 9.79932C34.7045 10.0081 34.2493 10.1125 33.7315 10.1125C33.1469 10.1125 32.6124 9.96217 32.128 9.66151C31.6519 9.36085 31.2719 8.93909 30.988 8.39624C30.7124 7.84503 30.5746 7.21447 30.5746 6.50458ZM36.0365 6.52964C36.0365 6.1037 35.953 5.7404 35.786 5.43974C35.619 5.13073 35.3935 4.89689 35.1095 4.7382C34.8256 4.57117 34.5207 4.48765 34.195 4.48765C33.8693 4.48765 33.5686 4.567 33.293 4.72568C33.0174 4.88436 32.7919 5.11821 32.6165 5.42722C32.4495 5.72788 32.366 6.087 32.366 6.50458C32.366 6.92217 32.4495 7.28964 32.6165 7.607C32.7919 7.91601 33.0174 8.15404 33.293 8.32107C33.577 8.4881 33.8776 8.57162 34.195 8.57162C34.5207 8.57162 34.8256 8.49228 35.1095 8.3336C35.3935 8.16656 35.619 7.93272 35.786 7.63206C35.953 7.32305 36.0365 6.95557 36.0365 6.52964ZM41.5578 4.50018V7.85755C41.5578 8.0914 41.6121 8.26261 41.7207 8.37118C41.8376 8.4714 42.0297 8.52151 42.297 8.52151H43.1113V9.99976H42.0088C40.5306 9.99976 39.7915 9.28151 39.7915 7.84503V4.50018H38.9647V3.05952H39.7915V1.34325H41.5578V3.05952H43.1113V4.50018H41.5578ZM50.8244 6.37931C50.8244 6.62986 50.8077 6.85535 50.7743 7.05579H45.7006C45.7424 7.55689 45.9178 7.94942 46.2268 8.23338C46.5358 8.51733 46.9158 8.65931 47.3668 8.65931C48.0182 8.65931 48.4817 8.37953 48.7573 7.81997H50.649C50.4486 8.4881 50.0644 9.03931 49.4965 9.4736C48.9286 9.89954 48.2312 10.1125 47.4044 10.1125C46.7362 10.1125 46.1349 9.96635 45.6004 9.67404C45.0743 9.37338 44.6609 8.95162 44.3602 8.40876C44.0679 7.8659 43.9217 7.23953 43.9217 6.52964C43.9217 5.81139 44.0679 5.18084 44.3602 4.63798C44.6525 4.09513 45.0617 3.67754 45.5879 3.38523C46.114 3.09293 46.7195 2.94677 47.4044 2.94677C48.0642 2.94677 48.6529 3.08875 49.1708 3.37271C49.6969 3.65666 50.102 4.06172 50.3859 4.58787C50.6782 5.10568 50.8244 5.70282 50.8244 6.37931ZM49.0079 5.87821C48.9995 5.42722 48.8367 5.0681 48.5193 4.80084C48.202 4.52524 47.8136 4.38743 47.3543 4.38743C46.92 4.38743 46.5525 4.52106 46.2518 4.78831C45.9595 5.04722 45.78 5.41051 45.7132 5.87821H49.0079ZM53.8584 4.13688C54.0839 3.76941 54.3762 3.48128 54.7353 3.27249C55.1028 3.0637 55.5204 2.9593 55.9881 2.9593V4.80084H55.5245C54.9733 4.80084 54.5558 4.93029 54.2718 5.1892C53.9962 5.4481 53.8584 5.89909 53.8584 6.54217V9.99976H52.1045V3.05952H53.8584V4.13688ZM59.4368 1.10523L59.2364 7.15601H57.7582L57.5452 1.10523H59.4368ZM58.5349 10.0874C58.2175 10.0874 57.9544 9.9914 57.7456 9.79932C57.5452 9.59888 57.445 9.3525 57.445 9.06019C57.445 8.76788 57.5452 8.52569 57.7456 8.3336C57.9544 8.13316 58.2175 8.03294 58.5349 8.03294C58.8439 8.03294 59.0986 8.13316 59.299 8.3336C59.4995 8.52569 59.5997 8.76788 59.5997 9.06019C59.5997 9.3525 59.4995 9.59888 59.299 9.79932C59.0986 9.9914 58.8439 10.0874 58.5349 10.0874Z" fill="white" fill-opacity="0.8"/>
</svg>
