<svg width="333" height="66" viewBox="0 0 333 66" fill="none" xmlns="http://www.w3.org/2000/svg">
<path d="M4.768 13.112C4.032 13.112 3.37067 12.984 2.784 12.728C2.208 12.4613 1.75467 12.0987 1.424 11.64C1.09333 11.1707 0.922667 10.632 0.912 10.024H2.464C2.51733 10.5467 2.73067 10.9893 3.104 11.352C3.488 11.704 4.04267 11.88 4.768 11.88C5.46133 11.88 6.00533 11.7093 6.4 11.368C6.80533 11.016 7.008 10.568 7.008 10.024C7.008 9.59733 6.89067 9.25067 6.656 8.984C6.42133 8.71733 6.128 8.51467 5.776 8.376C5.424 8.23733 4.94933 8.088 4.352 7.928C3.616 7.736 3.024 7.544 2.576 7.352C2.13867 7.16 1.76 6.86133 1.44 6.456C1.13067 6.04 0.976 5.48533 0.976 4.792C0.976 4.184 1.13067 3.64533 1.44 3.176C1.74933 2.70667 2.18133 2.344 2.736 2.088C3.30133 1.832 3.94667 1.704 4.672 1.704C5.71733 1.704 6.57067 1.96533 7.232 2.488C7.904 3.01067 8.28267 3.704 8.368 4.568H6.768C6.71467 4.14133 6.49067 3.768 6.096 3.448C5.70133 3.11733 5.17867 2.952 4.528 2.952C3.92 2.952 3.424 3.112 3.04 3.432C2.656 3.74133 2.464 4.17867 2.464 4.744C2.464 5.14933 2.576 5.48 2.8 5.736C3.03467 5.992 3.31733 6.18933 3.648 6.328C3.98933 6.456 4.464 6.60533 5.072 6.776C5.808 6.97867 6.4 7.18133 6.848 7.384C7.296 7.576 7.68 7.88 8 8.296C8.32 8.70133 8.48 9.256 8.48 9.96C8.48 10.504 8.336 11.016 8.048 11.496C7.76 11.976 7.33333 12.3653 6.768 12.664C6.20267 12.9627 5.536 13.112 4.768 13.112ZM18.6226 8.28C18.6226 8.55733 18.6066 8.85067 18.5746 9.16H11.5666C11.62 10.024 11.9133 10.7013 12.4466 11.192C12.9906 11.672 13.6466 11.912 14.4146 11.912C15.044 11.912 15.5666 11.768 15.9826 11.48C16.4093 11.1813 16.708 10.7867 16.8786 10.296H18.4466C18.212 11.1387 17.7426 11.8267 17.0386 12.36C16.3346 12.8827 15.46 13.144 14.4146 13.144C13.5826 13.144 12.836 12.9573 12.1746 12.584C11.524 12.2107 11.012 11.6827 10.6386 11C10.2653 10.3067 10.0786 9.50667 10.0786 8.6C10.0786 7.69333 10.26 6.89867 10.6226 6.216C10.9853 5.53333 11.492 5.01067 12.1426 4.648C12.804 4.27467 13.5613 4.088 14.4146 4.088C15.2466 4.088 15.9826 4.26933 16.6226 4.632C17.2626 4.99467 17.7533 5.496 18.0946 6.136C18.4466 6.76533 18.6226 7.48 18.6226 8.28ZM17.1186 7.976C17.1186 7.42133 16.996 6.94667 16.7506 6.552C16.5053 6.14667 16.1693 5.84267 15.7426 5.64C15.3266 5.42667 14.8626 5.32 14.3506 5.32C13.6146 5.32 12.9853 5.55467 12.4626 6.024C11.9506 6.49333 11.6573 7.144 11.5826 7.976H17.1186ZM22.0005 1.16V13H20.5445V1.16H22.0005ZM25.938 1.16V13H24.482V1.16H25.938ZM40.2371 4.232L34.9571 17.128H33.4531L35.1811 12.904L31.6451 4.232H33.2611L36.0131 11.336L38.7331 4.232H40.2371ZM45.5248 13.144C44.7034 13.144 43.9568 12.9573 43.2848 12.584C42.6234 12.2107 42.1008 11.6827 41.7168 11C41.3434 10.3067 41.1568 9.50667 41.1568 8.6C41.1568 7.704 41.3488 6.91467 41.7328 6.232C42.1274 5.53867 42.6608 5.01067 43.3328 4.648C44.0048 4.27467 44.7568 4.088 45.5888 4.088C46.4208 4.088 47.1728 4.27467 47.8448 4.648C48.5168 5.01067 49.0448 5.53333 49.4288 6.216C49.8234 6.89867 50.0208 7.69333 50.0208 8.6C50.0208 9.50667 49.8181 10.3067 49.4128 11C49.0181 11.6827 48.4794 12.2107 47.7968 12.584C47.1141 12.9573 46.3568 13.144 45.5248 13.144ZM45.5248 11.864C46.0474 11.864 46.5381 11.7413 46.9968 11.496C47.4554 11.2507 47.8234 10.8827 48.1008 10.392C48.3888 9.90133 48.5328 9.304 48.5328 8.6C48.5328 7.896 48.3941 7.29867 48.1168 6.808C47.8394 6.31733 47.4768 5.95467 47.0288 5.72C46.5808 5.47467 46.0954 5.352 45.5728 5.352C45.0394 5.352 44.5488 5.47467 44.1008 5.72C43.6634 5.95467 43.3114 6.31733 43.0448 6.808C42.7781 7.29867 42.6448 7.896 42.6448 8.6C42.6448 9.31467 42.7728 9.91733 43.0288 10.408C43.2954 10.8987 43.6474 11.2667 44.0848 11.512C44.5221 11.7467 45.0021 11.864 45.5248 11.864ZM59.7111 4.232V13H58.2551V11.704C57.9778 12.152 57.5885 12.504 57.0871 12.76C56.5965 13.0053 56.0525 13.128 55.4551 13.128C54.7725 13.128 54.1591 12.9893 53.6151 12.712C53.0711 12.424 52.6391 11.9973 52.3191 11.432C52.0098 10.8667 51.8551 10.1787 51.8551 9.368V4.232H53.2951V9.176C53.2951 10.04 53.5138 10.7067 53.9511 11.176C54.3885 11.6347 54.9858 11.864 55.7431 11.864C56.5218 11.864 57.1351 11.624 57.5831 11.144C58.0311 10.664 58.2551 9.96533 58.2551 9.048V4.232H59.7111ZM63.6255 5.656C63.8815 5.15467 64.2442 4.76533 64.7135 4.488C65.1935 4.21067 65.7748 4.072 66.4575 4.072V5.576H66.0735C64.4415 5.576 63.6255 6.46133 63.6255 8.232V13H62.1695V4.232H63.6255V5.656ZM81.1719 13H79.7159L73.8599 4.12V13H72.4039V1.832H73.8599L79.7159 10.696V1.832H81.1719V13ZM89.9579 1.848V3.032H85.1099V6.792H89.0459V7.976H85.1099V13H83.6539V1.848H89.9579ZM98.5804 1.848V3.032H95.5404V13H94.0844V3.032H91.0284V1.848H98.5804ZM103.477 13.144C102.805 13.144 102.202 13.032 101.669 12.808C101.135 12.5733 100.714 12.2533 100.405 11.848C100.095 11.432 99.9246 10.9573 99.8926 10.424H101.397C101.439 10.8613 101.642 11.2187 102.005 11.496C102.378 11.7733 102.863 11.912 103.461 11.912C104.015 11.912 104.453 11.7893 104.773 11.544C105.093 11.2987 105.253 10.9893 105.253 10.616C105.253 10.232 105.082 9.94933 104.741 9.768C104.399 9.576 103.871 9.38933 103.157 9.208C102.506 9.03733 101.973 8.86667 101.557 8.696C101.151 8.51467 100.799 8.25333 100.501 7.912C100.213 7.56 100.069 7.10133 100.069 6.536C100.069 6.088 100.202 5.67733 100.469 5.304C100.735 4.93067 101.114 4.63733 101.605 4.424C102.095 4.2 102.655 4.088 103.285 4.088C104.255 4.088 105.039 4.33333 105.637 4.824C106.234 5.31467 106.554 5.98667 106.597 6.84H105.141C105.109 6.38133 104.922 6.01333 104.581 5.736C104.25 5.45867 103.802 5.32 103.237 5.32C102.714 5.32 102.298 5.432 101.989 5.656C101.679 5.88 101.525 6.17333 101.525 6.536C101.525 6.824 101.615 7.064 101.797 7.256C101.989 7.43733 102.223 7.58667 102.501 7.704C102.789 7.81067 103.183 7.93333 103.685 8.072C104.314 8.24267 104.826 8.41333 105.221 8.584C105.615 8.744 105.951 8.98933 106.229 9.32C106.517 9.65067 106.666 10.0827 106.677 10.616C106.677 11.096 106.543 11.528 106.277 11.912C106.01 12.296 105.631 12.6 105.141 12.824C104.661 13.0373 104.106 13.144 103.477 13.144ZM116.822 13.144C116 13.144 115.254 12.9573 114.582 12.584C113.92 12.2107 113.398 11.6827 113.014 11C112.64 10.3067 112.454 9.50667 112.454 8.6C112.454 7.704 112.646 6.91467 113.03 6.232C113.424 5.53867 113.958 5.01067 114.63 4.648C115.302 4.27467 116.054 4.088 116.886 4.088C117.718 4.088 118.47 4.27467 119.142 4.648C119.814 5.01067 120.342 5.53333 120.726 6.216C121.12 6.89867 121.318 7.69333 121.318 8.6C121.318 9.50667 121.115 10.3067 120.71 11C120.315 11.6827 119.776 12.2107 119.094 12.584C118.411 12.9573 117.654 13.144 116.822 13.144ZM116.822 11.864C117.344 11.864 117.835 11.7413 118.294 11.496C118.752 11.2507 119.12 10.8827 119.398 10.392C119.686 9.90133 119.83 9.304 119.83 8.6C119.83 7.896 119.691 7.29867 119.414 6.808C119.136 6.31733 118.774 5.95467 118.326 5.72C117.878 5.47467 117.392 5.352 116.87 5.352C116.336 5.352 115.846 5.47467 115.398 5.72C114.96 5.95467 114.608 6.31733 114.342 6.808C114.075 7.29867 113.942 7.896 113.942 8.6C113.942 9.31467 114.07 9.91733 114.326 10.408C114.592 10.8987 114.944 11.2667 115.382 11.512C115.819 11.7467 116.299 11.864 116.822 11.864ZM127.504 4.072C128.571 4.072 129.435 4.39733 130.096 5.048C130.757 5.688 131.088 6.616 131.088 7.832V13H129.648V8.04C129.648 7.16533 129.429 6.49867 128.992 6.04C128.555 5.57067 127.957 5.336 127.2 5.336C126.432 5.336 125.819 5.576 125.36 6.056C124.912 6.536 124.688 7.23467 124.688 8.152V13H123.232V4.232H124.688V5.48C124.976 5.032 125.365 4.68533 125.856 4.44C126.357 4.19467 126.907 4.072 127.504 4.072ZM141.556 13.144C140.735 13.144 139.988 12.9573 139.316 12.584C138.655 12.2107 138.132 11.6827 137.748 11C137.375 10.3067 137.188 9.50667 137.188 8.6C137.188 7.704 137.38 6.91467 137.764 6.232C138.159 5.53867 138.692 5.01067 139.364 4.648C140.036 4.27467 140.788 4.088 141.62 4.088C142.452 4.088 143.204 4.27467 143.876 4.648C144.548 5.01067 145.076 5.53333 145.46 6.216C145.855 6.89867 146.052 7.69333 146.052 8.6C146.052 9.50667 145.849 10.3067 145.444 11C145.049 11.6827 144.511 12.2107 143.828 12.584C143.145 12.9573 142.388 13.144 141.556 13.144ZM141.556 11.864C142.079 11.864 142.569 11.7413 143.028 11.496C143.487 11.2507 143.855 10.8827 144.132 10.392C144.42 9.90133 144.564 9.304 144.564 8.6C144.564 7.896 144.425 7.29867 144.148 6.808C143.871 6.31733 143.508 5.95467 143.06 5.72C142.612 5.47467 142.127 5.352 141.604 5.352C141.071 5.352 140.58 5.47467 140.132 5.72C139.695 5.95467 139.343 6.31733 139.076 6.808C138.809 7.29867 138.676 7.896 138.676 8.6C138.676 9.31467 138.804 9.91733 139.06 10.408C139.327 10.8987 139.679 11.2667 140.116 11.512C140.553 11.7467 141.033 11.864 141.556 11.864ZM155.742 4.232V13H154.286V11.704C154.009 12.152 153.62 12.504 153.118 12.76C152.628 13.0053 152.084 13.128 151.486 13.128C150.804 13.128 150.19 12.9893 149.646 12.712C149.102 12.424 148.67 11.9973 148.35 11.432C148.041 10.8667 147.886 10.1787 147.886 9.368V4.232H149.326V9.176C149.326 10.04 149.545 10.7067 149.982 11.176C150.42 11.6347 151.017 11.864 151.774 11.864C152.553 11.864 153.166 11.624 153.614 11.144C154.062 10.664 154.286 9.96533 154.286 9.048V4.232H155.742ZM159.657 5.656C159.913 5.15467 160.275 4.76533 160.745 4.488C161.225 4.21067 161.806 4.072 162.489 4.072V5.576H162.105C160.473 5.576 159.657 6.46133 159.657 8.232V13H158.201V4.232H159.657V5.656ZM169.891 5.848C170.179 5.34667 170.606 4.93067 171.171 4.6C171.747 4.25867 172.414 4.088 173.171 4.088C173.95 4.088 174.654 4.27467 175.283 4.648C175.923 5.02133 176.424 5.54933 176.787 6.232C177.15 6.904 177.331 7.688 177.331 8.584C177.331 9.46933 177.15 10.2587 176.787 10.952C176.424 11.6453 175.923 12.184 175.283 12.568C174.654 12.952 173.95 13.144 173.171 13.144C172.424 13.144 171.763 12.9787 171.187 12.648C170.622 12.3067 170.19 11.8853 169.891 11.384V17.16H168.435V4.232H169.891V5.848ZM175.843 8.584C175.843 7.92267 175.71 7.34667 175.443 6.856C175.176 6.36533 174.814 5.992 174.355 5.736C173.907 5.48 173.411 5.352 172.867 5.352C172.334 5.352 171.838 5.48533 171.379 5.752C170.931 6.008 170.568 6.38667 170.291 6.888C170.024 7.37867 169.891 7.94933 169.891 8.6C169.891 9.26133 170.024 9.84267 170.291 10.344C170.568 10.8347 170.931 11.2133 171.379 11.48C171.838 11.736 172.334 11.864 172.867 11.864C173.411 11.864 173.907 11.736 174.355 11.48C174.814 11.2133 175.176 10.8347 175.443 10.344C175.71 9.84267 175.843 9.256 175.843 8.584ZM180.704 1.16V13H179.248V1.16H180.704ZM182.641 8.584C182.641 7.688 182.822 6.904 183.185 6.232C183.548 5.54933 184.044 5.02133 184.673 4.648C185.313 4.27467 186.022 4.088 186.801 4.088C187.569 4.088 188.236 4.25333 188.801 4.584C189.366 4.91467 189.788 5.33067 190.065 5.832V4.232H191.537V13H190.065V11.368C189.777 11.88 189.345 12.3067 188.769 12.648C188.204 12.9787 187.542 13.144 186.785 13.144C186.006 13.144 185.302 12.952 184.673 12.568C184.044 12.184 183.548 11.6453 183.185 10.952C182.822 10.2587 182.641 9.46933 182.641 8.584ZM190.065 8.6C190.065 7.93867 189.932 7.36267 189.665 6.872C189.398 6.38133 189.036 6.008 188.577 5.752C188.129 5.48533 187.633 5.352 187.089 5.352C186.545 5.352 186.049 5.48 185.601 5.736C185.153 5.992 184.796 6.36533 184.529 6.856C184.262 7.34667 184.129 7.92267 184.129 8.584C184.129 9.256 184.262 9.84267 184.529 10.344C184.796 10.8347 185.153 11.2133 185.601 11.48C186.049 11.736 186.545 11.864 187.089 11.864C187.633 11.864 188.129 11.736 188.577 11.48C189.036 11.2133 189.398 10.8347 189.665 10.344C189.932 9.84267 190.065 9.26133 190.065 8.6ZM195.774 5.432V10.6C195.774 11.0267 195.864 11.3307 196.046 11.512C196.227 11.6827 196.542 11.768 196.99 11.768H198.062V13H196.75C195.939 13 195.331 12.8133 194.926 12.44C194.52 12.0667 194.318 11.4533 194.318 10.6V5.432H193.182V4.232H194.318V2.024H195.774V4.232H198.062V5.432H195.774ZM203.394 5.432H201.554V13H200.098V5.432H198.962V4.232H200.098V3.608C200.098 2.62667 200.348 1.912 200.85 1.464C201.362 1.00533 202.178 0.775999 203.298 0.775999V1.992C202.658 1.992 202.204 2.12 201.938 2.376C201.682 2.62133 201.554 3.032 201.554 3.608V4.232H203.394V5.432ZM208.915 13.144C208.094 13.144 207.347 12.9573 206.675 12.584C206.014 12.2107 205.491 11.6827 205.107 11C204.734 10.3067 204.547 9.50667 204.547 8.6C204.547 7.704 204.739 6.91467 205.123 6.232C205.518 5.53867 206.051 5.01067 206.723 4.648C207.395 4.27467 208.147 4.088 208.979 4.088C209.811 4.088 210.563 4.27467 211.235 4.648C211.907 5.01067 212.435 5.53333 212.819 6.216C213.214 6.89867 213.411 7.69333 213.411 8.6C213.411 9.50667 213.209 10.3067 212.803 11C212.409 11.6827 211.87 12.2107 211.187 12.584C210.505 12.9573 209.747 13.144 208.915 13.144ZM208.915 11.864C209.438 11.864 209.929 11.7413 210.387 11.496C210.846 11.2507 211.214 10.8827 211.491 10.392C211.779 9.90133 211.923 9.304 211.923 8.6C211.923 7.896 211.785 7.29867 211.507 6.808C211.23 6.31733 210.867 5.95467 210.419 5.72C209.971 5.47467 209.486 5.352 208.963 5.352C208.43 5.352 207.939 5.47467 207.491 5.72C207.054 5.95467 206.702 6.31733 206.435 6.808C206.169 7.29867 206.035 7.896 206.035 8.6C206.035 9.31467 206.163 9.91733 206.419 10.408C206.686 10.8987 207.038 11.2667 207.475 11.512C207.913 11.7467 208.393 11.864 208.915 11.864ZM216.782 5.656C217.038 5.15467 217.4 4.76533 217.87 4.488C218.35 4.21067 218.931 4.072 219.614 4.072V5.576H219.23C217.598 5.576 216.782 6.46133 216.782 8.232V13H215.326V4.232H216.782V5.656ZM231.839 4.072C232.521 4.072 233.129 4.216 233.663 4.504C234.196 4.78133 234.617 5.20267 234.927 5.768C235.236 6.33333 235.391 7.02133 235.391 7.832V13H233.951V8.04C233.951 7.16533 233.732 6.49867 233.295 6.04C232.868 5.57067 232.287 5.336 231.551 5.336C230.793 5.336 230.191 5.58133 229.743 6.072C229.295 6.552 229.071 7.25067 229.071 8.168V13H227.631V8.04C227.631 7.16533 227.412 6.49867 226.975 6.04C226.548 5.57067 225.967 5.336 225.231 5.336C224.473 5.336 223.871 5.58133 223.423 6.072C222.975 6.552 222.751 7.25067 222.751 8.168V13H221.295V4.232H222.751V5.496C223.039 5.03733 223.423 4.68533 223.903 4.44C224.393 4.19467 224.932 4.072 225.519 4.072C226.255 4.072 226.905 4.23733 227.471 4.568C228.036 4.89867 228.457 5.384 228.735 6.024C228.98 5.40533 229.385 4.92533 229.951 4.584C230.516 4.24267 231.145 4.072 231.839 4.072ZM253.725 4.232L250.989 13H249.485L247.373 6.04L245.261 13H243.757L241.005 4.232H242.493L244.509 11.592L246.685 4.232H248.173L250.301 11.608L252.285 4.232H253.725ZM255.922 2.808C255.644 2.808 255.41 2.712 255.218 2.52C255.026 2.328 254.93 2.09333 254.93 1.816C254.93 1.53867 255.026 1.304 255.218 1.112C255.41 0.919999 255.644 0.823999 255.922 0.823999C256.188 0.823999 256.412 0.919999 256.594 1.112C256.786 1.304 256.882 1.53867 256.882 1.816C256.882 2.09333 256.786 2.328 256.594 2.52C256.412 2.712 256.188 2.808 255.922 2.808ZM256.626 4.232V13H255.17V4.232H256.626ZM260.883 5.432V10.6C260.883 11.0267 260.974 11.3307 261.155 11.512C261.336 11.6827 261.651 11.768 262.099 11.768H263.171V13H261.859C261.048 13 260.44 12.8133 260.035 12.44C259.63 12.0667 259.427 11.4533 259.427 10.6V5.432H258.291V4.232H259.427V2.024H260.883V4.232H263.171V5.432H260.883ZM269.287 4.072C269.948 4.072 270.546 4.216 271.079 4.504C271.612 4.78133 272.028 5.20267 272.327 5.768C272.636 6.33333 272.791 7.02133 272.791 7.832V13H271.351V8.04C271.351 7.16533 271.132 6.49867 270.695 6.04C270.258 5.57067 269.66 5.336 268.903 5.336C268.135 5.336 267.522 5.576 267.063 6.056C266.615 6.536 266.391 7.23467 266.391 8.152V13H264.935V1.16H266.391V5.48C266.679 5.032 267.074 4.68533 267.575 4.44C268.087 4.19467 268.658 4.072 269.287 4.072ZM283.707 4.072C284.774 4.072 285.638 4.39733 286.299 5.048C286.96 5.688 287.291 6.616 287.291 7.832V13H285.851V8.04C285.851 7.16533 285.632 6.49867 285.195 6.04C284.758 5.57067 284.16 5.336 283.403 5.336C282.635 5.336 282.022 5.576 281.563 6.056C281.115 6.536 280.891 7.23467 280.891 8.152V13H279.435V4.232H280.891V5.48C281.179 5.032 281.568 4.68533 282.059 4.44C282.56 4.19467 283.11 4.072 283.707 4.072ZM293.494 13.144C292.672 13.144 291.926 12.9573 291.254 12.584C290.592 12.2107 290.07 11.6827 289.686 11C289.312 10.3067 289.126 9.50667 289.126 8.6C289.126 7.704 289.318 6.91467 289.702 6.232C290.096 5.53867 290.63 5.01067 291.302 4.648C291.974 4.27467 292.726 4.088 293.558 4.088C294.39 4.088 295.142 4.27467 295.814 4.648C296.486 5.01067 297.014 5.53333 297.398 6.216C297.792 6.89867 297.99 7.69333 297.99 8.6C297.99 9.50667 297.787 10.3067 297.382 11C296.987 11.6827 296.448 12.2107 295.766 12.584C295.083 12.9573 294.326 13.144 293.494 13.144ZM293.494 11.864C294.016 11.864 294.507 11.7413 294.966 11.496C295.424 11.2507 295.792 10.8827 296.07 10.392C296.358 9.90133 296.502 9.304 296.502 8.6C296.502 7.896 296.363 7.29867 296.086 6.808C295.808 6.31733 295.446 5.95467 294.998 5.72C294.55 5.47467 294.064 5.352 293.542 5.352C293.008 5.352 292.518 5.47467 292.07 5.72C291.632 5.95467 291.28 6.31733 291.014 6.808C290.747 7.29867 290.614 7.896 290.614 8.6C290.614 9.31467 290.742 9.91733 290.998 10.408C291.264 10.8987 291.616 11.2667 292.054 11.512C292.491 11.7467 292.971 11.864 293.494 11.864ZM307.786 4.088C308.543 4.088 309.204 4.25333 309.77 4.584C310.346 4.91467 310.772 5.33067 311.05 5.832V4.232H312.522V13.192C312.522 13.992 312.351 14.7013 312.01 15.32C311.668 15.9493 311.178 16.44 310.538 16.792C309.908 17.144 309.172 17.32 308.33 17.32C307.178 17.32 306.218 17.048 305.45 16.504C304.682 15.96 304.228 15.2187 304.09 14.28H305.53C305.69 14.8133 306.02 15.24 306.522 15.56C307.023 15.8907 307.626 16.056 308.33 16.056C309.13 16.056 309.78 15.8053 310.282 15.304C310.794 14.8027 311.05 14.0987 311.05 13.192V11.352C310.762 11.864 310.335 12.2907 309.77 12.632C309.204 12.9733 308.543 13.144 307.786 13.144C307.007 13.144 306.298 12.952 305.658 12.568C305.028 12.184 304.532 11.6453 304.17 10.952C303.807 10.2587 303.626 9.46933 303.626 8.584C303.626 7.688 303.807 6.904 304.17 6.232C304.532 5.54933 305.028 5.02133 305.658 4.648C306.298 4.27467 307.007 4.088 307.786 4.088ZM311.05 8.6C311.05 7.93867 310.916 7.36267 310.65 6.872C310.383 6.38133 310.02 6.008 309.562 5.752C309.114 5.48533 308.618 5.352 308.074 5.352C307.53 5.352 307.034 5.48 306.586 5.736C306.138 5.992 305.78 6.36533 305.514 6.856C305.247 7.34667 305.114 7.92267 305.114 8.584C305.114 9.256 305.247 9.84267 305.514 10.344C305.78 10.8347 306.138 11.2133 306.586 11.48C307.034 11.736 307.53 11.864 308.074 11.864C308.618 11.864 309.114 11.736 309.562 11.48C310.02 11.2133 310.383 10.8347 310.65 10.344C310.916 9.84267 311.05 9.26133 311.05 8.6ZM314.438 8.584C314.438 7.688 314.619 6.904 314.982 6.232C315.345 5.54933 315.841 5.02133 316.47 4.648C317.11 4.27467 317.819 4.088 318.598 4.088C319.366 4.088 320.033 4.25333 320.598 4.584C321.163 4.91467 321.585 5.33067 321.862 5.832V4.232H323.334V13H321.862V11.368C321.574 11.88 321.142 12.3067 320.566 12.648C320.001 12.9787 319.339 13.144 318.582 13.144C317.803 13.144 317.099 12.952 316.47 12.568C315.841 12.184 315.345 11.6453 314.982 10.952C314.619 10.2587 314.438 9.46933 314.438 8.584ZM321.862 8.6C321.862 7.93867 321.729 7.36267 321.462 6.872C321.195 6.38133 320.833 6.008 320.374 5.752C319.926 5.48533 319.43 5.352 318.886 5.352C318.342 5.352 317.846 5.48 317.398 5.736C316.95 5.992 316.593 6.36533 316.326 6.856C316.059 7.34667 315.926 7.92267 315.926 8.584C315.926 9.256 316.059 9.84267 316.326 10.344C316.593 10.8347 316.95 11.2133 317.398 11.48C317.846 11.736 318.342 11.864 318.886 11.864C319.43 11.864 319.926 11.736 320.374 11.48C320.833 11.2133 321.195 10.8347 321.462 10.344C321.729 9.84267 321.862 9.26133 321.862 8.6ZM328.899 13.144C328.227 13.144 327.624 13.032 327.091 12.808C326.557 12.5733 326.136 12.2533 325.827 11.848C325.517 11.432 325.347 10.9573 325.315 10.424H326.819C326.861 10.8613 327.064 11.2187 327.427 11.496C327.8 11.7733 328.285 11.912 328.883 11.912C329.437 11.912 329.875 11.7893 330.195 11.544C330.515 11.2987 330.675 10.9893 330.675 10.616C330.675 10.232 330.504 9.94933 330.163 9.768C329.821 9.576 329.293 9.38933 328.579 9.208C327.928 9.03733 327.395 8.86667 326.979 8.696C326.573 8.51467 326.221 8.25333 325.923 7.912C325.635 7.56 325.491 7.10133 325.491 6.536C325.491 6.088 325.624 5.67733 325.891 5.304C326.157 4.93067 326.536 4.63733 327.027 4.424C327.517 4.2 328.077 4.088 328.707 4.088C329.677 4.088 330.461 4.33333 331.059 4.824C331.656 5.31467 331.976 5.98667 332.019 6.84H330.563C330.531 6.38133 330.344 6.01333 330.003 5.736C329.672 5.45867 329.224 5.32 328.659 5.32C328.136 5.32 327.72 5.432 327.411 5.656C327.101 5.88 326.947 6.17333 326.947 6.536C326.947 6.824 327.037 7.064 327.219 7.256C327.411 7.43733 327.645 7.58667 327.923 7.704C328.211 7.81067 328.605 7.93333 329.107 8.072C329.736 8.24267 330.248 8.41333 330.643 8.584C331.037 8.744 331.373 8.98933 331.651 9.32C331.939 9.65067 332.088 10.0827 332.099 10.616C332.099 11.096 331.965 11.528 331.699 11.912C331.432 12.296 331.053 12.6 330.563 12.824C330.083 13.0373 329.528 13.144 328.899 13.144ZM4.8 29.432H2.96V37H1.504V29.432H0.368V28.232H1.504V27.608C1.504 26.6267 1.75467 25.912 2.256 25.464C2.768 25.0053 3.584 24.776 4.704 24.776V25.992C4.064 25.992 3.61067 26.12 3.344 26.376C3.088 26.6213 2.96 27.032 2.96 27.608V28.232H4.8V29.432ZM14.4976 32.28C14.4976 32.5573 14.4816 32.8507 14.4496 33.16H7.44163C7.49496 34.024 7.78829 34.7013 8.32163 35.192C8.86563 35.672 9.52163 35.912 10.2896 35.912C10.919 35.912 11.4416 35.768 11.8576 35.48C12.2843 35.1813 12.583 34.7867 12.7536 34.296H14.3216C14.087 35.1387 13.6176 35.8267 12.9136 36.36C12.2096 36.8827 11.335 37.144 10.2896 37.144C9.45763 37.144 8.71096 36.9573 8.04963 36.584C7.39896 36.2107 6.88696 35.6827 6.51363 35C6.14029 34.3067 5.95363 33.5067 5.95363 32.6C5.95363 31.6933 6.13496 30.8987 6.49763 30.216C6.86029 29.5333 7.36696 29.0107 8.01763 28.648C8.67896 28.2747 9.43629 28.088 10.2896 28.088C11.1216 28.088 11.8576 28.2693 12.4976 28.632C13.1376 28.9947 13.6283 29.496 13.9696 30.136C14.3216 30.7653 14.4976 31.48 14.4976 32.28ZM12.9936 31.976C12.9936 31.4213 12.871 30.9467 12.6256 30.552C12.3803 30.1467 12.0443 29.8427 11.6176 29.64C11.2016 29.4267 10.7376 29.32 10.2256 29.32C9.48963 29.32 8.86029 29.5547 8.33763 30.024C7.82563 30.4933 7.53229 31.144 7.45763 31.976H12.9936ZM24.4195 32.28C24.4195 32.5573 24.4035 32.8507 24.3715 33.16H17.3635C17.4168 34.024 17.7102 34.7013 18.2435 35.192C18.7875 35.672 19.4435 35.912 20.2115 35.912C20.8408 35.912 21.3635 35.768 21.7795 35.48C22.2062 35.1813 22.5048 34.7867 22.6755 34.296H24.2435C24.0088 35.1387 23.5395 35.8267 22.8355 36.36C22.1315 36.8827 21.2568 37.144 20.2115 37.144C19.3795 37.144 18.6328 36.9573 17.9715 36.584C17.3208 36.2107 16.8088 35.6827 16.4355 35C16.0622 34.3067 15.8755 33.5067 15.8755 32.6C15.8755 31.6933 16.0568 30.8987 16.4195 30.216C16.7822 29.5333 17.2888 29.0107 17.9395 28.648C18.6008 28.2747 19.3582 28.088 20.2115 28.088C21.0435 28.088 21.7795 28.2693 22.4195 28.632C23.0595 28.9947 23.5502 29.496 23.8915 30.136C24.2435 30.7653 24.4195 31.48 24.4195 32.28ZM22.9155 31.976C22.9155 31.4213 22.7928 30.9467 22.5475 30.552C22.3022 30.1467 21.9662 29.8427 21.5395 29.64C21.1235 29.4267 20.6595 29.32 20.1475 29.32C19.4115 29.32 18.7822 29.5547 18.2595 30.024C17.7475 30.4933 17.4542 31.144 17.3795 31.976H22.9155ZM30.063 32.6C30.063 31.6933 30.2443 30.904 30.607 30.232C30.9697 29.5493 31.471 29.0213 32.111 28.648C32.7617 28.2747 33.503 28.088 34.335 28.088C35.4123 28.088 36.2977 28.3493 36.991 28.872C37.695 29.3947 38.159 30.12 38.383 31.048H36.815C36.6657 30.5147 36.3723 30.0933 35.935 29.784C35.5083 29.4747 34.975 29.32 34.335 29.32C33.503 29.32 32.831 29.608 32.319 30.184C31.807 30.7493 31.551 31.5547 31.551 32.6C31.551 33.656 31.807 34.472 32.319 35.048C32.831 35.624 33.503 35.912 34.335 35.912C34.975 35.912 35.5083 35.7627 35.935 35.464C36.3617 35.1653 36.655 34.7387 36.815 34.184H38.383C38.1483 35.08 37.679 35.8 36.975 36.344C36.271 36.8773 35.391 37.144 34.335 37.144C33.503 37.144 32.7617 36.9573 32.111 36.584C31.471 36.2107 30.9697 35.6827 30.607 35C30.2443 34.3173 30.063 33.5173 30.063 32.6ZM44.6778 28.072C45.3391 28.072 45.9364 28.216 46.4698 28.504C47.0031 28.7813 47.4191 29.2027 47.7178 29.768C48.0271 30.3333 48.1818 31.0213 48.1818 31.832V37H46.7418V32.04C46.7418 31.1653 46.5231 30.4987 46.0858 30.04C45.6484 29.5707 45.0511 29.336 44.2938 29.336C43.5258 29.336 42.9124 29.576 42.4538 30.056C42.0058 30.536 41.7818 31.2347 41.7818 32.152V37H40.3258V25.16H41.7818V29.48C42.0698 29.032 42.4644 28.6853 42.9658 28.44C43.4778 28.1947 44.0484 28.072 44.6778 28.072ZM50.0161 32.584C50.0161 31.688 50.1975 30.904 50.5601 30.232C50.9228 29.5493 51.4188 29.0213 52.0481 28.648C52.6881 28.2747 53.3975 28.088 54.1761 28.088C54.9441 28.088 55.6108 28.2533 56.1761 28.584C56.7415 28.9147 57.1628 29.3307 57.4401 29.832V28.232H58.9121V37H57.4401V35.368C57.1521 35.88 56.7201 36.3067 56.1441 36.648C55.5788 36.9787 54.9175 37.144 54.1601 37.144C53.3815 37.144 52.6775 36.952 52.0481 36.568C51.4188 36.184 50.9228 35.6453 50.5601 34.952C50.1975 34.2587 50.0161 33.4693 50.0161 32.584ZM57.4401 32.6C57.4401 31.9387 57.3068 31.3627 57.0401 30.872C56.7735 30.3813 56.4108 30.008 55.9521 29.752C55.5041 29.4853 55.0081 29.352 54.4641 29.352C53.9201 29.352 53.4241 29.48 52.9761 29.736C52.5281 29.992 52.1708 30.3653 51.9041 30.856C51.6375 31.3467 51.5041 31.9227 51.5041 32.584C51.5041 33.256 51.6375 33.8427 51.9041 34.344C52.1708 34.8347 52.5281 35.2133 52.9761 35.48C53.4241 35.736 53.9201 35.864 54.4641 35.864C55.0081 35.864 55.5041 35.736 55.9521 35.48C56.4108 35.2133 56.7735 34.8347 57.0401 34.344C57.3068 33.8427 57.4401 33.2613 57.4401 32.6ZM62.8286 29.656C63.0846 29.1547 63.4473 28.7653 63.9166 28.488C64.3966 28.2107 64.978 28.072 65.6606 28.072V29.576H65.2766C63.6446 29.576 62.8286 30.4613 62.8286 32.232V37H61.3726V28.232H62.8286V29.656ZM70.9574 28.088C71.7147 28.088 72.376 28.2533 72.9414 28.584C73.5174 28.9147 73.944 29.3307 74.2214 29.832V28.232H75.6934V37.192C75.6934 37.992 75.5227 38.7013 75.1814 39.32C74.84 39.9493 74.3494 40.44 73.7094 40.792C73.08 41.144 72.344 41.32 71.5014 41.32C70.3494 41.32 69.3894 41.048 68.6214 40.504C67.8534 39.96 67.4 39.2187 67.2614 38.28H68.7014C68.8614 38.8133 69.192 39.24 69.6934 39.56C70.1947 39.8907 70.7974 40.056 71.5014 40.056C72.3014 40.056 72.952 39.8053 73.4534 39.304C73.9654 38.8027 74.2214 38.0987 74.2214 37.192V35.352C73.9334 35.864 73.5067 36.2907 72.9414 36.632C72.376 36.9733 71.7147 37.144 70.9574 37.144C70.1787 37.144 69.4694 36.952 68.8294 36.568C68.2 36.184 67.704 35.6453 67.3414 34.952C66.9787 34.2587 66.7974 33.4693 66.7974 32.584C66.7974 31.688 66.9787 30.904 67.3414 30.232C67.704 29.5493 68.2 29.0213 68.8294 28.648C69.4694 28.2747 70.1787 28.088 70.9574 28.088ZM74.2214 32.6C74.2214 31.9387 74.088 31.3627 73.8214 30.872C73.5547 30.3813 73.192 30.008 72.7334 29.752C72.2854 29.4853 71.7894 29.352 71.2454 29.352C70.7014 29.352 70.2054 29.48 69.7574 29.736C69.3094 29.992 68.952 30.3653 68.6854 30.856C68.4187 31.3467 68.2854 31.9227 68.2854 32.584C68.2854 33.256 68.4187 33.8427 68.6854 34.344C68.952 34.8347 69.3094 35.2133 69.7574 35.48C70.2054 35.736 70.7014 35.864 71.2454 35.864C71.7894 35.864 72.2854 35.736 72.7334 35.48C73.192 35.2133 73.5547 34.8347 73.8214 34.344C74.088 33.8427 74.2214 33.2613 74.2214 32.6ZM86.1539 32.28C86.1539 32.5573 86.1379 32.8507 86.1059 33.16H79.0979C79.1512 34.024 79.4445 34.7013 79.9779 35.192C80.5219 35.672 81.1779 35.912 81.9459 35.912C82.5752 35.912 83.0979 35.768 83.5139 35.48C83.9405 35.1813 84.2392 34.7867 84.4099 34.296H85.9779C85.7432 35.1387 85.2739 35.8267 84.5699 36.36C83.8659 36.8827 82.9912 37.144 81.9459 37.144C81.1139 37.144 80.3672 36.9573 79.7059 36.584C79.0552 36.2107 78.5432 35.6827 78.1699 35C77.7965 34.3067 77.6099 33.5067 77.6099 32.6C77.6099 31.6933 77.7912 30.8987 78.1539 30.216C78.5165 29.5333 79.0232 29.0107 79.6739 28.648C80.3352 28.2747 81.0925 28.088 81.9459 28.088C82.7779 28.088 83.5139 28.2693 84.1539 28.632C84.7939 28.9947 85.2845 29.496 85.6259 30.136C85.9779 30.7653 86.1539 31.48 86.1539 32.28ZM84.6499 31.976C84.6499 31.4213 84.5272 30.9467 84.2819 30.552C84.0365 30.1467 83.7005 29.8427 83.2739 29.64C82.8579 29.4267 82.3939 29.32 81.8819 29.32C81.1459 29.32 80.5165 29.5547 79.9939 30.024C79.4819 30.4933 79.1885 31.144 79.1139 31.976H84.6499ZM91.1798 37.144C90.5078 37.144 89.9051 37.032 89.3718 36.808C88.8384 36.5733 88.4171 36.2533 88.1078 35.848C87.7984 35.432 87.6278 34.9573 87.5958 34.424H89.0998C89.1424 34.8613 89.3451 35.2187 89.7078 35.496C90.0811 35.7733 90.5664 35.912 91.1638 35.912C91.7184 35.912 92.1558 35.7893 92.4758 35.544C92.7958 35.2987 92.9558 34.9893 92.9558 34.616C92.9558 34.232 92.7851 33.9493 92.4438 33.768C92.1024 33.576 91.5744 33.3893 90.8598 33.208C90.2091 33.0373 89.6758 32.8667 89.2598 32.696C88.8544 32.5147 88.5024 32.2533 88.2038 31.912C87.9158 31.56 87.7718 31.1013 87.7718 30.536C87.7718 30.088 87.9051 29.6773 88.1718 29.304C88.4384 28.9307 88.8171 28.6373 89.3078 28.424C89.7984 28.2 90.3584 28.088 90.9878 28.088C91.9584 28.088 92.7424 28.3333 93.3398 28.824C93.9371 29.3147 94.2571 29.9867 94.2998 30.84H92.8438C92.8118 30.3813 92.6251 30.0133 92.2838 29.736C91.9531 29.4587 91.5051 29.32 90.9398 29.32C90.4171 29.32 90.0011 29.432 89.6918 29.656C89.3824 29.88 89.2278 30.1733 89.2278 30.536C89.2278 30.824 89.3184 31.064 89.4998 31.256C89.6918 31.4373 89.9264 31.5867 90.2038 31.704C90.4918 31.8107 90.8864 31.9333 91.3878 32.072C92.0171 32.2427 92.5291 32.4133 92.9238 32.584C93.3184 32.744 93.6544 32.9893 93.9318 33.32C94.2198 33.6507 94.3691 34.0827 94.3798 34.616C94.3798 35.096 94.2464 35.528 93.9798 35.912C93.7131 36.296 93.3344 36.6 92.8438 36.824C92.3638 37.0373 91.8091 37.144 91.1798 37.144ZM96.8991 37.096C96.6218 37.096 96.3871 37 96.1951 36.808C96.0031 36.616 95.9071 36.3813 95.9071 36.104C95.9071 35.8267 96.0031 35.592 96.1951 35.4C96.3871 35.208 96.6218 35.112 96.8991 35.112C97.1658 35.112 97.3898 35.208 97.5711 35.4C97.7631 35.592 97.8591 35.8267 97.8591 36.104C97.8591 36.3813 97.7631 36.616 97.5711 36.808C97.3898 37 97.1658 37.096 96.8991 37.096ZM109.116 37.112C108.081 37.112 107.137 36.872 106.284 36.392C105.431 35.9013 104.753 35.224 104.252 34.36C103.761 33.4853 103.516 32.504 103.516 31.416C103.516 30.328 103.761 29.352 104.252 28.488C104.753 27.6133 105.431 26.936 106.284 26.456C107.137 25.9653 108.081 25.72 109.116 25.72C110.161 25.72 111.111 25.9653 111.964 26.456C112.817 26.936 113.489 27.608 113.98 28.472C114.471 29.336 114.716 30.3173 114.716 31.416C114.716 32.5147 114.471 33.496 113.98 34.36C113.489 35.224 112.817 35.9013 111.964 36.392C111.111 36.872 110.161 37.112 109.116 37.112ZM109.116 35.848C109.895 35.848 110.593 35.6667 111.212 35.304C111.841 34.9413 112.332 34.424 112.684 33.752C113.047 33.08 113.228 32.3013 113.228 31.416C113.228 30.52 113.047 29.7413 112.684 29.08C112.332 28.408 111.847 27.8907 111.228 27.528C110.609 27.1653 109.905 26.984 109.116 26.984C108.327 26.984 107.623 27.1653 107.004 27.528C106.385 27.8907 105.895 28.408 105.532 29.08C105.18 29.7413 105.004 30.52 105.004 31.416C105.004 32.3013 105.18 33.08 105.532 33.752C105.895 34.424 106.385 34.9413 107.004 35.304C107.633 35.6667 108.337 35.848 109.116 35.848ZM120.91 28.072C121.977 28.072 122.841 28.3973 123.502 29.048C124.164 29.688 124.494 30.616 124.494 31.832V37H123.054V32.04C123.054 31.1653 122.836 30.4987 122.398 30.04C121.961 29.5707 121.364 29.336 120.606 29.336C119.838 29.336 119.225 29.576 118.766 30.056C118.318 30.536 118.094 31.2347 118.094 32.152V37H116.638V28.232H118.094V29.48C118.382 29.032 118.772 28.6853 119.262 28.44C119.764 28.1947 120.313 28.072 120.91 28.072ZM128.329 25.16V37H126.873V25.16H128.329ZM138.362 28.232L133.082 41.128H131.578L133.306 36.904L129.77 28.232H131.386L134.138 35.336L136.858 28.232H138.362ZM145.547 29.848C145.835 29.3467 146.262 28.9307 146.827 28.6C147.403 28.2587 148.07 28.088 148.827 28.088C149.606 28.088 150.31 28.2747 150.939 28.648C151.579 29.0213 152.081 29.5493 152.443 30.232C152.806 30.904 152.987 31.688 152.987 32.584C152.987 33.4693 152.806 34.2587 152.443 34.952C152.081 35.6453 151.579 36.184 150.939 36.568C150.31 36.952 149.606 37.144 148.827 37.144C148.081 37.144 147.419 36.9787 146.843 36.648C146.278 36.3067 145.846 35.8853 145.547 35.384V41.16H144.091V28.232H145.547V29.848ZM151.499 32.584C151.499 31.9227 151.366 31.3467 151.099 30.856C150.833 30.3653 150.47 29.992 150.011 29.736C149.563 29.48 149.067 29.352 148.523 29.352C147.99 29.352 147.494 29.4853 147.035 29.752C146.587 30.008 146.225 30.3867 145.947 30.888C145.681 31.3787 145.547 31.9493 145.547 32.6C145.547 33.2613 145.681 33.8427 145.947 34.344C146.225 34.8347 146.587 35.2133 147.035 35.48C147.494 35.736 147.99 35.864 148.523 35.864C149.067 35.864 149.563 35.736 150.011 35.48C150.47 35.2133 150.833 34.8347 151.099 34.344C151.366 33.8427 151.499 33.256 151.499 32.584ZM154.36 32.584C154.36 31.688 154.541 30.904 154.904 30.232C155.267 29.5493 155.763 29.0213 156.392 28.648C157.032 28.2747 157.741 28.088 158.52 28.088C159.288 28.088 159.955 28.2533 160.52 28.584C161.085 28.9147 161.507 29.3307 161.784 29.832V28.232H163.256V37H161.784V35.368C161.496 35.88 161.064 36.3067 160.488 36.648C159.923 36.9787 159.261 37.144 158.504 37.144C157.725 37.144 157.021 36.952 156.392 36.568C155.763 36.184 155.267 35.6453 154.904 34.952C154.541 34.2587 154.36 33.4693 154.36 32.584ZM161.784 32.6C161.784 31.9387 161.651 31.3627 161.384 30.872C161.117 30.3813 160.755 30.008 160.296 29.752C159.848 29.4853 159.352 29.352 158.808 29.352C158.264 29.352 157.768 29.48 157.32 29.736C156.872 29.992 156.515 30.3653 156.248 30.856C155.981 31.3467 155.848 31.9227 155.848 32.584C155.848 33.256 155.981 33.8427 156.248 34.344C156.515 34.8347 156.872 35.2133 157.32 35.48C157.768 35.736 158.264 35.864 158.808 35.864C159.352 35.864 159.848 35.736 160.296 35.48C160.755 35.2133 161.117 34.8347 161.384 34.344C161.651 33.8427 161.784 33.2613 161.784 32.6ZM173.268 28.232L167.988 41.128H166.484L168.212 36.904L164.676 28.232H166.292L169.044 35.336L171.764 28.232H173.268ZM186.774 28.232V37H185.318V35.704C185.04 36.152 184.651 36.504 184.15 36.76C183.659 37.0053 183.115 37.128 182.518 37.128C181.835 37.128 181.222 36.9893 180.678 36.712C180.134 36.424 179.702 35.9973 179.382 35.432C179.072 34.8667 178.918 34.1787 178.918 33.368V28.232H180.358V33.176C180.358 34.04 180.576 34.7067 181.014 35.176C181.451 35.6347 182.048 35.864 182.806 35.864C183.584 35.864 184.198 35.624 184.646 35.144C185.094 34.664 185.318 33.9653 185.318 33.048V28.232H186.774ZM192.336 37.144C191.664 37.144 191.061 37.032 190.528 36.808C189.995 36.5733 189.573 36.2533 189.264 35.848C188.955 35.432 188.784 34.9573 188.752 34.424H190.256C190.299 34.8613 190.501 35.2187 190.864 35.496C191.237 35.7733 191.723 35.912 192.32 35.912C192.875 35.912 193.312 35.7893 193.632 35.544C193.952 35.2987 194.112 34.9893 194.112 34.616C194.112 34.232 193.941 33.9493 193.6 33.768C193.259 33.576 192.731 33.3893 192.016 33.208C191.365 33.0373 190.832 32.8667 190.416 32.696C190.011 32.5147 189.659 32.2533 189.36 31.912C189.072 31.56 188.928 31.1013 188.928 30.536C188.928 30.088 189.061 29.6773 189.328 29.304C189.595 28.9307 189.973 28.6373 190.464 28.424C190.955 28.2 191.515 28.088 192.144 28.088C193.115 28.088 193.899 28.3333 194.496 28.824C195.093 29.3147 195.413 29.9867 195.456 30.84H194C193.968 30.3813 193.781 30.0133 193.44 29.736C193.109 29.4587 192.661 29.32 192.096 29.32C191.573 29.32 191.157 29.432 190.848 29.656C190.539 29.88 190.384 30.1733 190.384 30.536C190.384 30.824 190.475 31.064 190.656 31.256C190.848 31.4373 191.083 31.5867 191.36 31.704C191.648 31.8107 192.043 31.9333 192.544 32.072C193.173 32.2427 193.685 32.4133 194.08 32.584C194.475 32.744 194.811 32.9893 195.088 33.32C195.376 33.6507 195.525 34.0827 195.536 34.616C195.536 35.096 195.403 35.528 195.136 35.912C194.869 36.296 194.491 36.6 194 36.824C193.52 37.0373 192.965 37.144 192.336 37.144ZM201.313 32.584C201.313 31.688 201.494 30.904 201.857 30.232C202.22 29.5493 202.716 29.0213 203.345 28.648C203.985 28.2747 204.694 28.088 205.473 28.088C206.241 28.088 206.908 28.2533 207.473 28.584C208.038 28.9147 208.46 29.3307 208.737 29.832V28.232H210.209V37H208.737V35.368C208.449 35.88 208.017 36.3067 207.441 36.648C206.876 36.9787 206.214 37.144 205.457 37.144C204.678 37.144 203.974 36.952 203.345 36.568C202.716 36.184 202.22 35.6453 201.857 34.952C201.494 34.2587 201.313 33.4693 201.313 32.584ZM208.737 32.6C208.737 31.9387 208.604 31.3627 208.337 30.872C208.07 30.3813 207.708 30.008 207.249 29.752C206.801 29.4853 206.305 29.352 205.761 29.352C205.217 29.352 204.721 29.48 204.273 29.736C203.825 29.992 203.468 30.3653 203.201 30.856C202.934 31.3467 202.801 31.9227 202.801 32.584C202.801 33.256 202.934 33.8427 203.201 34.344C203.468 34.8347 203.825 35.2133 204.273 35.48C204.721 35.736 205.217 35.864 205.761 35.864C206.305 35.864 206.801 35.736 207.249 35.48C207.708 35.2133 208.07 34.8347 208.337 34.344C208.604 33.8427 208.737 33.2613 208.737 32.6ZM218.391 29.848C218.679 29.3467 219.106 28.9307 219.671 28.6C220.247 28.2587 220.914 28.088 221.671 28.088C222.45 28.088 223.154 28.2747 223.783 28.648C224.423 29.0213 224.924 29.5493 225.287 30.232C225.65 30.904 225.831 31.688 225.831 32.584C225.831 33.4693 225.65 34.2587 225.287 34.952C224.924 35.6453 224.423 36.184 223.783 36.568C223.154 36.952 222.45 37.144 221.671 37.144C220.924 37.144 220.263 36.9787 219.687 36.648C219.122 36.3067 218.69 35.8853 218.391 35.384V41.16H216.935V28.232H218.391V29.848ZM224.343 32.584C224.343 31.9227 224.21 31.3467 223.943 30.856C223.676 30.3653 223.314 29.992 222.855 29.736C222.407 29.48 221.911 29.352 221.367 29.352C220.834 29.352 220.338 29.4853 219.879 29.752C219.431 30.008 219.068 30.3867 218.791 30.888C218.524 31.3787 218.391 31.9493 218.391 32.6C218.391 33.2613 218.524 33.8427 218.791 34.344C219.068 34.8347 219.431 35.2133 219.879 35.48C220.338 35.736 220.834 35.864 221.367 35.864C221.911 35.864 222.407 35.736 222.855 35.48C223.314 35.2133 223.676 34.8347 223.943 34.344C224.21 33.8427 224.343 33.256 224.343 32.584ZM235.748 32.28C235.748 32.5573 235.732 32.8507 235.7 33.16H228.692C228.745 34.024 229.038 34.7013 229.572 35.192C230.116 35.672 230.772 35.912 231.54 35.912C232.169 35.912 232.692 35.768 233.108 35.48C233.534 35.1813 233.833 34.7867 234.004 34.296H235.572C235.337 35.1387 234.868 35.8267 234.164 36.36C233.46 36.8827 232.585 37.144 231.54 37.144C230.708 37.144 229.961 36.9573 229.3 36.584C228.649 36.2107 228.137 35.6827 227.764 35C227.39 34.3067 227.204 33.5067 227.204 32.6C227.204 31.6933 227.385 30.8987 227.748 30.216C228.11 29.5333 228.617 29.0107 229.268 28.648C229.929 28.2747 230.686 28.088 231.54 28.088C232.372 28.088 233.108 28.2693 233.748 28.632C234.388 28.9947 234.878 29.496 235.22 30.136C235.572 30.7653 235.748 31.48 235.748 32.28ZM234.244 31.976C234.244 31.4213 234.121 30.9467 233.876 30.552C233.63 30.1467 233.294 29.8427 232.868 29.64C232.452 29.4267 231.988 29.32 231.476 29.32C230.74 29.32 230.11 29.5547 229.588 30.024C229.076 30.4933 228.782 31.144 228.708 31.976H234.244ZM239.126 29.656C239.382 29.1547 239.744 28.7653 240.214 28.488C240.694 28.2107 241.275 28.072 241.958 28.072V29.576H241.574C239.942 29.576 239.126 30.4613 239.126 32.232V37H237.67V28.232H239.126V29.656ZM243.094 32.6C243.094 31.6933 243.276 30.904 243.638 30.232C244.001 29.5493 244.502 29.0213 245.142 28.648C245.793 28.2747 246.534 28.088 247.366 28.088C248.444 28.088 249.329 28.3493 250.022 28.872C250.726 29.3947 251.19 30.12 251.414 31.048H249.846C249.697 30.5147 249.404 30.0933 248.966 29.784C248.54 29.4747 248.006 29.32 247.366 29.32C246.534 29.32 245.862 29.608 245.35 30.184C244.838 30.7493 244.582 31.5547 244.582 32.6C244.582 33.656 244.838 34.472 245.35 35.048C245.862 35.624 246.534 35.912 247.366 35.912C248.006 35.912 248.54 35.7627 248.966 35.464C249.393 35.1653 249.686 34.7387 249.846 34.184H251.414C251.18 35.08 250.71 35.8 250.006 36.344C249.302 36.8773 248.422 37.144 247.366 37.144C246.534 37.144 245.793 36.9573 245.142 36.584C244.502 36.2107 244.001 35.6827 243.638 35C243.276 34.3173 243.094 33.5173 243.094 32.6ZM261.357 32.28C261.357 32.5573 261.341 32.8507 261.309 33.16H254.301C254.354 34.024 254.648 34.7013 255.181 35.192C255.725 35.672 256.381 35.912 257.149 35.912C257.778 35.912 258.301 35.768 258.717 35.48C259.144 35.1813 259.442 34.7867 259.613 34.296H261.181C260.946 35.1387 260.477 35.8267 259.773 36.36C259.069 36.8827 258.194 37.144 257.149 37.144C256.317 37.144 255.57 36.9573 254.909 36.584C254.258 36.2107 253.746 35.6827 253.373 35C253 34.3067 252.813 33.5067 252.813 32.6C252.813 31.6933 252.994 30.8987 253.357 30.216C253.72 29.5333 254.226 29.0107 254.877 28.648C255.538 28.2747 256.296 28.088 257.149 28.088C257.981 28.088 258.717 28.2693 259.357 28.632C259.997 28.9947 260.488 29.496 260.829 30.136C261.181 30.7653 261.357 31.48 261.357 32.28ZM259.853 31.976C259.853 31.4213 259.73 30.9467 259.485 30.552C259.24 30.1467 258.904 29.8427 258.477 29.64C258.061 29.4267 257.597 29.32 257.085 29.32C256.349 29.32 255.72 29.5547 255.197 30.024C254.685 30.4933 254.392 31.144 254.317 31.976H259.853ZM267.551 28.072C268.618 28.072 269.482 28.3973 270.143 29.048C270.804 29.688 271.135 30.616 271.135 31.832V37H269.695V32.04C269.695 31.1653 269.476 30.4987 269.039 30.04C268.602 29.5707 268.004 29.336 267.247 29.336C266.479 29.336 265.866 29.576 265.407 30.056C264.959 30.536 264.735 31.2347 264.735 32.152V37H263.279V28.232H264.735V29.48C265.023 29.032 265.412 28.6853 265.903 28.44C266.404 28.1947 266.954 28.072 267.551 28.072ZM275.289 29.432V34.6C275.289 35.0267 275.38 35.3307 275.561 35.512C275.743 35.6827 276.057 35.768 276.505 35.768H277.577V37H276.265C275.455 37 274.847 36.8133 274.441 36.44C274.036 36.0667 273.833 35.4533 273.833 34.6V29.432H272.697V28.232H273.833V26.024H275.289V28.232H277.577V29.432H275.289ZM278.797 32.584C278.797 31.688 278.979 30.904 279.341 30.232C279.704 29.5493 280.2 29.0213 280.829 28.648C281.469 28.2747 282.179 28.088 282.957 28.088C283.725 28.088 284.392 28.2533 284.957 28.584C285.523 28.9147 285.944 29.3307 286.221 29.832V28.232H287.693V37H286.221V35.368C285.933 35.88 285.501 36.3067 284.925 36.648C284.36 36.9787 283.699 37.144 282.941 37.144C282.163 37.144 281.459 36.952 280.829 36.568C280.2 36.184 279.704 35.6453 279.341 34.952C278.979 34.2587 278.797 33.4693 278.797 32.584ZM286.221 32.6C286.221 31.9387 286.088 31.3627 285.821 30.872C285.555 30.3813 285.192 30.008 284.733 29.752C284.285 29.4853 283.789 29.352 283.245 29.352C282.701 29.352 282.205 29.48 281.757 29.736C281.309 29.992 280.952 30.3653 280.685 30.856C280.419 31.3467 280.285 31.9227 280.285 32.584C280.285 33.256 280.419 33.8427 280.685 34.344C280.952 34.8347 281.309 35.2133 281.757 35.48C282.205 35.736 282.701 35.864 283.245 35.864C283.789 35.864 284.285 35.736 284.733 35.48C285.192 35.2133 285.555 34.8347 285.821 34.344C286.088 33.8427 286.221 33.2613 286.221 32.6ZM293.77 28.088C294.527 28.088 295.189 28.2533 295.754 28.584C296.33 28.9147 296.757 29.3307 297.034 29.832V28.232H298.506V37.192C298.506 37.992 298.335 38.7013 297.994 39.32C297.653 39.9493 297.162 40.44 296.522 40.792C295.893 41.144 295.157 41.32 294.314 41.32C293.162 41.32 292.202 41.048 291.434 40.504C290.666 39.96 290.213 39.2187 290.074 38.28H291.514C291.674 38.8133 292.005 39.24 292.506 39.56C293.007 39.8907 293.61 40.056 294.314 40.056C295.114 40.056 295.765 39.8053 296.266 39.304C296.778 38.8027 297.034 38.0987 297.034 37.192V35.352C296.746 35.864 296.319 36.2907 295.754 36.632C295.189 36.9733 294.527 37.144 293.77 37.144C292.991 37.144 292.282 36.952 291.642 36.568C291.013 36.184 290.517 35.6453 290.154 34.952C289.791 34.2587 289.61 33.4693 289.61 32.584C289.61 31.688 289.791 30.904 290.154 30.232C290.517 29.5493 291.013 29.0213 291.642 28.648C292.282 28.2747 292.991 28.088 293.77 28.088ZM297.034 32.6C297.034 31.9387 296.901 31.3627 296.634 30.872C296.367 30.3813 296.005 30.008 295.546 29.752C295.098 29.4853 294.602 29.352 294.058 29.352C293.514 29.352 293.018 29.48 292.57 29.736C292.122 29.992 291.765 30.3653 291.498 30.856C291.231 31.3467 291.098 31.9227 291.098 32.584C291.098 33.256 291.231 33.8427 291.498 34.344C291.765 34.8347 292.122 35.2133 292.57 35.48C293.018 35.736 293.514 35.864 294.058 35.864C294.602 35.864 295.098 35.736 295.546 35.48C296.005 35.2133 296.367 34.8347 296.634 34.344C296.901 33.8427 297.034 33.2613 297.034 32.6ZM308.966 32.28C308.966 32.5573 308.95 32.8507 308.918 33.16H301.91C301.964 34.024 302.257 34.7013 302.79 35.192C303.334 35.672 303.99 35.912 304.758 35.912C305.388 35.912 305.91 35.768 306.326 35.48C306.753 35.1813 307.052 34.7867 307.222 34.296H308.79C308.556 35.1387 308.086 35.8267 307.382 36.36C306.678 36.8827 305.804 37.144 304.758 37.144C303.926 37.144 303.18 36.9573 302.518 36.584C301.868 36.2107 301.356 35.6827 300.982 35C300.609 34.3067 300.422 33.5067 300.422 32.6C300.422 31.6933 300.604 30.8987 300.966 30.216C301.329 29.5333 301.836 29.0107 302.486 28.648C303.148 28.2747 303.905 28.088 304.758 28.088C305.59 28.088 306.326 28.2693 306.966 28.632C307.606 28.9947 308.097 29.496 308.438 30.136C308.79 30.7653 308.966 31.48 308.966 32.28ZM307.462 31.976C307.462 31.4213 307.34 30.9467 307.094 30.552C306.849 30.1467 306.513 29.8427 306.086 29.64C305.67 29.4267 305.206 29.32 304.694 29.32C303.958 29.32 303.329 29.5547 302.806 30.024C302.294 30.4933 302.001 31.144 301.926 31.976H307.462ZM12.912 52.232L10.176 61H8.672L6.56 54.04L4.448 61H2.944L0.192 52.232H1.68L3.696 59.592L5.872 52.232H7.36L9.488 59.608L11.472 52.232H12.912ZM18.709 52.072C19.3703 52.072 19.9677 52.216 20.501 52.504C21.0343 52.7813 21.4503 53.2027 21.749 53.768C22.0583 54.3333 22.213 55.0213 22.213 55.832V61H20.773V56.04C20.773 55.1653 20.5543 54.4987 20.117 54.04C19.6797 53.5707 19.0823 53.336 18.325 53.336C17.557 53.336 16.9437 53.576 16.485 54.056C16.037 54.536 15.813 55.2347 15.813 56.152V61H14.357V49.16H15.813V53.48C16.101 53.032 16.4957 52.6853 16.997 52.44C17.509 52.1947 18.0797 52.072 18.709 52.072ZM32.5914 56.28C32.5914 56.5573 32.5754 56.8507 32.5434 57.16H25.5354C25.5887 58.024 25.882 58.7013 26.4154 59.192C26.9594 59.672 27.6154 59.912 28.3834 59.912C29.0127 59.912 29.5354 59.768 29.9514 59.48C30.378 59.1813 30.6767 58.7867 30.8474 58.296H32.4154C32.1807 59.1387 31.7114 59.8267 31.0074 60.36C30.3034 60.8827 29.4287 61.144 28.3834 61.144C27.5514 61.144 26.8047 60.9573 26.1434 60.584C25.4927 60.2107 24.9807 59.6827 24.6074 59C24.234 58.3067 24.0474 57.5067 24.0474 56.6C24.0474 55.6933 24.2287 54.8987 24.5914 54.216C24.954 53.5333 25.4607 53.0107 26.1114 52.648C26.7727 52.2747 27.53 52.088 28.3834 52.088C29.2154 52.088 29.9514 52.2693 30.5914 52.632C31.2314 52.9947 31.722 53.496 32.0634 54.136C32.4154 54.7653 32.5914 55.48 32.5914 56.28ZM31.0874 55.976C31.0874 55.4213 30.9647 54.9467 30.7194 54.552C30.474 54.1467 30.138 53.8427 29.7114 53.64C29.2954 53.4267 28.8314 53.32 28.3194 53.32C27.5834 53.32 26.954 53.5547 26.4314 54.024C25.9194 54.4933 25.626 55.144 25.5514 55.976H31.0874ZM38.7853 52.072C39.8519 52.072 40.7159 52.3973 41.3773 53.048C42.0386 53.688 42.3693 54.616 42.3693 55.832V61H40.9293V56.04C40.9293 55.1653 40.7106 54.4987 40.2733 54.04C39.8359 53.5707 39.2386 53.336 38.4813 53.336C37.7133 53.336 37.0999 53.576 36.6413 54.056C36.1933 54.536 35.9693 55.2347 35.9693 56.152V61H34.5133V52.232H35.9693V53.48C36.2573 53.032 36.6466 52.6853 37.1373 52.44C37.6386 52.1947 38.1879 52.072 38.7853 52.072ZM56.5653 52.232L51.2853 65.128H49.7812L51.5093 60.904L47.9733 52.232H49.5893L52.3413 59.336L55.0613 52.232H56.5653ZM61.8529 61.144C61.0315 61.144 60.2849 60.9573 59.6129 60.584C58.9515 60.2107 58.4289 59.6827 58.0449 59C57.6715 58.3067 57.4849 57.5067 57.4849 56.6C57.4849 55.704 57.6769 54.9147 58.0609 54.232C58.4555 53.5387 58.9889 53.0107 59.6609 52.648C60.3329 52.2747 61.0849 52.088 61.9169 52.088C62.7489 52.088 63.5009 52.2747 64.1729 52.648C64.8449 53.0107 65.3729 53.5333 65.7569 54.216C66.1515 54.8987 66.3489 55.6933 66.3489 56.6C66.3489 57.5067 66.1462 58.3067 65.7409 59C65.3462 59.6827 64.8075 60.2107 64.1249 60.584C63.4422 60.9573 62.6849 61.144 61.8529 61.144ZM61.8529 59.864C62.3755 59.864 62.8662 59.7413 63.3249 59.496C63.7835 59.2507 64.1515 58.8827 64.4289 58.392C64.7169 57.9013 64.8609 57.304 64.8609 56.6C64.8609 55.896 64.7222 55.2987 64.4449 54.808C64.1675 54.3173 63.8049 53.9547 63.3569 53.72C62.9089 53.4747 62.4235 53.352 61.9009 53.352C61.3675 53.352 60.8769 53.4747 60.4289 53.72C59.9915 53.9547 59.6395 54.3173 59.3729 54.808C59.1062 55.2987 58.9729 55.896 58.9729 56.6C58.9729 57.3147 59.1009 57.9173 59.3569 58.408C59.6235 58.8987 59.9755 59.2667 60.4129 59.512C60.8502 59.7467 61.3302 59.864 61.8529 59.864ZM76.0393 52.232V61H74.5833V59.704C74.3059 60.152 73.9166 60.504 73.4153 60.76C72.9246 61.0053 72.3806 61.128 71.7833 61.128C71.1006 61.128 70.4873 60.9893 69.9433 60.712C69.3993 60.424 68.9673 59.9973 68.6473 59.432C68.3379 58.8667 68.1833 58.1787 68.1833 57.368V52.232H69.6233V57.176C69.6233 58.04 69.8419 58.7067 70.2793 59.176C70.7166 59.6347 71.3139 59.864 72.0713 59.864C72.8499 59.864 73.4633 59.624 73.9113 59.144C74.3593 58.664 74.5833 57.9653 74.5833 57.048V52.232H76.0393ZM93.3073 52.072C93.9899 52.072 94.5979 52.216 95.1313 52.504C95.6646 52.7813 96.0859 53.2027 96.3953 53.768C96.7046 54.3333 96.8593 55.0213 96.8593 55.832V61H95.4193V56.04C95.4193 55.1653 95.2006 54.4987 94.7633 54.04C94.3366 53.5707 93.7553 53.336 93.0193 53.336C92.2619 53.336 91.6593 53.5813 91.2113 54.072C90.7633 54.552 90.5393 55.2507 90.5393 56.168V61H89.0993V56.04C89.0993 55.1653 88.8806 54.4987 88.4433 54.04C88.0166 53.5707 87.4353 53.336 86.6993 53.336C85.9419 53.336 85.3393 53.5813 84.8913 54.072C84.4433 54.552 84.2193 55.2507 84.2193 56.168V61H82.7633V52.232H84.2193V53.496C84.5073 53.0373 84.8913 52.6853 85.3713 52.44C85.8619 52.1947 86.4006 52.072 86.9873 52.072C87.7233 52.072 88.3739 52.2373 88.9393 52.568C89.5046 52.8987 89.9259 53.384 90.2033 54.024C90.4486 53.4053 90.8539 52.9253 91.4193 52.584C91.9846 52.2427 92.6139 52.072 93.3073 52.072ZM98.7036 56.584C98.7036 55.688 98.885 54.904 99.2476 54.232C99.6103 53.5493 100.106 53.0213 100.736 52.648C101.376 52.2747 102.085 52.088 102.864 52.088C103.632 52.088 104.298 52.2533 104.864 52.584C105.429 52.9147 105.85 53.3307 106.128 53.832V52.232H107.6V61H106.128V59.368C105.84 59.88 105.408 60.3067 104.832 60.648C104.266 60.9787 103.605 61.144 102.848 61.144C102.069 61.144 101.365 60.952 100.736 60.568C100.106 60.184 99.6103 59.6453 99.2476 58.952C98.885 58.2587 98.7036 57.4693 98.7036 56.584ZM106.128 56.6C106.128 55.9387 105.994 55.3627 105.728 54.872C105.461 54.3813 105.098 54.008 104.64 53.752C104.192 53.4853 103.696 53.352 103.152 53.352C102.608 53.352 102.112 53.48 101.664 53.736C101.216 53.992 100.858 54.3653 100.592 54.856C100.325 55.3467 100.192 55.9227 100.192 56.584C100.192 57.256 100.325 57.8427 100.592 58.344C100.858 58.8347 101.216 59.2133 101.664 59.48C102.112 59.736 102.608 59.864 103.152 59.864C103.696 59.864 104.192 59.736 104.64 59.48C105.098 59.2133 105.461 58.8347 105.728 58.344C105.994 57.8427 106.128 57.2613 106.128 56.6ZM114.956 61L111.516 57.128V61H110.06V49.16H111.516V56.12L114.892 52.232H116.924L112.796 56.6L116.94 61H114.956ZM126.295 56.28C126.295 56.5573 126.279 56.8507 126.247 57.16H119.239C119.292 58.024 119.585 58.7013 120.119 59.192C120.663 59.672 121.319 59.912 122.087 59.912C122.716 59.912 123.239 59.768 123.655 59.48C124.081 59.1813 124.38 58.7867 124.551 58.296H126.119C125.884 59.1387 125.415 59.8267 124.711 60.36C124.007 60.8827 123.132 61.144 122.087 61.144C121.255 61.144 120.508 60.9573 119.847 60.584C119.196 60.2107 118.684 59.6827 118.311 59C117.937 58.3067 117.751 57.5067 117.751 56.6C117.751 55.6933 117.932 54.8987 118.295 54.216C118.657 53.5333 119.164 53.0107 119.815 52.648C120.476 52.2747 121.233 52.088 122.087 52.088C122.919 52.088 123.655 52.2693 124.295 52.632C124.935 52.9947 125.425 53.496 125.767 54.136C126.119 54.7653 126.295 55.48 126.295 56.28ZM124.791 55.976C124.791 55.4213 124.668 54.9467 124.423 54.552C124.177 54.1467 123.841 53.8427 123.415 53.64C122.999 53.4267 122.535 53.32 122.023 53.32C121.287 53.32 120.657 53.5547 120.135 54.024C119.623 54.4933 119.329 55.144 119.255 55.976H124.791ZM131.938 56.584C131.938 55.688 132.119 54.904 132.482 54.232C132.845 53.5493 133.341 53.0213 133.97 52.648C134.61 52.2747 135.319 52.088 136.098 52.088C136.866 52.088 137.533 52.2533 138.098 52.584C138.663 52.9147 139.085 53.3307 139.362 53.832V52.232H140.834V61H139.362V59.368C139.074 59.88 138.642 60.3067 138.066 60.648C137.501 60.9787 136.839 61.144 136.082 61.144C135.303 61.144 134.599 60.952 133.97 60.568C133.341 60.184 132.845 59.6453 132.482 58.952C132.119 58.2587 131.938 57.4693 131.938 56.584ZM139.362 56.6C139.362 55.9387 139.229 55.3627 138.962 54.872C138.695 54.3813 138.333 54.008 137.874 53.752C137.426 53.4853 136.93 53.352 136.386 53.352C135.842 53.352 135.346 53.48 134.898 53.736C134.45 53.992 134.093 54.3653 133.826 54.856C133.559 55.3467 133.426 55.9227 133.426 56.584C133.426 57.256 133.559 57.8427 133.826 58.344C134.093 58.8347 134.45 59.2133 134.898 59.48C135.346 59.736 135.842 59.864 136.386 59.864C136.93 59.864 137.426 59.736 137.874 59.48C138.333 59.2133 138.695 58.8347 138.962 58.344C139.229 57.8427 139.362 57.2613 139.362 56.6ZM150.664 61.144C149.992 61.144 149.389 61.032 148.856 60.808C148.323 60.5733 147.901 60.2533 147.592 59.848C147.283 59.432 147.112 58.9573 147.08 58.424H148.584C148.627 58.8613 148.829 59.2187 149.192 59.496C149.565 59.7733 150.051 59.912 150.648 59.912C151.203 59.912 151.64 59.7893 151.96 59.544C152.28 59.2987 152.44 58.9893 152.44 58.616C152.44 58.232 152.269 57.9493 151.928 57.768C151.587 57.576 151.059 57.3893 150.344 57.208C149.693 57.0373 149.16 56.8667 148.744 56.696C148.339 56.5147 147.987 56.2533 147.688 55.912C147.4 55.56 147.256 55.1013 147.256 54.536C147.256 54.088 147.389 53.6773 147.656 53.304C147.923 52.9307 148.301 52.6373 148.792 52.424C149.283 52.2 149.843 52.088 150.472 52.088C151.443 52.088 152.227 52.3333 152.824 52.824C153.421 53.3147 153.741 53.9867 153.784 54.84H152.328C152.296 54.3813 152.109 54.0133 151.768 53.736C151.437 53.4587 150.989 53.32 150.424 53.32C149.901 53.32 149.485 53.432 149.176 53.656C148.867 53.88 148.712 54.1733 148.712 54.536C148.712 54.824 148.803 55.064 148.984 55.256C149.176 55.4373 149.411 55.5867 149.688 55.704C149.976 55.8107 150.371 55.9333 150.872 56.072C151.501 56.2427 152.013 56.4133 152.408 56.584C152.803 56.744 153.139 56.9893 153.416 57.32C153.704 57.6507 153.853 58.0827 153.864 58.616C153.864 59.096 153.731 59.528 153.464 59.912C153.197 60.296 152.819 60.6 152.328 60.824C151.848 61.0373 151.293 61.144 150.664 61.144ZM155.376 56.584C155.376 55.688 155.557 54.904 155.92 54.232C156.282 53.5493 156.778 53.0213 157.408 52.648C158.048 52.2747 158.757 52.088 159.536 52.088C160.304 52.088 160.97 52.2533 161.536 52.584C162.101 52.9147 162.522 53.3307 162.8 53.832V52.232H164.272V61H162.8V59.368C162.512 59.88 162.08 60.3067 161.504 60.648C160.938 60.9787 160.277 61.144 159.52 61.144C158.741 61.144 158.037 60.952 157.408 60.568C156.778 60.184 156.282 59.6453 155.92 58.952C155.557 58.2587 155.376 57.4693 155.376 56.584ZM162.8 56.6C162.8 55.9387 162.666 55.3627 162.4 54.872C162.133 54.3813 161.77 54.008 161.312 53.752C160.864 53.4853 160.368 53.352 159.824 53.352C159.28 53.352 158.784 53.48 158.336 53.736C157.888 53.992 157.53 54.3653 157.264 54.856C156.997 55.3467 156.864 55.9227 156.864 56.584C156.864 57.256 156.997 57.8427 157.264 58.344C157.53 58.8347 157.888 59.2133 158.336 59.48C158.784 59.736 159.28 59.864 159.824 59.864C160.368 59.864 160.864 59.736 161.312 59.48C161.77 59.2133 162.133 58.8347 162.4 58.344C162.666 57.8427 162.8 57.2613 162.8 56.6ZM168.188 49.16V61H166.732V49.16H168.188ZM178.67 56.28C178.67 56.5573 178.654 56.8507 178.622 57.16H171.614C171.667 58.024 171.96 58.7013 172.494 59.192C173.038 59.672 173.694 59.912 174.462 59.912C175.091 59.912 175.614 59.768 176.03 59.48C176.456 59.1813 176.755 58.7867 176.926 58.296H178.494C178.259 59.1387 177.79 59.8267 177.086 60.36C176.382 60.8827 175.507 61.144 174.462 61.144C173.63 61.144 172.883 60.9573 172.222 60.584C171.571 60.2107 171.059 59.6827 170.686 59C170.312 58.3067 170.126 57.5067 170.126 56.6C170.126 55.6933 170.307 54.8987 170.67 54.216C171.032 53.5333 171.539 53.0107 172.19 52.648C172.851 52.2747 173.608 52.088 174.462 52.088C175.294 52.088 176.03 52.2693 176.67 52.632C177.31 52.9947 177.8 53.496 178.142 54.136C178.494 54.7653 178.67 55.48 178.67 56.28ZM177.166 55.976C177.166 55.4213 177.043 54.9467 176.798 54.552C176.552 54.1467 176.216 53.8427 175.79 53.64C175.374 53.4267 174.91 53.32 174.398 53.32C173.662 53.32 173.032 53.5547 172.51 54.024C171.998 54.4933 171.704 55.144 171.63 55.976H177.166ZM181.055 61.096C180.778 61.096 180.543 61 180.351 60.808C180.159 60.616 180.063 60.3813 180.063 60.104C180.063 59.8267 180.159 59.592 180.351 59.4C180.543 59.208 180.778 59.112 181.055 59.112C181.322 59.112 181.546 59.208 181.727 59.4C181.919 59.592 182.015 59.8267 182.015 60.104C182.015 60.3813 181.919 60.616 181.727 60.808C181.546 61 181.322 61.096 181.055 61.096Z" fill="white"/>
</svg>
