<svg width="100" height="14" viewBox="0 0 100 14" fill="none" xmlns="http://www.w3.org/2000/svg">
<path d="M3.94682 10.0874C3.33715 10.0874 2.78594 9.98305 2.29319 9.77426C1.80879 9.56547 1.42462 9.26481 1.14066 8.87228C0.856702 8.47975 0.710548 8.01623 0.702196 7.48173H2.58132C2.60638 7.84085 2.73165 8.12481 2.95715 8.3336C3.19099 8.54239 3.50836 8.64679 3.90924 8.64679C4.31847 8.64679 4.64001 8.55074 4.87385 8.35865C5.1077 8.15821 5.22462 7.89931 5.22462 7.58195C5.22462 7.32305 5.14528 7.11008 4.9866 6.94305C4.82792 6.77601 4.62748 6.64656 4.38528 6.55469C4.15144 6.45447 3.82572 6.3459 3.40814 6.22898C2.84022 6.06194 2.37671 5.89909 2.01758 5.74041C1.66681 5.57337 1.36198 5.327 1.10308 5.00128C0.852526 4.66722 0.727251 4.22458 0.727251 3.67337C0.727251 3.15556 0.856702 2.70457 1.1156 2.3204C1.37451 1.93622 1.7378 1.64391 2.2055 1.44347C2.67319 1.23468 3.2077 1.13028 3.80902 1.13028C4.711 1.13028 5.44177 1.3516 6.00133 1.79424C6.56924 2.22853 6.88243 2.8382 6.94089 3.62326H5.01166C4.99495 3.3226 4.8655 3.07622 4.6233 2.88413C4.38946 2.68369 4.07627 2.58347 3.68374 2.58347C3.34132 2.58347 3.06572 2.67117 2.85693 2.84655C2.65649 3.02194 2.55627 3.27666 2.55627 3.61073C2.55627 3.84458 2.63143 4.04084 2.78176 4.19952C2.94044 4.34985 3.13253 4.47513 3.35803 4.57535C3.59187 4.66722 3.91759 4.77579 4.33517 4.90106C4.90309 5.0681 5.3666 5.23513 5.72572 5.40216C6.08485 5.5692 6.39386 5.81975 6.65276 6.15381C6.91166 6.48788 7.04111 6.92634 7.04111 7.4692C7.04111 7.93689 6.92001 8.37118 6.67781 8.77206C6.43562 9.17294 6.08067 9.49448 5.61298 9.73668C5.14528 9.97053 4.5899 10.0874 3.94682 10.0874ZM9.45109 2.2327C9.14208 2.2327 8.88318 2.13666 8.67439 1.94457C8.47395 1.74413 8.37373 1.49776 8.37373 1.20545C8.37373 0.913141 8.47395 0.670942 8.67439 0.478854C8.88318 0.278414 9.14208 0.178194 9.45109 0.178194C9.7601 0.178194 10.0148 0.278414 10.2153 0.478854C10.4241 0.670942 10.5285 0.913141 10.5285 1.20545C10.5285 1.49776 10.4241 1.74413 10.2153 1.94457C10.0148 2.13666 9.7601 2.2327 9.45109 2.2327ZM10.3155 3.05952V9.99976H8.56164V3.05952H10.3155ZM14.7668 2.94677C15.2846 2.94677 15.7397 3.05117 16.1323 3.25996C16.5248 3.4604 16.8338 3.72348 17.0593 4.04919V3.05952H18.8257V10.0499C18.8257 10.6929 18.6962 11.265 18.4373 11.7661C18.1784 12.2756 17.7901 12.6765 17.2723 12.9688C16.7545 13.2694 16.1281 13.4198 15.3931 13.4198C14.4076 13.4198 13.5975 13.1901 12.9628 12.7308C12.3364 12.2714 11.9815 11.645 11.898 10.8516H13.6393C13.7312 11.169 13.9274 11.4195 14.2281 11.6033C14.5371 11.7954 14.9087 11.8914 15.343 11.8914C15.8525 11.8914 16.2659 11.7369 16.5833 11.4279C16.9006 11.1272 17.0593 10.6679 17.0593 10.0499V8.9725C16.8338 9.29822 16.5206 9.56964 16.1197 9.78679C15.7272 10.0039 15.2762 10.1125 14.7668 10.1125C14.1821 10.1125 13.6476 9.96217 13.1632 9.66151C12.6788 9.36085 12.2947 8.93909 12.0107 8.39624C11.7351 7.84503 11.5973 7.21447 11.5973 6.50458C11.5973 5.80304 11.7351 5.18084 12.0107 4.63798C12.2947 4.09513 12.6747 3.67754 13.1507 3.38523C13.6351 3.09293 14.1738 2.94677 14.7668 2.94677ZM17.0593 6.52964C17.0593 6.1037 16.9758 5.7404 16.8087 5.43974C16.6417 5.13073 16.4162 4.89689 16.1323 4.7382C15.8483 4.57117 15.5435 4.48765 15.2178 4.48765C14.892 4.48765 14.5914 4.567 14.3158 4.72568C14.0402 4.88436 13.8147 5.11821 13.6393 5.42722C13.4723 5.72788 13.3887 6.087 13.3887 6.50458C13.3887 6.92217 13.4723 7.28964 13.6393 7.607C13.8147 7.91601 14.0402 8.15404 14.3158 8.32107C14.5997 8.4881 14.9004 8.57162 15.2178 8.57162C15.5435 8.57162 15.8483 8.49228 16.1323 8.3336C16.4162 8.16656 16.6417 7.93272 16.8087 7.63206C16.9758 7.32305 17.0593 6.95557 17.0593 6.52964ZM24.3846 2.9593C25.2114 2.9593 25.8795 3.22238 26.389 3.74853C26.8984 4.26634 27.1531 4.99293 27.1531 5.92832V9.99976H25.3993V6.16634C25.3993 5.61513 25.2615 5.19337 24.9859 4.90106C24.7103 4.6004 24.3344 4.45007 23.8584 4.45007C23.374 4.45007 22.9898 4.6004 22.7059 4.90106C22.4303 5.19337 22.2925 5.61513 22.2925 6.16634V9.99976H20.5386V3.05952H22.2925V3.92392C22.5263 3.62326 22.8228 3.38941 23.1819 3.22238C23.5494 3.04699 23.9503 2.9593 24.3846 2.9593ZM38.3579 3.05952V9.99976H36.5915V9.12283C36.366 9.42349 36.0696 9.66151 35.7021 9.8369C35.343 10.0039 34.9504 10.0874 34.5245 10.0874C33.9816 10.0874 33.5014 9.9747 33.0838 9.74921C32.6662 9.51536 32.3364 9.17712 32.0942 8.73448C31.8603 8.28349 31.7434 7.74898 31.7434 7.13096V3.05952H33.4972V6.88041C33.4972 7.43162 33.635 7.85755 33.9106 8.15821C34.1863 8.45052 34.5621 8.59668 35.0381 8.59668C35.5225 8.59668 35.9025 8.45052 36.1781 8.15821C36.4537 7.85755 36.5915 7.43162 36.5915 6.88041V3.05952H38.3579ZM41.8422 4.06172C42.0677 3.74436 42.3767 3.48128 42.7693 3.27249C43.1701 3.05534 43.6253 2.94677 44.1348 2.94677C44.7277 2.94677 45.2622 3.09293 45.7383 3.38523C46.2227 3.67754 46.6027 4.09513 46.8783 4.63798C47.1622 5.17249 47.3042 5.79469 47.3042 6.50458C47.3042 7.21447 47.1622 7.84503 46.8783 8.39624C46.6027 8.93909 46.2227 9.36085 45.7383 9.66151C45.2622 9.96217 44.7277 10.1125 44.1348 10.1125C43.6253 10.1125 43.1743 10.0081 42.7818 9.79932C42.3976 9.59052 42.0844 9.32745 41.8422 9.01008V13.307H40.0884V3.05952H41.8422V4.06172ZM45.5128 6.50458C45.5128 6.087 45.4251 5.72788 45.2497 5.42722C45.0827 5.11821 44.8572 4.88436 44.5732 4.72568C44.2976 4.567 43.997 4.48765 43.6712 4.48765C43.3539 4.48765 43.0532 4.57117 42.7693 4.7382C42.4937 4.89689 42.2682 5.13073 42.0928 5.43974C41.9257 5.74876 41.8422 6.11205 41.8422 6.52964C41.8422 6.94722 41.9257 7.31052 42.0928 7.61953C42.2682 7.92854 42.4937 8.16656 42.7693 8.3336C43.0532 8.49228 43.3539 8.57162 43.6712 8.57162C43.997 8.57162 44.2976 8.4881 44.5732 8.32107C44.8572 8.15404 45.0827 7.91601 45.2497 7.607C45.4251 7.29799 45.5128 6.93052 45.5128 6.50458ZM61.1849 3.05952L59.1554 9.99976H57.2638L55.9985 5.15161L54.7332 9.99976H52.829L50.7871 3.05952H52.566L53.7937 8.34613L55.1216 3.05952H56.9756L58.2785 8.3336L59.5062 3.05952H61.1849ZM63.0233 2.2327C62.7143 2.2327 62.4554 2.13666 62.2466 1.94457C62.0461 1.74413 61.9459 1.49776 61.9459 1.20545C61.9459 0.913141 62.0461 0.670942 62.2466 0.478854C62.4554 0.278414 62.7143 0.178194 63.0233 0.178194C63.3323 0.178194 63.587 0.278414 63.7875 0.478854C63.9963 0.670942 64.1007 0.913141 64.1007 1.20545C64.1007 1.49776 63.9963 1.74413 63.7875 1.94457C63.587 2.13666 63.3323 2.2327 63.0233 2.2327ZM63.8877 3.05952V9.99976H62.1338V3.05952H63.8877ZM67.6625 4.50018V7.85755C67.6625 8.0914 67.7168 8.26261 67.8253 8.37118C67.9423 8.4714 68.1343 8.52151 68.4016 8.52151H69.2159V9.99976H68.1135C66.6352 9.99976 65.8961 9.28151 65.8961 7.84503V4.50018H65.0693V3.05952H65.8961V1.34325H67.6625V3.05952H69.2159V4.50018H67.6625ZM74.3859 2.9593C74.9121 2.9593 75.3798 3.07622 75.789 3.31007C76.1982 3.53556 76.5156 3.87381 76.7411 4.3248C76.9749 4.76744 77.0919 5.30194 77.0919 5.92832V9.99976H75.338V6.16634C75.338 5.61513 75.2002 5.19337 74.9246 4.90106C74.649 4.6004 74.2732 4.45007 73.7971 4.45007C73.3127 4.45007 72.9286 4.6004 72.6446 4.90106C72.369 5.19337 72.2312 5.61513 72.2312 6.16634V9.99976H70.4774V0.729404H72.2312V3.92392C72.4567 3.62326 72.7574 3.38941 73.1332 3.22238C73.509 3.04699 73.9266 2.9593 74.3859 2.9593ZM88.2966 3.05952V9.99976H86.5303V9.12283C86.3048 9.42349 86.0083 9.66151 85.6408 9.8369C85.2817 10.0039 84.8892 10.0874 84.4632 10.0874C83.9204 10.0874 83.4401 9.9747 83.0226 9.74921C82.605 9.51536 82.2751 9.17712 82.0329 8.73448C81.799 8.28349 81.6821 7.74898 81.6821 7.13096V3.05952H83.436V6.88041C83.436 7.43162 83.5738 7.85755 83.8494 8.15821C84.125 8.45052 84.5008 8.59668 84.9769 8.59668C85.4613 8.59668 85.8413 8.45052 86.1169 8.15821C86.3925 7.85755 86.5303 7.43162 86.5303 6.88041V3.05952H88.2966ZM92.6829 10.1125C92.115 10.1125 91.6056 10.0123 91.1546 9.81184C90.7036 9.60305 90.3445 9.32327 90.0772 8.9725C89.8183 8.62173 89.6763 8.23338 89.6513 7.80744H91.4177C91.4511 8.0747 91.5805 8.29602 91.806 8.4714C92.0399 8.64679 92.328 8.73448 92.6704 8.73448C93.0045 8.73448 93.2634 8.66766 93.4471 8.53404C93.6392 8.40041 93.7352 8.2292 93.7352 8.02041C93.7352 7.79492 93.6183 7.62788 93.3845 7.51931C93.159 7.40239 92.7957 7.27711 92.2946 7.14349C91.7768 7.01821 91.3508 6.88876 91.0168 6.75513C90.6911 6.62151 90.4071 6.41689 90.1649 6.14128C89.9311 5.86568 89.8141 5.49403 89.8141 5.02634C89.8141 4.64216 89.9227 4.29139 90.1398 3.97403C90.3653 3.65666 90.6827 3.40611 91.0919 3.22238C91.5095 3.03864 91.9981 2.94677 92.5577 2.94677C93.3845 2.94677 94.0443 3.15556 94.537 3.57315C95.0298 3.98238 95.3012 4.53776 95.3513 5.2393H93.6726C93.6476 4.9637 93.5306 4.74656 93.3218 4.58787C93.1214 4.42084 92.85 4.33732 92.5075 4.33732C92.1902 4.33732 91.9438 4.39579 91.7684 4.51271C91.6014 4.62963 91.5179 4.79249 91.5179 5.00128C91.5179 5.23513 91.6348 5.41469 91.8686 5.53997C92.1025 5.65689 92.4658 5.77799 92.9585 5.90326C93.4596 6.02854 93.873 6.15799 94.1988 6.29162C94.5245 6.42524 94.8043 6.63403 95.0381 6.91799C95.2803 7.1936 95.4056 7.56107 95.4139 8.02041C95.4139 8.42129 95.3012 8.78041 95.0757 9.09778C94.8585 9.41514 94.5412 9.66569 94.1236 9.84943C93.7144 10.0248 93.2341 10.1125 92.6829 10.1125ZM99.1211 1.10523L98.9207 7.15601H97.4424L97.2294 1.10523H99.1211ZM98.2191 10.0874C97.9018 10.0874 97.6387 9.9914 97.4299 9.79932C97.2294 9.59888 97.1292 9.3525 97.1292 9.06019C97.1292 8.76788 97.2294 8.52569 97.4299 8.3336C97.6387 8.13316 97.9018 8.03294 98.2191 8.03294C98.5281 8.03294 98.7829 8.13316 98.9833 8.3336C99.1837 8.52569 99.284 8.76788 99.284 9.06019C99.284 9.3525 99.1837 9.59888 98.9833 9.79932C98.7829 9.9914 98.5281 10.0874 98.2191 10.0874Z" fill="white" fill-opacity="0.8"/>
</svg>
